<svg width="313" height="139" viewBox="0 0 313 139" fill="none" xmlns="http://www.w3.org/2000/svg">
<path d="M126.808 110.547H118.352C118.013 110.547 117.763 110.476 117.603 110.333C117.46 110.172 117.388 109.923 117.388 109.584V106.453C117.388 106.114 117.46 105.873 117.603 105.73C117.763 105.57 118.013 105.489 118.352 105.489H125.55C125.782 105.489 125.952 105.418 126.059 105.275C126.184 105.115 126.246 104.927 126.246 104.713C126.246 104.41 126.184 104.187 126.059 104.044C125.952 103.902 125.782 103.821 125.55 103.803L121.536 103.242C120.287 103.063 119.28 102.653 118.512 102.011C117.763 101.368 117.388 100.298 117.388 98.7994V95.9896C117.388 94.4732 117.879 93.3136 118.86 92.5108C119.841 91.6902 121.197 91.2799 122.928 91.2799H130.421C130.759 91.2799 131 91.3601 131.143 91.5207C131.304 91.6634 131.384 91.9042 131.384 92.2432V95.4276C131.384 95.7666 131.304 96.0163 131.143 96.1769C131 96.3196 130.759 96.391 130.421 96.391H124.185C123.954 96.391 123.775 96.4713 123.65 96.6318C123.525 96.7745 123.463 96.9619 123.463 97.1938C123.463 97.4257 123.525 97.6219 123.65 97.7825C123.775 97.9431 123.954 98.0323 124.185 98.0501L128.173 98.5853C129.421 98.7637 130.429 99.174 131.197 99.8163C131.964 100.458 132.347 101.529 132.347 103.027V105.837C132.347 107.354 131.848 108.522 130.849 109.343C129.867 110.146 128.521 110.547 126.808 110.547Z" fill="white"/>
<path d="M153.792 98.3445C153.792 99.1651 153.667 99.9144 153.418 100.592C153.186 101.252 152.758 101.823 152.133 102.305C151.527 102.769 150.688 103.134 149.618 103.402C148.547 103.67 147.183 103.803 145.524 103.803C143.864 103.803 142.5 103.67 141.429 103.402C140.359 103.134 139.512 102.769 138.887 102.305C138.281 101.823 137.852 101.252 137.603 100.592C137.371 99.9144 137.255 99.1651 137.255 98.3445V85.0983C137.255 84.7594 137.326 84.5185 137.469 84.3758C137.629 84.2153 137.879 84.135 138.218 84.135H142.419C142.758 84.135 142.999 84.2153 143.142 84.3758C143.302 84.5185 143.383 84.7594 143.383 85.0983V97.3008C143.383 97.6576 143.517 97.9609 143.784 98.2107C144.052 98.4426 144.649 98.5585 145.577 98.5585C146.523 98.5585 147.129 98.4426 147.397 98.2107C147.664 97.9609 147.798 97.6576 147.798 97.3008V85.0983C147.798 84.7594 147.869 84.5185 148.012 84.3758C148.173 84.2153 148.423 84.135 148.761 84.135H152.829C153.168 84.135 153.409 84.2153 153.552 84.3758C153.712 84.5185 153.792 84.7594 153.792 85.0983V98.3445Z" fill="white"/>
<path d="M164.338 92.0827V95.5079H166.345C166.809 95.5079 167.121 95.392 167.282 95.16C167.442 94.9103 167.523 94.607 167.523 94.2502V93.3404C167.523 92.9836 167.442 92.6892 167.282 92.4573C167.121 92.2075 166.809 92.0827 166.345 92.0827H164.338ZM163.375 106.533H159.254C158.915 106.533 158.665 106.462 158.505 106.319C158.362 106.158 158.291 105.909 158.291 105.57V88.2292C158.291 87.8903 158.362 87.6494 158.505 87.5067C158.665 87.3462 158.915 87.2659 159.254 87.2659H168.165C170.163 87.2659 171.537 87.6851 172.286 88.5236C173.053 89.3442 173.437 90.4146 173.437 91.7348V92.9657C173.437 93.715 173.321 94.3572 173.089 94.8924C172.875 95.4098 172.491 95.7844 171.938 96.0164C172.901 96.1234 173.677 96.5159 174.266 97.1938C174.873 97.8717 175.176 98.7726 175.176 99.8965V105.57C175.176 105.909 175.096 106.158 174.935 106.319C174.792 106.462 174.552 106.533 174.213 106.533H170.065C169.726 106.533 169.476 106.462 169.316 106.319C169.173 106.158 169.101 105.909 169.101 105.57V101.475C169.101 101.083 169.021 100.797 168.861 100.619C168.718 100.423 168.459 100.325 168.085 100.325H164.338V105.57C164.338 105.909 164.258 106.158 164.097 106.319C163.955 106.462 163.714 106.533 163.375 106.533Z" fill="white"/>
<path d="M184.359 100.325H180.211C179.872 100.325 179.622 100.253 179.462 100.111C179.319 99.9501 179.248 99.7003 179.248 99.3613V82.0209C179.248 81.682 179.319 81.4412 179.462 81.2984C179.622 81.1379 179.872 81.0576 180.211 81.0576H192.146C192.485 81.0576 192.726 81.1379 192.869 81.2984C193.029 81.4412 193.109 81.682 193.109 82.0209V85.2054C193.109 85.5443 193.029 85.7941 192.869 85.9546C192.726 86.0974 192.485 86.1687 192.146 86.1687H185.322V88.9518H189.979C190.318 88.9518 190.558 89.032 190.701 89.1926C190.862 89.3353 190.942 89.5762 190.942 89.9151V93.1263C190.942 93.4653 190.862 93.715 190.701 93.8756C190.558 94.0183 190.318 94.0896 189.979 94.0896H185.322V99.3613C185.322 99.7003 185.242 99.9501 185.081 100.111C184.939 100.253 184.698 100.325 184.359 100.325Z" fill="white"/>
<path d="M215.561 102.947H209.032C206.802 102.947 205.143 102.501 204.054 101.609C202.984 100.717 202.449 99.3435 202.449 97.4881V89.1658C202.449 87.3105 202.984 85.9368 204.054 85.0448C205.143 84.135 206.802 83.6801 209.032 83.6801H215.561C215.9 83.6801 216.141 83.7603 216.284 83.9209C216.444 84.0636 216.525 84.3044 216.525 84.6434V87.8814C216.525 88.2203 216.444 88.4701 216.284 88.6306C216.141 88.7733 215.9 88.8447 215.561 88.8447H210.182C209.629 88.8447 209.219 88.9607 208.952 89.1926C208.684 89.4067 208.55 89.7367 208.55 90.1827V96.5515C208.55 96.9975 208.684 97.3276 208.952 97.5417C209.219 97.7379 209.629 97.836 210.182 97.836H215.561C215.9 97.836 216.141 97.9163 216.284 98.0769C216.444 98.2196 216.525 98.4604 216.525 98.7994V101.984C216.525 102.323 216.444 102.573 216.284 102.733C216.141 102.876 215.9 102.947 215.561 102.947Z" fill="white"/>
<path d="M235.094 97.7825H221.473C221.134 97.7825 220.885 97.7111 220.724 97.5684C220.581 97.4079 220.51 97.1581 220.51 96.8191V79.4788C220.51 79.1398 220.581 78.899 220.724 78.7562C220.885 78.5957 221.134 78.5154 221.473 78.5154H225.621C225.96 78.5154 226.201 78.5957 226.344 78.7562C226.504 78.899 226.584 79.1398 226.584 79.4788V92.7249H230.25V88.3898C230.25 88.0508 230.322 87.81 230.465 87.6673C230.625 87.5067 230.875 87.4264 231.214 87.4264H235.094C235.433 87.4264 235.674 87.5067 235.817 87.6673C235.977 87.81 236.057 88.0508 236.057 88.3898V96.8191C236.057 97.1581 235.977 97.4079 235.817 97.5684C235.674 97.7111 235.433 97.7825 235.094 97.7825Z" fill="white"/>
<path d="M255.868 89.5137C255.868 90.3343 255.743 91.0836 255.493 91.7615C255.261 92.4216 254.833 92.9925 254.209 93.4742C253.602 93.938 252.764 94.3037 251.693 94.5713C250.623 94.8389 249.258 94.9727 247.599 94.9727C245.94 94.9727 244.575 94.8389 243.505 94.5713C242.435 94.3037 241.587 93.938 240.963 93.4742C240.356 92.9925 239.928 92.4216 239.678 91.7615C239.446 91.0836 239.33 90.3343 239.33 89.5137V76.2676C239.33 75.9286 239.402 75.6878 239.545 75.5451C239.705 75.3845 239.955 75.3042 240.294 75.3042H244.495C244.834 75.3042 245.075 75.3845 245.218 75.5451C245.378 75.6878 245.458 75.9286 245.458 76.2676V88.4701C245.458 88.8269 245.592 89.1301 245.86 89.3799C246.127 89.6118 246.725 89.7278 247.653 89.7278C248.598 89.7278 249.205 89.6118 249.472 89.3799C249.74 89.1301 249.874 88.8269 249.874 88.4701V76.2676C249.874 75.9286 249.945 75.6878 250.088 75.5451C250.248 75.3845 250.498 75.3042 250.837 75.3042H254.905C255.244 75.3042 255.484 75.3845 255.627 75.5451C255.788 75.6878 255.868 75.9286 255.868 76.2676V89.5137Z" fill="white"/>
<path d="M272.8 97.7825H262.524C262.185 97.7825 261.935 97.7111 261.775 97.5684C261.632 97.4079 261.561 97.1581 261.561 96.8191V79.4788C261.561 79.1398 261.632 78.899 261.775 78.7562C261.935 78.5957 262.185 78.5154 262.524 78.5154H271.06C272.809 78.5154 274.102 78.8544 274.941 79.5323C275.779 80.1924 276.198 81.2182 276.198 82.6097V83.8941C276.198 84.6434 276.064 85.2589 275.797 85.7406C275.547 86.2044 275.155 86.5523 274.619 86.7842C275.761 86.8912 276.609 87.2837 277.162 87.9616C277.715 88.6396 277.991 89.6297 277.991 90.932V93.3939C277.991 94.8924 277.563 95.9985 276.707 96.7121C275.868 97.4257 274.566 97.7825 272.8 97.7825ZM267.582 83.0646V85.9546H269.856C270.195 85.9546 270.445 85.8654 270.605 85.6871C270.784 85.5087 270.873 85.241 270.873 84.8842V84.135C270.873 83.7782 270.784 83.5106 270.605 83.3322C270.445 83.1538 270.195 83.0646 269.856 83.0646H267.582ZM267.582 90.0757V93.2333H271.06C271.399 93.2333 271.649 93.1441 271.81 92.9657C271.988 92.7873 272.077 92.5197 272.077 92.1629V91.1193C272.077 90.7625 271.988 90.5038 271.81 90.3433C271.649 90.1649 271.399 90.0757 271.06 90.0757H267.582Z" fill="white"/>
<path fill-rule="evenodd" clip-rule="evenodd" d="M136.684 138.5C181.905 138.5 312.268 124.643 312.268 79.4009C317.381 27.8478 280.685 22.0693 254.494 17.9452C251.39 17.4564 248.434 16.9909 245.712 16.4751C237.206 13.9276 235 22.3987 232.833 30.7192C230.868 38.2681 228.934 45.6932 222.357 44.653C215.494 43.5677 211.881 38.0597 207.474 31.3424C198.917 18.3005 187.37 0.700107 143.248 2.05939C131.15 2.05939 125.87 19.2408 121.014 35.042C116.673 49.1659 112.671 62.1871 104.443 60.8492C96.9883 59.6372 97.963 56.7888 99.3874 52.6264C100.957 48.0397 103.073 41.8576 95.0579 34.5115C75.3803 16.4751 44.3891 0 23.4005 0C-5.62074 0 -1.91408 11.901 4.46609 32.386C8.02758 43.8209 12.4221 57.9306 12.4221 74.138C12.4221 119.38 91.4624 138.5 136.684 138.5ZM132.899 130.023C169.759 130.023 304.095 120.005 304.095 79.4672C308.159 34.4097 277.852 29.1451 257.583 25.6242C254.61 25.1077 251.852 24.6288 249.451 24.0672C243.105 24.0672 239.441 33.2198 235.917 42.0252C232.464 50.6505 229.145 58.9428 223.568 57.9732C218.089 57.0208 213.464 50.9125 207.728 43.3383C196.236 28.1629 180.289 7.10348 144.101 9.8388C136.081 8.79324 132.878 19.7501 129.102 32.6637C123.813 50.753 117.402 72.6819 95.0579 70.8393C89.1096 69.7762 90.2455 65.0736 91.6635 59.2027C93.2901 52.4684 95.288 44.1968 87.3915 38.1174C74.3208 28.0545 47.08 7.56831 29.9721 7.56831C6.31688 7.56831 9.33818 18.2318 14.5387 36.5867C17.4416 46.8326 21.0236 59.4751 21.0236 73.9973C21.0236 114.535 96.0396 130.023 132.899 130.023Z" fill="white"/>
</svg>
