<svg width="777" height="659" viewBox="0 0 777 659" fill="none" xmlns="http://www.w3.org/2000/svg">
<g clip-path="url(#clip0)">
<path opacity="0.2" d="M31.7753 331.118C52.601 278.698 90.2275 227.216 122.45 210.39C231.788 168.94 321.609 210.28 352.852 236.131C393.356 265.335 468.569 367.764 445.386 543.849C422.204 719.933 212.843 645.124 122.45 567.5C86.6297 524.263 -48.6275 533.5 31.7753 331.118Z" fill="#1EDA00"/>
<path opacity="0.2" d="M476.576 6.11631C532.87 2.57302 579.153 66.8639 595.258 99.4522C634.268 209.685 590.941 298.565 564.401 329.226C534.304 369.071 430.229 441.988 254.703 414.896C79.1769 387.804 183.014 147.116 262.629 58.4702C306.652 23.6202 420.282 9.6596 476.576 6.11631Z" fill="#00DAA6"/>
<path opacity="0.2" d="M311.135 378.575C291.988 325.518 340.769 263.101 367.552 238.524C462.475 170.241 559.926 186.98 596.786 203.885C643.458 221.636 742.574 301.164 765.656 477.262C788.738 653.36 451.953 683.606 344.578 631.962C298.806 599.443 330.282 431.631 311.135 378.575Z" fill="#00DADA"/>
<path d="M325.862 349H310.187C309.559 349 309.096 348.868 308.799 348.603C308.534 348.306 308.402 347.843 308.402 347.214V341.411C308.402 340.783 308.534 340.336 308.799 340.072C309.096 339.774 309.559 339.625 310.187 339.625H323.53C323.96 339.625 324.274 339.493 324.473 339.228C324.704 338.931 324.82 338.584 324.82 338.187C324.82 337.625 324.704 337.211 324.473 336.947C324.274 336.682 323.96 336.533 323.53 336.5L316.09 335.459C313.775 335.128 311.907 334.367 310.485 333.177C309.096 331.986 308.402 330.002 308.402 327.225V322.016C308.402 319.206 309.311 317.056 311.13 315.568C312.949 314.047 315.462 313.286 318.669 313.286H332.558C333.186 313.286 333.633 313.435 333.897 313.733C334.195 313.997 334.344 314.444 334.344 315.072V320.975C334.344 321.603 334.195 322.066 333.897 322.364C333.633 322.628 333.186 322.76 332.558 322.76H321.001C320.571 322.76 320.24 322.909 320.009 323.207C319.777 323.471 319.661 323.819 319.661 324.249C319.661 324.678 319.777 325.042 320.009 325.34C320.24 325.637 320.571 325.803 321.001 325.836L328.391 326.828C330.706 327.159 332.575 327.919 333.996 329.11C335.418 330.3 336.129 332.284 336.129 335.062V340.27C336.129 343.081 335.203 345.247 333.352 346.768C331.533 348.256 329.036 349 325.862 349ZM371.961 339.625C371.961 341.146 371.73 342.535 371.267 343.792C370.837 345.015 370.044 346.073 368.886 346.966C367.762 347.826 366.208 348.504 364.224 349C362.239 349.496 359.71 349.744 356.634 349.744C353.559 349.744 351.029 349.496 349.045 349C347.061 348.504 345.49 347.826 344.333 346.966C343.209 346.073 342.415 345.015 341.952 343.792C341.522 342.535 341.307 341.146 341.307 339.625V315.072C341.307 314.444 341.44 313.997 341.704 313.733C342.002 313.435 342.465 313.286 343.093 313.286H350.881C351.509 313.286 351.955 313.435 352.22 313.733C352.517 313.997 352.666 314.444 352.666 315.072V337.691C352.666 338.352 352.914 338.914 353.41 339.377C353.906 339.807 355.014 340.022 356.734 340.022C358.486 340.022 359.611 339.807 360.107 339.377C360.603 338.914 360.851 338.352 360.851 337.691V315.072C360.851 314.444 360.983 313.997 361.247 313.733C361.545 313.435 362.008 313.286 362.636 313.286H370.176C370.804 313.286 371.25 313.435 371.515 313.733C371.813 313.997 371.961 314.444 371.961 315.072V339.625ZM389.773 322.215V328.564H393.493C394.353 328.564 394.932 328.349 395.229 327.919C395.527 327.456 395.676 326.894 395.676 326.233V324.546C395.676 323.885 395.527 323.339 395.229 322.909C394.932 322.446 394.353 322.215 393.493 322.215H389.773ZM387.988 349H380.349C379.721 349 379.258 348.868 378.96 348.603C378.695 348.306 378.563 347.843 378.563 347.214V315.072C378.563 314.444 378.695 313.997 378.96 313.733C379.258 313.435 379.721 313.286 380.349 313.286H396.866C400.57 313.286 403.116 314.064 404.505 315.618C405.927 317.139 406.638 319.123 406.638 321.57V323.852C406.638 325.241 406.423 326.431 405.993 327.423C405.596 328.382 404.885 329.076 403.86 329.506C405.646 329.705 407.084 330.432 408.176 331.689C409.3 332.945 409.862 334.615 409.862 336.699V347.214C409.862 347.843 409.713 348.306 409.416 348.603C409.151 348.868 408.705 349 408.076 349H400.388C399.76 349 399.297 348.868 398.999 348.603C398.735 348.306 398.602 347.843 398.602 347.214V339.625C398.602 338.898 398.454 338.369 398.156 338.038C397.891 337.674 397.412 337.492 396.718 337.492H389.773V347.214C389.773 347.843 389.624 348.306 389.327 348.603C389.062 348.868 388.616 349 387.988 349ZM424.9 349H417.211C416.583 349 416.12 348.868 415.823 348.603C415.558 348.306 415.426 347.843 415.426 347.214V315.072C415.426 314.444 415.558 313.997 415.823 313.733C416.12 313.435 416.583 313.286 417.211 313.286H439.334C439.962 313.286 440.409 313.435 440.673 313.733C440.971 313.997 441.12 314.444 441.12 315.072V320.975C441.12 321.603 440.971 322.066 440.673 322.364C440.409 322.628 439.962 322.76 439.334 322.76H426.685V327.919H435.316C435.944 327.919 436.391 328.068 436.655 328.366C436.953 328.63 437.102 329.076 437.102 329.705V335.657C437.102 336.285 436.953 336.748 436.655 337.046C436.391 337.31 435.944 337.443 435.316 337.443H426.685V347.214C426.685 347.843 426.537 348.306 426.239 348.603C425.974 348.868 425.528 349 424.9 349ZM333.054 400H320.951C316.818 400 313.742 399.173 311.725 397.52C309.741 395.866 308.749 393.32 308.749 389.881V374.455C308.749 371.016 309.741 368.47 311.725 366.816C313.742 365.13 316.818 364.286 320.951 364.286H333.054C333.682 364.286 334.129 364.435 334.393 364.733C334.691 364.997 334.84 365.444 334.84 366.072V372.074C334.84 372.702 334.691 373.165 334.393 373.463C334.129 373.727 333.682 373.86 333.054 373.86H323.084C322.059 373.86 321.298 374.075 320.802 374.505C320.306 374.901 320.058 375.513 320.058 376.34V388.145C320.058 388.972 320.306 389.584 320.802 389.98C321.298 390.344 322.059 390.526 323.084 390.526H333.054C333.682 390.526 334.129 390.675 334.393 390.972C334.691 391.237 334.84 391.683 334.84 392.312V398.214C334.84 398.843 334.691 399.306 334.393 399.603C334.129 399.868 333.682 400 333.054 400ZM367.474 400H342.227C341.599 400 341.136 399.868 340.838 399.603C340.574 399.306 340.441 398.843 340.441 398.214V366.072C340.441 365.444 340.574 364.997 340.838 364.733C341.136 364.435 341.599 364.286 342.227 364.286H349.915C350.544 364.286 350.99 364.435 351.255 364.733C351.552 364.997 351.701 365.444 351.701 366.072V390.625H358.496V382.59C358.496 381.961 358.629 381.515 358.893 381.25C359.191 380.953 359.654 380.804 360.282 380.804H367.474C368.103 380.804 368.549 380.953 368.814 381.25C369.111 381.515 369.26 381.961 369.26 382.59V398.214C369.26 398.843 369.111 399.306 368.814 399.603C368.549 399.868 368.103 400 367.474 400ZM405.336 390.625C405.336 392.146 405.105 393.535 404.642 394.792C404.212 396.015 403.418 397.073 402.261 397.966C401.137 398.826 399.582 399.504 397.598 400C395.614 400.496 393.085 400.744 390.009 400.744C386.934 400.744 384.404 400.496 382.42 400C380.436 399.504 378.865 398.826 377.708 397.966C376.584 397.073 375.79 396.015 375.327 394.792C374.897 393.535 374.682 392.146 374.682 390.625V366.072C374.682 365.444 374.814 364.997 375.079 364.733C375.377 364.435 375.84 364.286 376.468 364.286H384.255C384.884 364.286 385.33 364.435 385.595 364.733C385.892 364.997 386.041 365.444 386.041 366.072V388.691C386.041 389.352 386.289 389.914 386.785 390.377C387.281 390.807 388.389 391.022 390.108 391.022C391.861 391.022 392.985 390.807 393.481 390.377C393.977 389.914 394.225 389.352 394.225 388.691V366.072C394.225 365.444 394.358 364.997 394.622 364.733C394.92 364.435 395.383 364.286 396.011 364.286H403.551C404.179 364.286 404.625 364.435 404.89 364.733C405.188 364.997 405.336 365.444 405.336 366.072V390.625ZM432.771 400H413.724C413.095 400 412.632 399.868 412.335 399.603C412.07 399.306 411.938 398.843 411.938 398.214V366.072C411.938 365.444 412.07 364.997 412.335 364.733C412.632 364.435 413.095 364.286 413.724 364.286H429.547C432.787 364.286 435.185 364.915 436.739 366.171C438.293 367.395 439.07 369.296 439.07 371.876V374.257C439.07 375.645 438.822 376.786 438.326 377.679C437.863 378.539 437.136 379.184 436.144 379.614C438.26 379.812 439.831 380.539 440.856 381.796C441.881 383.053 442.394 384.888 442.394 387.302V391.865C442.394 394.643 441.6 396.693 440.013 398.016C438.459 399.339 436.045 400 432.771 400ZM423.099 372.719V378.076H427.315C427.943 378.076 428.406 377.911 428.704 377.58C429.034 377.249 429.2 376.753 429.2 376.092V374.703C429.2 374.042 429.034 373.546 428.704 373.215C428.406 372.884 427.943 372.719 427.315 372.719H423.099ZM423.099 385.715V391.568H429.547C430.175 391.568 430.638 391.402 430.936 391.072C431.266 390.741 431.432 390.245 431.432 389.584V387.649C431.432 386.988 431.266 386.508 430.936 386.211C430.638 385.88 430.175 385.715 429.547 385.715H423.099Z" fill="white"/>
</g>
<defs>
<clipPath id="clip0">
<rect width="777" height="659" fill="white"/>
</clipPath>
</defs>
</svg>
