<svg width="182" height="81" viewBox="0 0 182 81" fill="none" xmlns="http://www.w3.org/2000/svg">
<g clip-path="url(#clip0)">
<path d="M171.62 47.2137C171.62 72.0669 96.1647 78.7645 71.3114 78.7645C46.4582 78.7645 6.82711 69.1758 6.82711 44.3226C6.82711 19.4694 -11.9925 3.5957 12.8607 3.5957C24.3959 3.5957 42.6259 15.1887 51.5764 22.3251C65.0371 25.3419 47.6162 37.141 56.2274 38.5404C65.8093 40.0976 65.7459 3.18805 78.7277 4.72701C115.307 2.213 111.251 28.4904 122.346 30.2442C129.945 31.4454 126.125 9.97702 135.042 12.6461C147.407 16.3477 174.763 15.5372 171.62 47.2137Z" fill="#93CBC3"/>
<path d="M17.0304 4.16375C19.2445 5.2107 21.6957 5.65104 23.8994 6.67033C24.4881 6.94265 24.8697 7.5941 25.3078 8.03019C26.0836 8.80253 27.2625 9.32471 28.3025 9.68358C28.9551 9.90875 29.6587 10.0781 30.3289 10.257C31.0799 10.4575 31.8869 10.6298 32.6789 10.6151C33.0403 10.6084 33.1904 10.5253 33.4761 10.7026C34.0137 11.0363 34.6664 11.2559 35.2309 11.5748C35.8767 11.9397 36.3066 12.5827 36.9378 12.9842C37.7934 13.5285 38.7058 13.9758 39.5657 14.5095C39.7297 14.6113 41.3876 16.2237 41.3745 16.0204C41.3442 15.5487 39.8598 13.228 41.2823 13.3782C41.8167 13.4346 42.1461 13.7308 42.6422 13.8572C43.3618 14.0406 44.3577 13.962 44.9437 14.3463C45.3166 14.5908 45.6006 14.9412 45.979 15.1819C46.6575 15.6136 47.4185 15.6582 48.0231 16.1313C48.3837 16.4135 48.8358 16.5526 49.1439 16.8993C49.5197 17.3223 49.7707 17.7962 50.1774 18.1915C50.832 18.828 51.5603 19.529 52.3129 20.075C52.6387 20.3114 53.936 21.9156 54.138 21.6389C54.3773 21.311 55.2309 21.9092 55.4106 21.7466C55.5885 21.5858 55.4306 21.0604 55.4306 21.0604C55.4306 21.0604 56.3432 22.0216 56.8876 22.4054C57.799 23.0479 59.1635 23.5511 59.7314 24.5197C60.0012 24.98 59.9334 25.7742 59.8283 26.2814C59.6751 27.0211 59.3336 27.8084 59.1254 28.5535C58.9498 29.1821 58.7798 29.8279 58.5516 30.4377C58.2716 31.1859 57.5901 31.5712 57.0798 32.1658C55.7271 33.7419 56.7232 36.0809 58.1156 37.3386C58.5908 37.7678 59.1256 38.0993 59.5909 38.5121C59.9512 38.8318 61.3727 37.1343 61.5823 36.9483C62.302 36.3095 63.0847 35.584 64.0247 35.296C64.8729 35.0361 65.7084 35.5586 66.5482 35.6424C67.5434 35.7417 68.8233 35.5708 69.7358 36.0176C70.4948 36.3893 71.1289 36.6016 71.973 36.8167C72.5705 36.969 73.1064 37.2086 73.7228 37.3256C74.3212 37.4391 74.7052 37.9952 75.2128 38.2872C75.7191 38.5785 75.889 39.8737 76.1072 40.3685C76.3466 40.9112 75.9931 39.5046 76.1519 40.023C76.6072 41.5091 76.9007 43.0258 77.209 44.5425C77.3417 45.1955 77.2827 45.7946 77.4878 46.464C77.7229 47.2316 78.2075 47.7712 78.6481 48.4306C79.8024 50.1582 81.6254 51.1252 82.2621 53.2033C82.4105 53.6876 81.7454 53.874 81.2728 53.9626C80.5201 54.1037 79.7694 54.2762 79.0022 54.2685C77.4452 54.2527 75.9864 53.4236 74.653 52.7895C73.5102 52.246 71.9408 51.7921 70.9559 51.0113C70.4085 50.5774 70.3072 49.5591 70.1193 48.9455C69.6483 47.4084 69.6763 46.0465 69.953 44.4434C70.1504 43.2999 70.544 42.1626 70.8872 41.0472C71.2014 40.0259 71.7634 39.061 71.9305 38.0074C72.2063 36.2669 72.2158 34.4697 72.4088 32.719C72.563 31.32 72.7811 30.059 73.0865 28.6881C73.4262 27.1635 73.4296 25.5846 73.6559 24.0436C74.0604 21.288 74.5097 18.4775 75.6879 15.9073C76.4262 14.2967 78.1918 13.4188 80.035 13.6798C81.6267 13.9051 84.3214 14.5614 85.3452 15.8097C86.4475 17.1535 86.3258 14.4215 86.2451 13.7758C86.0372 12.112 84.4755 10.883 83.2765 9.80887C82.3904 9.01512 80.203 6.51177 81.4594 5.32325C81.9706 4.83974 82.4182 4.97074 83.1364 4.95873C85.9428 4.9118 88.6436 5.53572 91.3606 6.02172C92.7442 6.26921 93.9551 6.78209 95.2676 7.21318C96.0593 7.47318 96.8861 7.58893 97.5893 8.02785C99.7053 9.34871 97.3771 6.22176 98.8995 6.69756C100.601 7.22918 101.761 8.85468 103.486 9.47209C104.757 9.92676 105.989 10.3504 107.206 10.9199C107.85 11.2211 108.621 11.3626 109.213 11.748C109.288 11.7964 109.496 12.0343 109.489 12.0119C109.377 11.6455 109.264 11.279 109.152 10.9126C109.037 10.5386 107.942 8.43856 108.54 8.16419C108.705 8.08852 109.151 9.32057 109.18 9.38625C109.976 11.1994 111.147 12.7992 112.282 14.4237C114.071 16.9845 115.511 19.6924 117.126 22.3442C118.183 24.0802 120.057 25.2896 121.161 26.9879C121.971 28.2347 122.839 29.3013 123.876 30.3858C124.359 30.8914 124.682 31.4465 125.283 31.8289C125.601 32.0312 126.439 32.0614 126.8 32.1271C128.266 32.394 129.782 32.28 131.251 32.5217C132.05 32.6531 132.83 33.0745 133.406 33.6029C135.97 35.956 138.164 38.5922 139.345 41.8597C140.131 44.0334 141.09 46.525 140.947 48.9077C140.906 49.5822 140.947 50.0919 140.311 50.504C139.129 51.2698 138.195 51.2294 136.952 50.6955C133.822 49.3511 132.72 46.1782 131.269 43.3887C130.616 42.135 130.232 40.7979 129.88 39.4352C129.591 38.3143 129.176 37.0808 129.399 35.9004C129.681 34.4111 129.488 32.8079 129.584 31.2992C129.687 29.6569 129.455 28.0315 129.548 26.384C129.598 25.4883 129.693 23.8953 130.446 23.1895C130.711 22.9411 131.823 22.0202 131.923 22.1729C132.249 22.669 132.698 23.0529 133.061 23.5162C133.211 23.7082 133.146 23.3309 133.155 23.1887C133.225 22.107 132.987 20.9965 132.95 19.9177C132.895 18.2897 132.959 16.3296 134.057 14.9177C134.675 14.123 136.455 13.654 137.364 13.4568C138.506 13.2088 139.614 13.6753 140.703 13.8933C142.173 14.1876 143.688 14.171 145.16 14.4519C147.018 14.8065 148.823 15.3264 150.71 15.5713C151.623 15.6899 152.589 15.6543 153.355 16.1707C157.536 18.9891 161.739 21.7667 166.123 24.3175C167.154 24.9176 168.3 25.3946 169.304 26.0299C169.735 26.3028 169.898 26.8855 170.12 27.3058C170.845 28.679 171.858 29.9177 172.332 31.405C172.789 32.8421 173.333 34.4222 173.369 35.947C173.42 38.089 172.995 40.4512 172.389 42.517C171.621 45.1369 171.034 47.6365 170.594 50.2989C170.257 52.3353 169.742 54.4534 168.405 56.161C165.668 59.6568 161.031 61.758 156.917 63.3464C151.898 65.284 146.663 66.7798 141.532 68.3917C135.717 70.2184 129.848 71.8788 123.861 73.0261C120.018 73.7627 116.129 74.2808 112.246 74.7105C107.418 75.2448 102.611 75.1593 97.7834 75.0778C91.165 74.9661 84.4967 75.0284 77.9126 74.4979C69.7266 73.8385 61.636 72.3267 53.5727 71.008C50.6959 70.5375 47.8153 70.0738 44.9478 69.5619C42.9868 69.2117 41.0307 68.8457 39.2334 68.0202C34.8752 66.0184 31.4598 62.5586 28.4939 59.0365C22.8581 52.3437 17.3154 45.4309 14.2545 37.242C12.8466 33.4755 11.5015 29.7272 10.8557 25.7439C10.4532 23.2615 9.90306 20.81 10.2266 18.257C10.5033 16.0733 11.5988 13.4815 12.9257 11.6911C13.7533 10.5744 14.0567 9.26865 14.7214 8.07239C15.111 7.37134 15.5268 6.69175 15.9267 5.99471C16.1671 5.57566 16.3261 4.88791 16.6769 4.57062" stroke="black" stroke-width="2" stroke-linecap="round" stroke-linejoin="round"/>
</g>
<defs>
<clipPath id="clip0">
<rect width="182" height="81" fill="white"/>
</clipPath>
</defs>
</svg>
