<svg width="2180" height="1463" viewBox="0 0 2180 1463" fill="none" xmlns="http://www.w3.org/2000/svg">
<g clip-path="url(#clip0)">
<path opacity="0.3" d="M1994.24 832.104C1994.24 1306.23 555.108 1434 81.0928 1434C-392.922 1434 -1148.79 1251.08 -1148.79 776.95C-1148.79 302.824 -1507.73 0 -1033.71 0C-813.707 0 -466.015 221.16 -295.304 357.301C-38.5745 414.853 -370.837 639.945 -206.599 666.642C-23.8469 696.348 -25.0569 -7.77681 222.541 21.5819C920.193 -26.3779 842.849 474.918 1054.45 508.375C1199.39 531.291 1126.52 121.737 1296.59 172.656C1532.44 243.27 2054.18 227.809 1994.24 832.104Z" fill="#C9E5E7" fill-opacity="0.7"/>
</g>
<defs>
<clipPath id="clip0">
<rect width="2180" height="1463" fill="white"/>
</clipPath>
</defs>
</svg>
