<svg width="21" height="21" viewBox="0 0 21 21" fill="none" xmlns="http://www.w3.org/2000/svg">
<path fill-rule="evenodd" clip-rule="evenodd" d="M1.75 4.375H9.48938L7.7735 7.34738C7.71575 7.448 7.7 7.567 7.72975 7.67988C7.7595 7.79188 7.833 7.88725 7.93363 7.945C8.03425 8.00275 8.15325 8.0185 8.26525 7.98875C8.37725 7.959 8.4735 7.8855 8.53125 7.78488L10.5 4.375L12.4688 7.78488C12.5265 7.8855 12.6227 7.959 12.7347 7.98875C12.8467 8.0185 12.9657 8.00275 13.0664 7.945C13.167 7.88725 13.2405 7.79188 13.2703 7.67988C13.3 7.567 13.2843 7.448 13.2265 7.34738L11.5106 4.375H19.25L21 19.25L12.2745 20.125L10.5516 14.5381L8.80163 20.125L0 19.25L1.75 4.375V4.375ZM19.25 3.5H1.75V0.875H19.25V3.5Z" fill="#4F4F4F"/>
</svg>
