<svg width="477" height="422" viewBox="0 0 477 422" fill="none" xmlns="http://www.w3.org/2000/svg">
<path d="M195.169 186.237L203.62 183.754C203.62 186.096 204.18 187.789 204.908 187.789C205.383 187.789 205.747 187.028 205.747 185.955V168.347H215.206V185.419C215.206 191.063 211.232 195.154 205.551 195.154C200.094 195.126 195.757 191.373 195.169 186.237Z" fill="black"/>
<path d="M217.361 184.855V168.347H226.82V184.121C226.82 185.588 227.267 187.225 228.834 187.225C230.178 187.225 230.849 185.983 230.849 184.121V168.347H240.308V184.855C240.308 191.345 235.719 195.324 228.834 195.324C221.95 195.295 217.361 191.345 217.361 184.855Z" fill="black"/>
<path d="M242.462 168.347H251.921V194.759H242.462V168.347V168.347Z" fill="black"/>
<path d="M253.572 181.554C253.572 173.371 258.805 167.784 266.025 167.784C272.49 167.784 277.443 172.27 277.891 178.901L269.244 179.804C268.964 177.321 267.76 175.854 266.193 175.854C264.374 175.854 263.059 177.914 263.059 181.554C263.059 185.194 264.71 187.254 266.809 187.254C268.712 187.254 270.307 185.645 270.699 182.937L279.458 183.839C278.702 190.64 273.777 195.324 266.753 195.324C259.141 195.296 253.572 189.737 253.572 181.554Z" fill="black"/>
<path d="M285.615 185.955L278.171 168.347H287.965L290.372 178.252L292.387 168.347H302.321L295.129 185.955V194.759H285.671V185.955H285.615Z" fill="black"/>
<path d="M310.661 168.347H322.89L327.171 184.036L331.677 168.347H343.766V194.759H335.399V178.111L330.642 194.759H323.729L319.028 178.111V194.759H310.661V168.347Z" fill="black"/>
<path d="M351.798 168.347H363.439L370.38 194.759H360.893L360.193 190.724H354.82L353.981 194.759H344.802L351.798 168.347ZM359.298 184.488L357.619 176.023L355.716 184.488H359.298Z" fill="black"/>
<path d="M383.308 190.357L382.833 187.028C382.749 186.435 382.217 185.955 381.601 185.955H380.958V194.759H371.499V168.347H382.385C390.249 168.347 393.691 171.931 393.691 177.264C393.691 180.763 392.236 183.049 390.137 183.952C391.312 184.432 391.816 185.56 391.956 187.028L392.152 188.946C392.236 189.68 392.627 189.962 393.019 189.962C393.355 189.962 393.831 189.765 394.194 189.398L395.314 193.546C393.775 194.675 391.284 195.493 389.241 195.493C385.911 195.493 383.728 193.348 383.308 190.357ZM381.993 180.086C383.197 180.086 384.204 179.183 384.204 177.518C384.204 175.882 383.197 174.95 381.993 174.95H380.93V180.086H381.993Z" fill="black"/>
<path d="M396.349 168.347H409.11C414.343 168.347 418.177 171.423 418.177 175.571C418.177 178.337 416.498 180.679 414.175 181.356C416.722 181.948 418.541 184.432 418.541 187.423C418.541 191.683 414.791 194.759 409.67 194.759H396.349V168.347ZM407.347 178.788C408.354 178.788 409.054 177.941 409.054 176.672C409.054 175.43 408.354 174.584 407.347 174.584H405.808V178.816H407.347V178.788ZM407.235 188.523C408.354 188.523 409.082 187.705 409.082 186.491C409.082 185.052 408.326 184.093 407.235 184.093H405.808V188.495H407.235V188.523Z" fill="black"/>
<path d="M420.192 168.347H429.651V186.689H436.563V194.759H420.192V168.347Z" fill="black"/>
<path d="M438.382 168.347H454.389V175.684H447.477V178.252H452.934V184.488H447.477V187.423H454.753V194.759H438.382V168.347Z" fill="black"/>
<path d="M455.648 187.451L463.736 185.984C463.736 187.79 464.799 188.693 466.143 188.693C467.15 188.693 467.934 188.298 467.934 187.31C467.934 185.843 466.311 185.589 464.268 185.194C461.329 184.601 456.096 183.021 456.096 176.418C456.096 171 460.21 167.784 465.919 167.784C471.124 167.784 475.266 170.718 475.825 175.261L468.102 176.729C468.102 175.148 467.402 174.387 466.45 174.387C465.723 174.387 465.191 174.725 465.191 175.572C465.191 177.011 466.758 177.265 468.745 177.603C472.215 178.14 477.001 179.663 477.001 186.323C477.001 191.966 472.383 195.324 466.003 195.324C460.574 195.296 456.208 192.22 455.648 187.451Z" fill="black"/>
<path d="M69.9496 181.677C71.0969 181.677 72.2443 180.797 72.2443 178.962V172.459C72.2443 170.815 71.4794 169.783 70.1411 169.438V169.324H78.0573V178.388C78.0573 180.491 78.8228 181.027 80.2756 181.256V181.37L72.3588 184.277V179.994C71.9 182.135 69.2229 184.469 66.584 184.469C63.5244 184.469 62.1856 182.442 62.1856 179.153V172.651C62.1856 170.777 61.0388 169.667 59.9673 169.438V169.324H67.9992V178.808C67.9992 180.491 68.4586 181.677 69.9496 181.677Z" fill="black"/>
<path d="M69.9496 181.677C71.0969 181.677 72.2443 180.797 72.2443 178.962V172.459C72.2443 170.815 71.4794 169.783 70.1411 169.438V169.324H78.0573V178.388C78.0573 180.491 78.8228 181.027 80.2756 181.256V181.37L72.3588 184.277V179.994C71.9 182.135 69.2229 184.469 66.584 184.469C63.5244 184.469 62.1856 182.442 62.1856 179.153V172.651C62.1856 170.777 61.0388 169.667 59.9673 169.438V169.324H67.9992V178.808C67.9992 180.491 68.4586 181.677 69.9496 181.677Z" stroke="black" stroke-width="0.0912573" stroke-miterlimit="10"/>
<path d="M88.6371 183.78C90.0136 183.78 90.587 182.709 90.587 180.873V174.525C90.587 172.842 90.1281 171.426 88.6371 171.426C87.3364 171.426 86.6098 172.459 86.6098 174.371V180.873C86.6098 182.709 87.1455 183.78 88.6371 183.78ZM78.6548 171.503L86.4946 168.826V172.994C86.954 170.852 89.3638 168.864 92.0027 168.864C95.0623 168.864 96.4006 170.891 96.4006 174.18V180.682C96.4006 182.9 97.5479 183.78 98.7334 183.895V184.009H78.7317V183.895C79.9936 183.589 80.7961 182.786 80.7961 180.682V174.486C80.7961 172.383 80.0318 171.848 78.6548 171.618V171.503" fill="black"/>
<path d="M88.6371 183.78C90.0136 183.78 90.587 182.709 90.587 180.873V174.525C90.587 172.842 90.1281 171.426 88.6371 171.426C87.3364 171.426 86.6098 172.459 86.6098 174.371V180.873C86.6098 182.709 87.1455 183.78 88.6371 183.78ZM78.6548 171.503L86.4946 168.826V172.994C86.954 170.852 89.3638 168.864 92.0027 168.864C95.0623 168.864 96.4006 170.891 96.4006 174.18V180.682C96.4006 182.9 97.5479 183.78 98.7334 183.895V184.009H78.7317V183.895C79.9936 183.589 80.7961 182.786 80.7961 180.682V174.486C80.7961 172.383 80.0318 171.848 78.6548 171.618V171.503Z" stroke="black" stroke-width="0.0912573" stroke-miterlimit="10"/>
<path d="M106.082 164.16C106.082 166.034 104.59 167.564 102.717 167.564C100.843 167.564 99.3891 166.034 99.3891 164.16C99.3891 162.286 100.843 160.794 102.717 160.794C104.59 160.794 106.082 162.286 106.082 164.16ZM108.377 183.895V184.009H98.0509V183.895C99.3128 183.589 100.116 182.786 100.116 180.682V174.563C100.116 172.459 99.3128 171.962 97.7061 171.618V171.503L106.12 168.635V180.682C106.12 182.9 107.23 183.626 108.377 183.895" fill="black"/>
<path d="M106.082 164.16C106.082 166.034 104.59 167.564 102.717 167.564C100.843 167.564 99.3891 166.034 99.3891 164.16C99.3891 162.286 100.843 160.794 102.717 160.794C104.59 160.794 106.082 162.286 106.082 164.16ZM108.377 183.895V184.009H98.0509V183.895C99.3128 183.589 100.116 182.786 100.116 180.682V174.563C100.116 172.459 99.3128 171.962 97.7061 171.618V171.503L106.12 168.635V180.682C106.12 182.9 107.23 183.626 108.377 183.895V183.895Z" stroke="black" stroke-width="0.0912573" stroke-miterlimit="10"/>
<path d="M118.259 175.289C116.691 175.289 115.353 174.104 115.353 172.536C115.353 171.618 115.658 171.121 116.194 170.509C116.423 170.241 116.767 170.127 116.767 169.782C116.767 169.438 116.462 169.209 116.041 169.209C114.091 169.209 112.752 172.038 112.752 174.678C112.752 177.7 114.473 181.065 117.532 181.065C119.636 181.065 120.936 179.918 121.663 178.159H121.854C121.051 180.873 119.139 184.583 114.511 184.583C110.419 184.583 107.321 181.409 107.321 177.087C107.321 172.536 111.108 168.941 116.002 168.941C118.604 168.941 121.089 170.127 121.089 172.498C121.089 174.143 119.827 175.289 118.259 175.289" fill="black"/>
<path d="M118.259 175.289C116.691 175.289 115.353 174.104 115.353 172.536C115.353 171.618 115.658 171.121 116.194 170.509C116.423 170.241 116.767 170.127 116.767 169.782C116.767 169.438 116.462 169.209 116.041 169.209C114.091 169.209 112.752 172.038 112.752 174.678C112.752 177.7 114.473 181.065 117.532 181.065C119.636 181.065 120.936 179.918 121.663 178.159H121.854C121.051 180.873 119.139 184.583 114.511 184.583C110.419 184.583 107.321 181.409 107.321 177.087C107.321 172.536 111.108 168.941 116.002 168.941C118.604 168.941 121.089 170.127 121.089 172.498C121.089 174.143 119.827 175.289 118.259 175.289V175.289Z" stroke="black" stroke-width="0.0912573" stroke-miterlimit="10"/>
<path d="M127.848 176.78C127.848 182.862 128.575 184.277 129.875 184.277C131.213 184.277 131.826 182.862 131.826 176.78C131.826 170.7 131.252 169.247 129.914 169.247C128.613 169.247 127.848 170.7 127.848 176.78V176.78ZM138.022 176.78C138.022 181.753 133.814 184.545 129.875 184.545C125.668 184.545 121.652 181.753 121.652 176.78C121.652 171.809 125.974 168.978 129.914 168.978C134.083 168.978 138.022 171.809 138.022 176.78Z" fill="black"/>
<path d="M127.848 176.78C127.848 182.862 128.575 184.277 129.875 184.277C131.213 184.277 131.826 182.862 131.826 176.78C131.826 170.7 131.252 169.247 129.914 169.247C128.613 169.247 127.848 170.7 127.848 176.78V176.78ZM138.022 176.78C138.022 181.753 133.814 184.545 129.875 184.545C125.668 184.545 121.652 181.753 121.652 176.78C121.652 171.809 125.974 168.978 129.914 168.978C134.083 168.978 138.022 171.809 138.022 176.78Z" stroke="black" stroke-width="0.0912573" stroke-miterlimit="10"/>
<path d="M146.076 172.115C145.694 172.115 145.159 172.994 145.159 174.754V180.873C145.159 182.709 145.886 183.626 147.491 183.895V184.009H136.974V183.895C138.504 183.512 139.345 182.786 139.345 180.682V174.486C139.345 172.383 138.58 171.848 137.203 171.618V171.503L145.044 168.826V173.492C145.503 171.349 146.841 168.711 149.442 168.711C151.699 168.711 152.654 170.432 152.654 171.618C152.654 173.186 151.583 174.868 149.671 174.868C146.727 174.868 146.994 172.115 146.076 172.115" fill="black"/>
<path d="M146.076 172.115C145.694 172.115 145.159 172.994 145.159 174.754V180.873C145.159 182.709 145.886 183.626 147.491 183.895V184.009H136.974V183.895C138.504 183.512 139.345 182.786 139.345 180.682V174.486C139.345 172.383 138.58 171.848 137.203 171.618V171.503L145.044 168.826V173.492C145.503 171.349 146.841 168.711 149.442 168.711C151.699 168.711 152.654 170.432 152.654 171.618C152.654 173.186 151.583 174.868 149.671 174.868C146.727 174.868 146.994 172.115 146.076 172.115V172.115Z" stroke="black" stroke-width="0.0912573" stroke-miterlimit="10"/>
<path d="M162.018 183.78C163.395 183.78 163.968 182.709 163.968 180.873V174.525C163.968 172.842 163.509 171.426 162.018 171.426C160.718 171.426 159.991 172.459 159.991 174.371V180.873C159.991 182.709 160.527 183.78 162.018 183.78ZM152.036 171.503L159.876 168.826V172.994C160.335 170.852 162.745 168.864 165.384 168.864C168.444 168.864 169.782 170.891 169.782 174.18V180.682C169.782 182.9 170.929 183.78 172.115 183.895V184.009H152.113V183.895C153.374 183.589 154.177 182.786 154.177 180.682V174.486C154.177 172.383 153.413 171.848 152.036 171.618V171.503" fill="black"/>
<path d="M162.018 183.78C163.395 183.78 163.968 182.709 163.968 180.873V174.525C163.968 172.842 163.509 171.426 162.018 171.426C160.718 171.426 159.991 172.459 159.991 174.371V180.873C159.991 182.709 160.527 183.78 162.018 183.78ZM152.036 171.503L159.876 168.826V172.994C160.335 170.852 162.745 168.864 165.384 168.864C168.444 168.864 169.782 170.891 169.782 174.18V180.682C169.782 182.9 170.929 183.78 172.115 183.895V184.009H152.113V183.895C153.374 183.589 154.177 182.786 154.177 180.682V174.486C154.177 172.383 153.413 171.848 152.036 171.618V171.503Z" stroke="black" stroke-width="0.0912573" stroke-miterlimit="10"/>
<path d="M79.5877 206.088C80.8114 206.088 81.3848 205.018 81.3848 203.182V196.834C81.3848 195.151 81.1556 193.735 79.664 193.735C78.3634 193.735 77.7131 194.768 77.7131 196.68V203.182C77.7131 205.018 78.3252 206.088 79.5877 206.088ZM70.1029 206.088C71.3261 206.088 71.9 205.018 71.9 203.182V196.834C71.9 195.151 71.6703 193.735 70.1787 193.735C68.8786 193.735 68.2289 194.768 68.2289 196.68V203.182C68.2289 205.018 68.841 206.088 70.1029 206.088ZM77.7513 194.883C78.5549 192.626 80.352 191.173 82.8382 191.173C85.8983 191.173 87.1984 193.2 87.1984 196.49V202.991C87.1984 205.209 88.3457 206.088 89.5312 206.203V206.318H59.9673V206.203C61.2297 205.783 62.4153 205.095 62.4153 202.991V196.795C62.4153 194.692 61.6504 194.156 60.2734 193.927V193.812L68.1138 191.135V195.304C68.5726 193.162 70.7139 191.173 73.3534 191.173C76.222 191.173 77.5985 192.13 77.7513 194.883Z" fill="black"/>
<path d="M79.5877 206.088C80.8114 206.088 81.3848 205.018 81.3848 203.182V196.834C81.3848 195.151 81.1556 193.735 79.664 193.735C78.3634 193.735 77.7131 194.768 77.7131 196.68V203.182C77.7131 205.018 78.3252 206.088 79.5877 206.088ZM70.1029 206.088C71.3261 206.088 71.9 205.018 71.9 203.182V196.834C71.9 195.151 71.6703 193.735 70.1787 193.735C68.8786 193.735 68.2289 194.768 68.2289 196.68V203.182C68.2289 205.018 68.841 206.088 70.1029 206.088ZM77.7513 194.883C78.5549 192.626 80.352 191.173 82.8382 191.173C85.8983 191.173 87.1984 193.2 87.1984 196.49V202.991C87.1984 205.209 88.3457 206.088 89.5312 206.203V206.318H59.9673V206.203C61.2297 205.783 62.4153 205.095 62.4153 202.991V196.795C62.4153 194.692 61.6504 194.156 60.2734 193.927V193.812L68.1138 191.135V195.304C68.5726 193.162 70.7139 191.173 73.3534 191.173C76.222 191.173 77.5985 192.13 77.7513 194.883Z" stroke="black" stroke-width="0.0912573" stroke-miterlimit="10"/>
<path d="M93.9687 197.216H97.7932C97.7932 194.501 97.5635 191.556 96.1106 191.556C94.5421 191.556 93.8536 194.501 93.9687 197.216V197.216ZM96.3397 191.288C100.7 191.288 103.377 194.042 103.338 197.446H95.8422C95.116 197.446 94.4657 197.484 94.0069 197.484C93.8923 200.543 95.6512 203.488 98.6726 203.488C100.776 203.488 102.574 202.035 103.415 200.123L103.568 200.161C102.612 202.877 100.356 206.854 95.7276 206.854C91.6353 206.854 88.5381 203.871 88.5381 199.243C88.5381 194.769 91.9413 191.288 96.3397 191.288" fill="black"/>
<path d="M93.9687 197.216H97.7932C97.7932 194.501 97.5635 191.556 96.1106 191.556C94.5421 191.556 93.8536 194.501 93.9687 197.216V197.216ZM96.3397 191.288C100.7 191.288 103.377 194.042 103.338 197.446H95.8422C95.116 197.446 94.4657 197.484 94.0069 197.484C93.8923 200.543 95.6512 203.488 98.6726 203.488C100.776 203.488 102.574 202.035 103.415 200.123L103.568 200.161C102.612 202.877 100.356 206.854 95.7276 206.854C91.6353 206.854 88.5381 203.871 88.5381 199.243C88.5381 194.769 91.9413 191.288 96.3397 191.288V191.288Z" stroke="black" stroke-width="0.0912573" stroke-miterlimit="10"/>
<path d="M109.153 201.806C109.153 203.183 109.421 204.56 110.683 204.56C111.639 204.56 111.639 203.298 111.639 201.539V198.173L110.989 198.593C109.727 199.358 109.153 199.97 109.153 201.806V201.806ZM113.475 191.174C116.152 191.174 117.606 192.704 117.606 195.457V202.38C117.606 203.412 117.606 204.254 118.37 204.254C118.982 204.254 119.365 203.374 119.632 202.533H119.747C119.288 204.827 117.682 206.931 115.119 206.931C113.513 206.931 111.792 206.166 111.792 203.603C111.41 205.516 109.688 206.931 107.623 206.931C105.596 206.931 103.569 205.669 103.569 203.642C103.569 200.123 107.05 199.932 109.88 198.861C110.568 198.593 111.18 198.249 111.639 197.829V194.616C111.639 193.24 110.989 192.245 109.651 192.245C109.039 192.245 108.273 192.589 108.273 193.2C108.273 193.966 109.651 194.004 109.651 195.534C109.651 197.216 107.738 198.823 105.979 198.823C104.755 198.823 103.99 198.096 103.99 196.873C103.99 193.736 109.841 191.174 113.475 191.174" fill="black"/>
<path d="M109.153 201.806C109.153 203.183 109.421 204.56 110.683 204.56C111.639 204.56 111.639 203.298 111.639 201.539V198.173L110.989 198.593C109.727 199.358 109.153 199.97 109.153 201.806V201.806ZM113.475 191.174C116.152 191.174 117.606 192.704 117.606 195.457V202.38C117.606 203.412 117.606 204.254 118.37 204.254C118.982 204.254 119.365 203.374 119.632 202.533H119.747C119.288 204.827 117.682 206.931 115.119 206.931C113.513 206.931 111.792 206.166 111.792 203.603C111.41 205.516 109.688 206.931 107.623 206.931C105.596 206.931 103.569 205.669 103.569 203.642C103.569 200.123 107.05 199.932 109.88 198.861C110.568 198.593 111.18 198.249 111.639 197.829V194.616C111.639 193.24 110.989 192.245 109.651 192.245C109.039 192.245 108.273 192.589 108.273 193.2C108.273 193.966 109.651 194.004 109.651 195.534C109.651 197.216 107.738 198.823 105.979 198.823C104.755 198.823 103.99 198.096 103.99 196.873C103.99 193.736 109.841 191.174 113.475 191.174V191.174Z" stroke="black" stroke-width="0.0912573" stroke-miterlimit="10"/>
<path d="M126.096 191.632H130.188L129.156 193.698H126.096V201.692C126.096 203.259 126.708 204.445 128.008 204.445C129.079 204.445 129.921 203.489 130.418 202.418L130.533 202.456C129.691 204.751 127.664 206.931 124.796 206.931C121.698 206.931 120.282 205.133 120.282 201.96V193.698H118.676L126.096 186.813V191.632" fill="black"/>
<path d="M126.096 191.632H130.188L129.156 193.698H126.096V201.692C126.096 203.259 126.708 204.445 128.008 204.445C129.079 204.445 129.921 203.489 130.418 202.418L130.533 202.456C129.691 204.751 127.664 206.931 124.796 206.931C121.698 206.931 120.282 205.133 120.282 201.96V193.698H118.676L126.096 186.813V191.632Z" stroke="black" stroke-width="0.0912573" stroke-miterlimit="10"/>
<path d="M45.7811 187.227C45.4036 184.977 44.7485 182.233 44.5183 181.591C44.3385 181.09 44.1192 180.597 43.8132 180.158C43.7377 180.051 43.6563 179.948 43.5703 179.848C43.5768 179.842 44.5107 178.991 45.2862 179.132C47.0074 179.442 49.0033 185.741 49.1318 186.144C50.5209 190.483 50.1756 191.87 50.1713 191.883C49.9932 192.755 49.3972 194.514 48.657 194.557C47.8135 194.61 46.8833 193.57 46.2505 192.495C46.2548 192.382 46.1592 189.478 45.7811 187.227" fill="black"/>
<path d="M18.4451 200.649C18.8119 200.041 19.2964 199.491 19.7421 198.952C20.5251 198.007 21.3258 197.068 21.9957 196.039C22.2036 195.719 22.4043 195.386 22.5747 195.039C22.6878 195.107 22.8308 195.15 22.96 195.203C23.2569 195.327 23.5576 195.442 23.8601 195.549C24.1651 195.658 24.4725 195.759 24.7818 195.854C24.6251 196.493 24.3083 197.716 24.0109 198.407C23.8472 198.789 23.6231 199.184 23.3872 199.603C22.9544 200.368 22.6247 200.494 22.4234 201.385C22.2407 202.189 22.4049 202.997 22.431 204.146C22.4871 206.606 21.9486 208.642 20.9158 209.879C20.6065 210.249 20.2373 210.426 19.8429 210.397C19.2864 210.351 18.7125 209.891 18.2686 209.133C17.8301 208.393 17.2376 206.984 17.5055 206.351C18.6321 203.699 18.4803 201.4 18.4451 200.649" fill="black"/>
<path d="M9.02142 178.646C10.1518 177.529 11.3921 181.22 13.4345 180.636C14.6766 180.28 15.6781 179.336 17.0782 179.336C21.3016 179.337 23.2859 184.469 20.1787 187.331C17.6307 189.68 14.111 188.751 11.7718 186.527C9.79686 184.65 8.26262 179.946 9.02142 178.646Z" fill="black"/>
<path d="M26.2416 189.369C26.3899 190.323 26.9861 191.024 27.5727 190.934C28.1603 190.844 28.5153 190 28.3678 189.047C28.2197 188.093 27.6232 187.393 27.0366 187.481C26.449 187.57 26.0935 188.416 26.2416 189.369Z" fill="black"/>
<path d="M23.7558 184.175C23.9947 183.054 24.3564 181.84 25.0998 180.941C25.6077 180.327 26.6693 179.67 27.2913 180.515C28.013 181.495 27.9117 183.138 28.0633 184.285C28.1571 184.994 28.2949 185.635 28.7313 186.217C29.0397 186.629 29.4463 186.925 29.806 187.285C30.6828 188.163 30.8658 189.526 30.8757 190.715C30.8867 192.022 30.5807 193.51 29.5975 194.446C28.7597 195.244 27.5286 195.376 26.5306 194.805C24.39 193.581 23.6605 190.421 23.4732 188.168C23.3622 186.839 23.4785 185.478 23.7558 184.175V184.175ZM10.2378 208.783C10.3711 209.671 10.6664 210.513 11.1928 211.245C11.5714 211.772 12.1657 212.574 12.9035 212.334C14.2787 211.888 14.8661 210.328 15.3441 209.11C16.0698 207.261 16.4777 205.38 16.8464 203.435C17.0146 202.547 17.1172 201.612 17.5372 200.8C17.9571 199.989 18.5765 199.291 19.166 198.601C20.3418 197.223 21.9462 195.692 22.3893 193.874C22.4441 193.65 22.5129 192.999 22.8267 193.032C23.083 193.059 23.0086 193.53 22.9747 193.737C22.9412 193.941 22.7724 194.306 22.803 194.494C22.8326 194.675 22.9919 194.705 23.1983 194.774C23.6008 194.908 24.0047 195.038 24.4101 195.162C25.9599 195.636 27.9198 196.303 29.4524 195.402C30.8655 194.57 31.4435 192.833 31.5397 191.281C31.6299 189.823 31.4443 188.04 30.4007 186.924C29.956 186.449 29.4006 186.095 29.0795 185.511C28.7039 184.827 28.7068 183.941 28.6254 183.183C28.4921 181.94 28.372 179.575 26.6946 179.442C26.1069 179.395 25.4406 179.651 24.8973 179.843C23.9549 180.175 23.05 180.621 22.2208 181.18C19.6077 182.94 18.1176 185.903 17.6043 188.966C17.3827 190.288 17.6369 191.652 17.3453 192.962C17.1846 193.683 16.8789 194.399 16.3004 194.885C15.6834 195.404 14.6906 195.408 14.2655 196.138C13.8596 196.837 13.9415 197.755 13.8351 198.531C13.6965 199.541 13.5054 200.545 13.2324 201.529C12.7138 203.398 11.7181 204.862 10.5818 206.407C10.0667 207.108 10.1148 207.963 10.2378 208.783" fill="black"/>
<path d="M48.1204 164.759C47.7213 165.42 47.1527 166.259 46.2715 165.894C45.6452 165.634 45.377 164.86 45.1984 164.255C44.9675 163.474 45.2051 162.848 44.6946 162.139C44.1231 161.346 43.3717 161.604 42.4778 161.736C42.0824 161.795 41.9072 161.619 41.571 161.333C41.2417 161.053 40.7942 160.694 40.4326 160.451C40.0476 160.193 39.4964 159.771 39.0409 160.205C38.6418 160.586 38.584 161.212 38.7263 161.643C38.9159 162.217 39.1667 163.116 39.455 163.651C38.6019 163.895 38.4264 164.699 38.2613 165.405C38.0131 166.466 37.762 167.527 37.4792 168.58C36.975 170.457 36.3833 172.406 35.2335 174.029C33.1959 172.664 32.6322 170.365 33.2348 168.123C33.6152 166.707 34.456 165.436 34.6565 163.972C34.8098 162.85 34.6897 161.717 35.1879 160.658C36.2029 158.5 38.7736 156.887 41.1919 156.562C43.3181 156.277 45.5373 156.929 47.0416 158.406C48.7499 160.084 49.3727 162.69 48.1204 164.759Z" fill="black"/>
<path fill-rule="evenodd" clip-rule="evenodd" d="M33.9177 176.466C33.5639 176.724 33.2151 176.979 32.9099 177.316C30.5386 179.939 30.9089 184.01 31.5744 187.201C31.9076 188.799 32.3969 190.532 33.649 191.668C34.0513 192.032 35.0035 192.665 35.5858 192.323C35.7551 192.223 35.7185 192.1 35.6715 191.942C35.6541 191.884 35.6354 191.821 35.625 191.752C35.5724 191.405 35.5441 191.047 35.5619 190.695C35.5732 190.473 35.6422 189.529 35.8593 189.529C36.0351 189.529 36.0783 190.076 36.0818 190.282C36.0934 190.963 36.1681 191.808 36.487 192.415C37.1859 193.743 38.809 192.889 39.534 192.07C39.9843 191.561 40.2794 190.981 40.5823 190.385C40.6144 190.322 40.6467 190.259 40.6792 190.195C40.6872 190.18 40.6949 190.165 40.7024 190.15C40.8794 189.806 40.9276 189.712 40.8493 189.307C40.7842 188.972 40.7093 188.637 40.6284 188.305C40.536 187.927 40.2404 186.553 40.4862 186.369C40.673 186.229 40.9473 186.852 41.0618 187.179C41.1867 187.538 41.2597 187.935 41.3309 188.322C41.3624 188.494 41.3936 188.663 41.4288 188.827C41.5938 189.594 41.7639 190.393 41.6118 191.174C41.547 191.508 41.4276 191.833 41.3082 192.158C41.153 192.58 40.9979 193.002 40.9624 193.443C40.9078 194.122 41.2708 194.756 41.5989 195.323C42.114 196.215 43.1426 197.635 44.1526 196.441C45.1038 195.317 45.4093 193.482 45.438 192.069C45.4735 190.327 45.262 188.58 44.9804 186.864C44.9394 186.613 44.8994 186.361 44.8592 186.107C44.6301 184.661 44.3944 183.173 43.9215 181.802C43.5346 180.681 42.5931 179.106 41.1797 179.286C39.9645 179.442 39.2702 180.927 38.7983 181.937C38.7772 181.982 38.7567 182.026 38.7365 182.068C38.7256 182.092 38.6824 182.204 38.6183 182.371C38.3426 183.088 37.6814 184.809 37.5489 184.744C37.2641 184.603 37.7626 183.143 37.9259 182.665C37.9451 182.609 37.9596 182.566 37.9678 182.541C38.6508 180.408 40.4258 177.292 43.0071 179.251C42.2548 176.974 42.3881 174.489 42.8752 172.172C42.8936 172.084 42.9291 171.981 42.9657 171.874C43.0223 171.71 43.0817 171.537 43.0861 171.4C43.0931 171.191 43.0082 171.107 42.8753 170.976C42.8382 170.94 42.7974 170.899 42.7538 170.852C42.4211 170.489 42.1298 170.102 41.8485 169.698C41.8385 169.684 41.8239 169.664 41.8064 169.641C41.6477 169.426 41.2395 168.875 41.5994 168.785C41.8123 168.732 42.1414 169.121 42.3305 169.345C42.3709 169.393 42.4049 169.433 42.43 169.46C43.5604 170.663 44.8649 171.886 46.4112 172.534C47.7775 173.107 49.9005 172.789 49.7804 170.887C49.7345 170.164 49.4715 169.416 49.225 168.716C49.1782 168.582 49.132 168.451 49.088 168.322C48.7378 167.294 48.3141 166.291 47.8455 165.312C47.482 165.949 47.0644 166.641 46.2347 166.313C45.6385 166.078 45.2225 165.476 45.0557 164.875C44.9783 164.596 44.955 164.313 44.9318 164.032C44.8976 163.617 44.8637 163.204 44.6567 162.813C44.2993 162.137 43.6813 161.862 42.9287 161.907C42.8198 161.914 42.6963 161.95 42.5708 161.986C42.3797 162.042 42.1839 162.098 42.028 162.055C41.8964 162.019 41.7659 161.865 41.6501 161.728C41.5965 161.665 41.546 161.605 41.5 161.563C41.0029 161.105 40.3428 160.573 39.6791 160.39C38.064 159.944 39.585 163.249 39.8497 163.764C39.042 164.007 38.8292 165.17 38.6759 166.008C38.6477 166.161 38.6216 166.304 38.5941 166.429C38.2819 167.842 37.9686 169.259 37.5319 170.641C37.0975 172.015 36.5488 173.362 35.7129 174.544C35.6961 174.568 35.6793 174.592 35.6623 174.616C35.3014 175.127 34.8877 175.714 34.4027 176.101C34.2425 176.229 34.0795 176.348 33.9177 176.466ZM42.5934 166.832C42.4751 166.253 42.7522 165.577 43.4416 165.567C43.7697 165.566 44.6019 165.943 44.611 166.253C44.6167 166.453 44.3391 166.347 44.0697 166.245C43.9231 166.189 43.7789 166.134 43.6843 166.13C43.5588 166.124 43.4648 166.123 43.3602 166.19C43.1113 166.352 43.0977 166.756 43.087 167.073C43.0792 167.304 43.0729 167.489 42.9773 167.499C42.7511 167.523 42.6401 167.061 42.5934 166.832Z" fill="black"/>
<path d="M47.4465 163.972C47.7577 163.92 48.0849 163.571 48.3133 163.375C48.5509 163.17 48.7774 162.954 49.0047 162.739C49.4856 162.285 49.961 161.825 50.4263 161.356C51.3531 160.421 52.3255 159.467 53.127 158.423C53.1942 158.334 53.6047 157.888 53.5048 157.748C53.3898 157.59 52.7868 157.92 52.6683 157.978C52.0423 158.289 51.445 158.681 50.8452 159.04C49.5628 159.806 48.2811 160.606 47.0798 161.494C46.5612 161.876 45.8628 162.267 46.1882 162.985C46.39 163.43 46.8833 164.055 47.4465 163.972" fill="black"/>
<path d="M92.0485 30.385L88.6293 21.1642C88.4898 20.7871 87.9566 20.7871 87.8168 21.1642L84.3982 30.3856C84.3739 30.4511 84.3659 30.5215 84.3747 30.5909C84.3835 30.6602 84.409 30.7264 84.4489 30.7838C84.4888 30.8411 84.542 30.888 84.604 30.9204C84.6659 30.9527 84.7348 30.9696 84.8046 30.9696H91.6421C91.7119 30.9696 91.7808 30.9526 91.8427 30.9203C91.9047 30.8879 91.9578 30.841 91.9977 30.7836C92.0376 30.7262 92.063 30.66 92.0718 30.5906C92.0806 30.5213 92.0725 30.4508 92.0482 30.3853L92.0485 30.385ZM93.6279 35.5678H82.8191C82.7306 35.5678 82.6443 35.5949 82.5717 35.6454C82.4991 35.6959 82.4437 35.7675 82.4129 35.8504L80.285 41.5878C80.2542 41.6708 80.1988 41.7423 80.1262 41.7928C80.0536 41.8433 79.9673 41.8704 79.8788 41.8704H75.1939C75.1231 41.8704 75.0534 41.853 74.9908 41.8198C74.9283 41.7866 74.8748 41.7385 74.8351 41.6798C74.7954 41.6211 74.7708 41.5536 74.7632 41.4832C74.7557 41.4127 74.7655 41.3415 74.7918 41.2757L85.5779 14.3943C85.6102 14.314 85.6658 14.2453 85.7375 14.1968C85.8092 14.1484 85.8937 14.1226 85.9803 14.1227H90.4661C90.6429 14.1227 90.8021 14.2302 90.8682 14.3943L101.654 41.2754C101.68 41.3412 101.69 41.4125 101.683 41.483C101.675 41.5536 101.651 41.6212 101.611 41.6799C101.571 41.7387 101.518 41.7868 101.455 41.8201C101.393 41.8534 101.323 41.8707 101.252 41.8707H96.5679C96.4794 41.8707 96.3931 41.8436 96.3205 41.793C96.2479 41.7424 96.1925 41.6708 96.1617 41.5878L94.0335 35.8504C94.0027 35.7675 93.9473 35.6959 93.8747 35.6454C93.8021 35.5949 93.7158 35.5678 93.6274 35.5678H93.6279ZM103.849 23.5567H107.856C107.971 23.5567 108.081 23.6024 108.162 23.6837C108.244 23.7649 108.289 23.8752 108.289 23.9902V41.437C108.289 41.5519 108.244 41.6622 108.162 41.7435C108.081 41.8248 107.971 41.8704 107.856 41.8704H103.849C103.734 41.8704 103.624 41.8248 103.543 41.7435C103.461 41.6622 103.416 41.5519 103.416 41.437V23.9899C103.416 23.8749 103.461 23.7647 103.543 23.6834C103.624 23.6021 103.734 23.5564 103.849 23.5564V23.5567ZM122.903 27.8006C122.903 27.9156 122.857 28.0259 122.776 28.1071C122.695 28.1884 122.585 28.2341 122.47 28.2341H122.348C120.367 28.2341 118.914 28.7098 117.989 29.6611C117.065 30.6124 116.603 32.185 116.603 34.3784V41.437C116.603 41.5519 116.557 41.6622 116.476 41.7435C116.395 41.8248 116.285 41.8704 116.17 41.8704H112.202C112.087 41.8704 111.977 41.8248 111.896 41.7435C111.814 41.6622 111.769 41.5519 111.769 41.437V23.9899C111.769 23.8749 111.814 23.7647 111.896 23.6834C111.977 23.6021 112.087 23.5564 112.202 23.5564H116.13C116.245 23.5564 116.355 23.6021 116.436 23.6834C116.517 23.7647 116.563 23.8749 116.563 23.9899V27.4409H116.643C117.118 26.0139 117.871 24.9178 118.901 24.1508C119.931 23.3848 121.199 23.0013 122.705 23.0013H122.903V27.8003V27.8006ZM133.859 27.6394C133.744 27.6394 133.634 27.6851 133.553 27.7663C133.471 27.8476 133.426 27.9579 133.426 28.0729V35.3297C133.426 36.0698 133.57 36.5983 133.861 36.9153C134.152 37.2323 134.654 37.391 135.367 37.391H135.766C135.881 37.391 135.991 37.4366 136.072 37.5179C136.153 37.5992 136.199 37.7095 136.199 37.8244V41.4763C136.199 41.5912 136.153 41.7015 136.072 41.7828C135.991 41.8641 135.881 41.9097 135.766 41.9097H134.059C132.289 41.9097 130.929 41.454 129.978 40.5423C129.027 39.6306 128.552 38.2767 128.552 36.4792V28.0729C128.552 27.9579 128.506 27.8476 128.425 27.7663C128.344 27.6851 128.233 27.6394 128.118 27.6394H125.617C125.502 27.6394 125.392 27.5937 125.311 27.5124C125.23 27.4311 125.184 27.3209 125.184 27.2059V23.9899C125.184 23.8749 125.23 23.7647 125.311 23.6834C125.392 23.6021 125.502 23.5564 125.617 23.5564H128.119C128.234 23.5564 128.344 23.5107 128.425 23.4294C128.506 23.3482 128.552 23.2379 128.552 23.1229V16.6565C128.552 16.5415 128.598 16.4312 128.679 16.35C128.76 16.2687 128.87 16.223 128.985 16.223H132.992C133.107 16.223 133.217 16.2687 133.299 16.35C133.38 16.4312 133.425 16.5415 133.425 16.6565V23.1229C133.425 23.2379 133.471 23.3482 133.552 23.4294C133.634 23.5107 133.744 23.5564 133.859 23.5564H136.756C136.871 23.5564 136.981 23.6021 137.063 23.6834C137.144 23.7647 137.19 23.8749 137.19 23.9899V27.2062C137.19 27.3212 137.144 27.4314 137.063 27.5127C136.981 27.594 136.871 27.6397 136.756 27.6397H133.859V27.6394ZM152.207 36.4397C153.119 35.4883 153.574 34.2463 153.574 32.7133C153.574 31.1811 153.119 29.9385 152.207 28.9872C151.296 28.0359 150.1 27.5602 148.621 27.5602C147.142 27.5602 145.947 28.0359 145.035 28.9872C144.124 29.9385 143.669 31.1811 143.669 32.7133C143.669 34.2463 144.124 35.4883 145.035 36.4397C145.947 37.391 147.142 37.8666 148.621 37.8666C150.1 37.8666 151.296 37.391 152.207 36.4397ZM142.955 41.3153C141.608 40.5492 140.545 39.4323 139.766 37.9658C138.986 36.4992 138.597 34.7486 138.597 32.7133C138.597 30.6789 138.986 28.9277 139.766 27.4611C140.545 25.9945 141.608 24.8785 142.955 24.1115C144.303 23.3452 145.781 22.962 147.393 22.962C148.819 22.962 150.041 23.2394 151.059 23.7942C152.075 24.3491 152.887 25.129 153.495 26.1332H153.574V23.9899C153.574 23.8749 153.62 23.7647 153.701 23.6834C153.782 23.6021 153.893 23.5564 154.007 23.5564H157.975C158.09 23.5564 158.2 23.6021 158.281 23.6834C158.362 23.7647 158.408 23.8749 158.408 23.9899V41.4367C158.408 41.5516 158.362 41.6619 158.281 41.7432C158.2 41.8245 158.09 41.8701 157.975 41.8701H154.007C153.893 41.8701 153.782 41.8245 153.701 41.7432C153.62 41.6619 153.574 41.5516 153.574 41.4367V39.2936H153.495C152.887 40.2984 152.075 41.0775 151.058 41.6323C150.041 42.1872 148.82 42.4646 147.393 42.4646C145.781 42.4646 144.303 42.0814 142.955 41.3153V41.3153ZM174.908 36.4397C175.82 35.4883 176.275 34.2463 176.275 32.7133C176.275 31.1811 175.82 29.9385 174.908 28.9872C173.997 28.0359 172.802 27.5602 171.322 27.5602C169.843 27.5602 168.648 28.0359 167.737 28.9872C166.826 29.9385 166.369 31.1811 166.369 32.7133C166.369 34.2463 166.826 35.4883 167.737 36.4397C168.648 37.391 169.843 37.8666 171.322 37.8666C172.802 37.8666 173.997 37.391 174.908 36.4397ZM168.886 41.6323C167.869 41.0775 167.056 40.2984 166.449 39.2936H166.369V41.4367C166.369 41.5516 166.324 41.6619 166.243 41.7432C166.161 41.8245 166.051 41.8701 165.936 41.8701H161.929C161.814 41.8701 161.704 41.8245 161.623 41.7432C161.542 41.6619 161.496 41.5516 161.496 41.4367V14.5553C161.496 14.4403 161.542 14.3301 161.623 14.2488C161.704 14.1675 161.814 14.1218 161.929 14.1218H165.936C166.051 14.1218 166.161 14.1675 166.243 14.2488C166.324 14.3301 166.369 14.4403 166.369 14.5553V26.1329H166.449C167.056 25.1287 167.869 24.3491 168.886 23.7942C169.902 23.2391 171.124 22.9617 172.551 22.9617C174.162 22.9617 175.641 23.3449 176.989 24.1112C178.336 24.8782 179.399 25.9942 180.178 27.4605C180.957 28.9279 181.347 30.6792 181.347 32.7136C181.347 34.7488 180.957 36.4992 180.178 37.966C179.399 39.4326 178.336 40.5495 176.989 41.3153C175.642 42.0817 174.162 42.4652 172.551 42.4652C171.125 42.4652 169.903 42.1877 168.886 41.6326L168.886 41.6323ZM188.098 41.8704H184.091C183.977 41.8704 183.866 41.8248 183.785 41.7435C183.704 41.6622 183.658 41.5519 183.658 41.437V14.5562C183.658 14.4412 183.704 14.3309 183.785 14.2497C183.866 14.1684 183.977 14.1227 184.091 14.1227H188.098C188.213 14.1227 188.324 14.1684 188.405 14.2497C188.486 14.3309 188.532 14.4412 188.532 14.5562V41.437C188.532 41.5519 188.486 41.6622 188.405 41.7435C188.324 41.8248 188.213 41.8704 188.098 41.8704V41.8704ZM197.55 27.7983C196.886 28.3168 196.437 29.0652 196.205 30.0443C196.141 30.3142 196.352 30.5731 196.629 30.5731H204.255C204.519 30.5731 204.727 30.3361 204.685 30.0749C204.532 29.1487 204.135 28.4104 203.494 27.8579C202.741 27.2105 201.757 26.8869 200.542 26.8869C199.326 26.8869 198.329 27.1906 197.55 27.7983V27.7983ZM207.317 25.5189C208.876 27.2238 209.655 29.6354 209.655 32.7532V33.271C209.655 33.386 209.609 33.4962 209.528 33.5775C209.447 33.6588 209.337 33.7045 209.222 33.7045H196.482C196.419 33.7046 196.356 33.7186 196.298 33.7455C196.241 33.7723 196.19 33.8114 196.149 33.86C196.108 33.9086 196.079 33.9655 196.062 34.0268C196.045 34.0881 196.042 34.1522 196.053 34.2148C196.257 35.373 196.769 36.2931 197.59 36.9748C198.527 37.7551 199.71 38.1443 201.136 38.1443C202.978 38.1443 204.682 37.4254 206.249 35.9871C206.441 35.8114 206.744 35.8487 206.893 36.0623L208.841 38.8596C208.902 38.9466 208.929 39.053 208.917 39.1586C208.904 39.2642 208.854 39.3616 208.774 39.4323C207.818 40.2697 206.755 40.9762 205.613 41.5335C204.345 42.1542 202.853 42.4652 201.136 42.4652C199.155 42.4652 197.424 42.0617 195.945 41.2561C194.466 40.4504 193.317 39.3141 192.498 37.847C191.679 36.3804 191.27 34.6827 191.27 32.7532C191.27 30.8245 191.666 29.1201 192.459 27.6397C193.251 26.1601 194.36 25.0105 195.787 24.191C197.213 23.3723 198.878 22.9623 200.78 22.9623C203.579 22.9623 205.758 23.8148 207.317 25.5189V25.5189ZM108.813 17.1067C108.813 18.7417 107.488 20.0673 105.853 20.0673C104.218 20.0673 102.893 18.7417 102.893 17.1064C102.893 15.4711 104.218 14.1455 105.853 14.1455C107.488 14.1455 108.813 15.4711 108.813 17.1064" fill="#333333"/>
<path d="M36.0545 6.30413L17.0017 14.1912C15.9422 14.6299 15.9532 16.1358 17.0194 16.5585L36.1515 24.1489C37.8325 24.8158 39.7045 24.8158 41.3855 24.1489L60.518 16.5582C61.5839 16.1358 61.5954 14.6302 60.5353 14.1915L41.4832 6.30384C39.745 5.58427 37.7924 5.58427 36.0542 6.30384" fill="black"/>
<path d="M40.4658 28.2932V47.2551C40.4658 48.1567 41.3748 48.7746 42.2128 48.4422L63.5319 40.1636C63.7696 40.0693 63.9736 39.9057 64.1173 39.694C64.261 39.4823 64.3378 39.2323 64.3378 38.9765V20.0148C64.3378 19.1129 63.4288 18.4954 62.5908 18.8277L41.2717 27.1064C41.034 27.2007 40.8301 27.3643 40.6864 27.576C40.5427 27.7877 40.4658 28.0376 40.4658 28.2935" fill="black"/>
<path d="M35.4875 29.2717L29.1605 32.3279L28.5181 32.6386L15.1621 39.0409C14.3158 39.4495 13.2349 38.8323 13.2349 37.8914V20.0943C13.2349 19.7539 13.4093 19.46 13.6433 19.2389C13.7393 19.1433 13.8482 19.0616 13.9668 18.9962C14.2857 18.8046 14.7409 18.7535 15.128 18.9066L35.3812 26.935C36.4107 27.3436 36.4916 28.7868 35.4875 29.272" fill="black"/>
<path d="M35.4878 29.2717L29.1607 32.3279L13.6436 19.2386C13.7396 19.1431 13.8485 19.0615 13.9671 18.9962C14.286 18.8046 14.7412 18.7535 15.1283 18.9066L35.3815 26.935C36.4109 27.3436 36.4918 28.7868 35.4878 29.272" fill="black" fill-opacity="0.25"/>
<path d="M288.971 102.037C287.78 102.037 286.788 103.029 286.788 104.22C286.788 105.443 287.78 106.402 288.971 106.402C290.194 106.402 291.153 105.41 291.153 104.22C291.153 103.029 290.161 102.037 288.971 102.037ZM282.424 95.4906C281.233 95.4906 280.242 96.4825 280.242 97.6729C280.242 98.8963 281.233 99.8551 282.424 99.8551C283.647 99.8551 284.606 98.8632 284.606 97.6729C284.606 96.4825 283.614 95.4906 282.424 95.4906ZM282.424 108.617C281.233 108.617 280.242 109.609 280.242 110.8C280.242 111.99 281.233 112.982 282.424 112.982C283.647 112.982 284.606 111.99 284.606 110.8C284.606 109.576 283.614 108.617 282.424 108.617ZM282.424 102.037C281.233 102.037 280.242 103.029 280.242 104.22C280.242 105.41 281.233 106.402 282.424 106.402C283.647 106.402 284.606 105.41 284.606 104.22C284.606 103.029 283.614 102.037 282.424 102.037ZM275.844 102.037C274.621 102.037 273.662 103.029 273.662 104.22C273.662 105.443 274.654 106.402 275.844 106.402C277.034 106.402 278.026 105.41 278.026 104.22C278.026 103.029 277.067 102.037 275.844 102.037ZM468.38 112.982H472.05V89.2414H468.38V112.982ZM428.041 112.982H431.678V95.4906H428.041V112.982ZM429.826 88.9438C428.636 88.9438 427.644 89.9357 427.644 91.1261C427.644 92.3164 428.636 93.3083 429.826 93.3083C431.05 93.3083 432.009 92.3164 432.009 91.1261C432.042 89.9027 431.05 88.9438 429.826 88.9438ZM461.535 106.402C461.535 109.179 459.948 110.899 457.402 110.899C455.352 110.899 454.228 109.775 454.228 108.088C454.228 106.171 455.551 104.98 458.46 104.98H461.535V106.402ZM457.997 94.9616C455.121 94.9616 453.104 95.9535 451.583 97.2761V100.02C453.071 98.3672 454.922 97.5406 457.039 97.5406C459.816 97.5406 461.568 99.0616 461.568 102.203V102.897H458.262C453.071 102.897 450.558 105.046 450.558 108.154C450.558 111.13 452.872 113.412 456.179 113.412C458.857 113.412 460.676 112.056 461.568 110.105V112.949H465.206V102.07C465.173 97.5737 462.56 94.9616 457.997 94.9616ZM393.29 102.037C393.72 99.26 395.307 97.3422 397.952 97.3422C400.399 97.3422 402.052 98.9293 402.118 102.037H393.29ZM398.051 94.9616C392.728 94.9616 389.289 98.764 389.289 104.087C389.289 109.741 393.191 113.478 398.745 113.478C401.523 113.478 403.804 112.519 405.226 111.13V108.882C403.904 110.171 401.82 110.899 399.737 110.899C395.968 110.899 393.356 108.617 393.158 104.154H405.788V102.996C405.755 97.9374 402.746 94.9616 398.051 94.9616ZM443.846 110.899C439.944 110.899 437.828 107.989 437.828 104.187C437.828 100.285 440.109 97.6067 443.747 97.6067C445.697 97.6067 447.318 98.3342 448.739 100.054V97.3092C447.45 95.8874 445.499 94.9946 442.986 94.9946C437.663 94.9946 433.926 99.0285 433.926 104.286C433.926 109.51 437.696 113.544 442.953 113.544C445.168 113.544 447.185 112.817 448.971 111.031V108.617C447.747 110.039 445.797 110.899 443.846 110.899ZM416.104 110.833C413.195 110.833 411.277 108.254 411.277 104.319C411.277 100.318 413.228 97.6067 416.237 97.6067C419.312 97.6067 421.163 100.285 421.163 104.154C421.163 108.088 419.113 110.833 416.104 110.833ZM421.097 98.764C419.973 96.3503 417.989 94.9616 415.377 94.9616C410.88 94.9616 407.342 98.9955 407.342 104.385C407.342 109.675 410.649 113.478 415.013 113.478C418.022 113.478 420.171 111.692 421.097 109.345V112.949H424.734V89.2083H421.097V98.764V98.764ZM326.863 94.9616C323.986 94.9616 322.068 96.5487 321.109 98.9624V95.4906H317.472V112.982H321.109V103.36C321.109 100.087 322.73 98.0035 325.606 98.0035C328.218 98.0035 329.31 99.5576 329.31 102.831V112.982H332.947V102.07C332.947 97.5737 330.533 94.9616 326.863 94.9616ZM306.429 111.064C303.453 111.064 301.634 108.386 301.634 104.253C301.634 100.087 303.453 97.4084 306.429 97.4084C309.471 97.4084 311.289 100.087 311.289 104.253C311.289 108.386 309.504 111.064 306.429 111.064ZM306.429 94.9616C301.403 94.9616 297.7 98.9955 297.7 104.253C297.7 109.51 301.37 113.511 306.429 113.511C311.554 113.511 315.224 109.51 315.224 104.253C315.224 98.9955 311.554 94.9616 306.429 94.9616ZM339.13 102.037C339.593 99.26 341.147 97.3422 343.825 97.3422C346.239 97.3422 347.892 98.9293 347.958 102.037H339.13ZM343.891 94.9616C338.568 94.9616 335.162 98.764 335.162 104.087C335.162 109.741 339.031 113.478 344.585 113.478C347.363 113.478 349.644 112.519 351.099 111.13V108.882C349.744 110.171 347.694 110.899 345.61 110.899C341.808 110.899 339.196 108.617 339.031 104.154H351.628V102.996C351.595 97.9374 348.586 94.9616 343.891 94.9616ZM381.684 94.9616C379.27 94.9616 377.419 96.3503 376.394 98.6648C375.633 96.3172 373.749 94.9616 371.434 94.9616C369.086 94.9616 367.433 96.3503 366.573 98.5987V95.4575H362.903V112.949H366.573V102.5C366.573 99.8221 367.929 97.9374 370.111 97.9374C372.161 97.9374 373.22 99.3261 373.22 102.004V112.949H376.857V102.203C376.857 99.6898 378.212 97.9374 380.428 97.9374C382.478 97.9374 383.437 99.3261 383.437 102.104V112.949H387.074V101.442C387.107 97.4084 384.991 94.9616 381.684 94.9616Z" fill="black"/>
<path d="M59.7842 306.954H47.0108L48.5636 301.801H41.7386L38.6455 306.954H26.2603L52.859 266.87H69.2015L59.7842 306.954ZM51.7069 291.496L55.6016 278.789L47.9751 291.496H51.7069Z" fill="black"/>
<path d="M72.9336 306.954H60.5483L78.8319 266.883H91.2171L72.9336 306.954Z" fill="black"/>
<path d="M89.1009 302.602L87.0346 306.954H74.6494L92.9329 266.883H105.318L99.2445 280.165C102.976 274.549 105.669 271.46 109.626 271.46C114.848 271.46 115.938 277.351 109.801 290.808C103.377 304.89 99.2445 307.517 94.8364 307.517C92.0313 307.517 90.4158 305.803 89.1009 302.602ZM97.8169 283.304L91.5053 297.161C91.9687 297.274 92.3694 297.336 92.5322 297.336C94.1351 297.336 94.8239 296.586 97.579 290.583C101.135 282.741 100.672 281.653 99.4699 281.653C98.8438 281.641 98.3303 282.216 97.8169 283.304Z" fill="black"/>
<path d="M137.803 291.146C133.908 302.076 129.262 307.517 120.722 307.517C114.36 307.517 110.177 304.365 110.177 297.562C110.177 294.585 111.091 290.345 113.846 284.855C118.142 275.988 122.85 271.46 131.441 271.46C138.028 271.46 141.647 274.662 141.647 279.652C141.647 282.916 140.157 286.756 138.73 289.207H124.453C121.936 294.823 121.536 296.586 121.536 297.799C121.536 298.487 121.936 298.662 122.287 298.662C123.151 298.662 124.353 297.511 126.645 291.158H137.803V291.146ZM126.344 285.08H129.15C130.464 281.928 130.865 280.79 130.865 280.152C130.865 279.69 130.577 279.464 130.239 279.464C129.5 279.464 128.749 280.04 126.344 285.08Z" fill="black"/>
<path d="M150.952 298.587C147.17 304.252 144.477 307.517 140.407 307.517C135.185 307.517 134.108 301.626 140.232 288.169C146.306 274.824 150.2 271.448 155.423 271.448C157.94 271.448 159.668 272.361 161.784 274.712L165.341 266.87H177.726L159.442 306.941H148.835L150.952 298.587ZM151.929 289.72C149.462 295.21 148.773 297.274 150.15 297.274C151.24 297.274 151.929 295.848 154.684 290.057C157.727 283.592 158.528 281.703 157.151 281.703C156.349 281.703 155.26 282.166 151.929 289.72Z" fill="black"/>
<path d="M177.951 307.517C170.963 307.517 166.768 304.315 166.768 297.437C166.768 294.46 167.632 290.283 170.375 284.843C174.62 276.088 179.541 271.448 187.681 271.448C194.619 271.448 198.739 274.65 198.739 281.528C198.739 284.505 197.825 288.632 195.133 294.123C190.85 302.89 186.041 307.517 177.951 307.517ZM184.263 290.12C186.78 284.743 187.243 282.216 187.243 281.191C187.243 280.728 187.018 280.503 186.667 280.503C185.978 280.503 184.776 281.191 181.282 288.97C178.815 294.46 178.302 296.874 178.302 297.962C178.302 298.475 178.59 298.65 178.878 298.65C179.504 298.65 180.644 297.85 184.263 290.12Z" fill="black"/>
<path d="M72.182 263.944V253.913H70.8546V263.944H57.8057V265.269H70.8546V276.4H72.182V265.269H85.231V263.944H72.182Z" fill="black"/>
<path d="M24.9955 297.499H23.6681V308.729H10.6191V310.055H23.6681V319.998H24.9955V310.055H38.0444V308.729H24.9955V297.499Z" fill="black"/>
<path d="M279.485 287.784C281.883 288.231 283.854 289.43 285.399 291.381C286.943 293.332 287.716 295.567 287.716 298.087C287.716 300.364 287.146 302.376 286.008 304.123C284.911 305.83 283.306 307.172 281.192 308.147C279.078 309.123 276.579 309.61 273.693 309.61H255.342V267.055H272.9C275.786 267.055 278.265 267.522 280.338 268.457C282.452 269.392 284.037 270.693 285.094 272.359C286.191 274.025 286.74 275.915 286.74 278.029C286.74 280.508 286.069 282.581 284.728 284.248C283.427 285.914 281.68 287.093 279.485 287.784ZM263.877 284.614H271.681C273.713 284.614 275.278 284.166 276.375 283.272C277.473 282.337 278.022 281.016 278.022 279.309C278.022 277.602 277.473 276.281 276.375 275.346C275.278 274.412 273.713 273.944 271.681 273.944H263.877V284.614ZM272.474 302.66C274.546 302.66 276.152 302.172 277.29 301.197C278.469 300.221 279.058 298.839 279.058 297.051C279.058 295.222 278.448 293.799 277.229 292.783C276.01 291.726 274.364 291.198 272.291 291.198H263.877V302.66H272.474ZM303.054 264.494V309.61H294.518V264.494H303.054ZM343.373 275.834V309.61H334.777V305.343C333.679 306.806 332.236 307.964 330.448 308.818C328.7 309.631 326.79 310.037 324.717 310.037C322.075 310.037 319.738 309.488 317.706 308.391C315.673 307.253 314.068 305.607 312.889 303.453C311.751 301.258 311.182 298.657 311.182 295.649V275.834H319.717V294.429C319.717 297.112 320.388 299.185 321.729 300.648C323.071 302.071 324.9 302.782 327.217 302.782C329.574 302.782 331.423 302.071 332.765 300.648C334.106 299.185 334.777 297.112 334.777 294.429V275.834H343.373ZM364.72 310.159C361.956 310.159 359.477 309.671 357.282 308.696C355.087 307.68 353.339 306.318 352.039 304.611C350.779 302.904 350.088 301.014 349.966 298.941H358.562C358.725 300.242 359.355 301.319 360.452 302.172C361.59 303.026 362.992 303.453 364.659 303.453C366.285 303.453 367.545 303.127 368.439 302.477C369.374 301.827 369.841 300.994 369.841 299.977C369.841 298.88 369.272 298.067 368.134 297.539C367.037 296.97 365.269 296.36 362.83 295.71C360.31 295.1 358.237 294.47 356.611 293.82C355.026 293.169 353.644 292.174 352.465 290.832C351.327 289.491 350.758 287.682 350.758 285.406C350.758 283.536 351.287 281.829 352.343 280.285C353.441 278.74 354.985 277.521 356.977 276.627C359.009 275.733 361.387 275.285 364.11 275.285C368.134 275.285 371.345 276.302 373.743 278.334C376.141 280.325 377.462 283.028 377.706 286.443H369.536C369.414 285.101 368.845 284.045 367.829 283.272C366.854 282.459 365.533 282.053 363.866 282.053C362.322 282.053 361.123 282.337 360.269 282.906C359.456 283.475 359.05 284.268 359.05 285.284C359.05 286.422 359.619 287.296 360.757 287.906C361.895 288.475 363.663 289.064 366.061 289.674C368.5 290.284 370.512 290.914 372.097 291.564C373.682 292.214 375.044 293.23 376.182 294.612C377.361 295.954 377.97 297.742 378.011 299.977C378.011 301.928 377.462 303.676 376.365 305.221C375.308 306.765 373.763 307.985 371.731 308.879C369.74 309.732 367.403 310.159 364.72 310.159ZM404.039 275.346C406.6 275.346 408.876 275.915 410.868 277.054C412.859 278.151 414.404 279.797 415.501 281.992C416.64 284.146 417.209 286.747 417.209 289.796V309.61H408.673V290.954C408.673 288.272 408.002 286.219 406.661 284.796C405.32 283.333 403.491 282.602 401.174 282.602C398.817 282.602 396.947 283.333 395.565 284.796C394.224 286.219 393.553 288.272 393.553 290.954V309.61H385.017V264.494H393.553V280.041C394.65 278.578 396.114 277.44 397.943 276.627C399.772 275.773 401.804 275.346 404.039 275.346ZM444.347 275.346C446.908 275.346 449.184 275.915 451.176 277.054C453.167 278.151 454.712 279.797 455.809 281.992C456.947 284.146 457.516 286.747 457.516 289.796V309.61H448.981V290.954C448.981 288.272 448.31 286.219 446.969 284.796C445.628 283.333 443.799 282.602 441.482 282.602C439.124 282.602 437.255 283.333 435.873 284.796C434.532 286.219 433.861 288.272 433.861 290.954V309.61H425.325V264.494H433.861V280.041C434.958 278.578 436.422 277.44 438.251 276.627C440.08 275.773 442.112 275.346 444.347 275.346Z" fill="black"/>
<path d="M20.3204 409.457L19.9253 409.619C17.5641 410.406 14.0266 411.583 10.9519 413.08C10.7901 413.157 10.6388 413.392 10.6388 413.392C10.5556 413.548 10.4712 413.709 10.4048 413.867C10.0755 414.652 9.53993 415.836 9.37817 416.383L9.22796 416.784V416.935L9.29498 417.019H9.37817L9.75774 416.863C10.6388 416.461 11.733 415.836 12.8428 415.288H12.9162C14.9477 414.341 16.968 413.371 18.9766 412.376C18.9766 412.376 19.21 412.22 19.3724 411.986L20.4718 409.776V409.62C20.4718 409.457 20.388 409.385 20.321 409.457H20.3204ZM11.5042 405.998C11.666 405.68 12.3639 404.341 12.5309 404.028V403.95C17.3295 394.9 23.1611 386.397 29.8345 378.602L30.0021 378.365C30.087 378.284 30.087 378.207 30.0021 378.13C29.9189 378.05 29.8345 377.969 29.7681 378.05H29.4555C25.0359 378.683 20.555 379.469 16.1521 380.569C15.6726 380.728 15.4386 380.966 15.3548 381.038C12.0508 384.978 8.97664 389.148 6.05736 393.403C6.15269 393.638 6.15269 394.112 6.15269 394.112C6.15269 394.112 6.85059 399.62 7.883 403.715C5.36004 411.193 3 421.109 3 421.109V421.271C3 421.349 3.08377 421.349 3.15021 421.349H4.64654C4.72511 421.349 4.8083 421.271 4.89207 421.193L4.95909 420.875C6.45484 416.784 8.19555 412.689 10.0761 408.748C10.5556 407.878 11.5042 405.998 11.5042 405.998" fill="black"/>
<path d="M32.1289 380.257V379.942C32.1289 379.861 32.044 379.78 31.9775 379.707C31.8944 379.707 31.81 379.707 31.7314 379.78L31.576 380.017C23.6911 389.071 17.1674 399.146 11.9839 409.933L11.8164 410.166V410.406C11.8828 410.479 11.8828 410.479 11.9839 410.479H12.0504L12.2855 410.406C16.6878 408.593 21.1855 407.02 25.6664 405.68C25.901 405.602 26.1459 405.446 26.2973 405.212C28.2725 401.434 32.8257 394.032 32.8257 394.032C32.9932 393.794 32.921 393.558 32.921 393.558C32.921 393.558 32.1289 384.74 32.1289 380.257" fill="black"/>
<path d="M42.2064 367.503C41.1121 366.554 39.4373 366.083 36.9276 366.008C34.7345 365.927 32.044 366.479 28.9751 367.422C28.506 367.585 28.1883 367.818 27.7931 368.128C24.6508 371.044 21.6651 374.194 18.8249 377.344L18.58 377.578C18.5072 377.659 18.5072 377.734 18.58 377.815C18.6574 377.894 18.7412 377.969 18.8249 377.894L19.1381 377.814C23.7917 376.791 28.4228 376.082 32.9933 375.606C33.3058 375.606 33.6236 375.687 33.8524 375.843C34.1042 376.082 34.1701 376.32 34.1701 376.63C34.1042 381.2 34.2545 385.764 34.6398 390.172V390.487C34.6398 390.564 34.7345 390.645 34.8004 390.645H34.8853C34.9685 390.645 35.0355 390.645 35.0355 390.564L35.1973 390.329C37.7913 386.632 40.5494 383.086 43.5398 379.706C43.8517 379.311 43.9361 379.073 44.0193 378.756C44.9518 373.008 43.5398 368.605 42.2064 367.503V367.503ZM75.1909 390.499C73.6945 389.007 72.1445 388.529 70.1299 388.529C67.685 388.529 65.3694 389.604 64.2197 391.358V388.785H61.1346V409.87H64.2197V396.929C64.2197 393.714 66.1782 391.273 69.2639 391.273C70.8931 391.273 71.7591 391.656 72.9134 392.815L75.1909 390.499ZM91.7527 399.33C91.7527 396.071 91.3281 393.113 89.1749 390.93C87.7236 389.472 85.7085 388.53 83.1306 388.53C80.5644 388.53 78.5498 389.472 77.0933 390.929C74.9557 393.113 74.5322 396.071 74.5322 399.329C74.5322 402.588 74.9557 405.54 77.0928 407.728C78.5498 409.184 80.5649 410.128 83.1301 410.128C85.7085 410.128 87.7236 409.184 89.1749 407.728C91.3281 405.54 91.7527 402.588 91.7527 399.33ZM88.6665 399.33C88.6665 401.685 88.5324 404.296 86.9974 405.843C86.0106 406.829 84.6374 407.387 83.1306 407.387C81.6361 407.387 80.3021 406.829 79.3309 405.843C77.7791 404.296 77.6185 401.685 77.6185 399.33C77.6185 396.97 77.7791 394.358 79.3309 392.815C80.3015 391.827 81.6361 391.272 83.1306 391.272C84.6374 391.272 86.0106 391.827 86.9974 392.815C88.5324 394.358 88.6671 396.97 88.6671 399.33H88.6665ZM113.024 399.33C113.024 396.026 112.6 392.514 110.463 390.377C109.352 389.263 107.455 388.53 105.318 388.53C103.002 388.53 101.066 389.043 99.3522 391.228V379.364H96.2666V409.87H99.3522V407.343C101.066 409.569 103.002 410.128 105.318 410.128C107.455 410.128 109.352 409.396 110.463 408.281C112.6 406.143 113.024 402.627 113.024 399.33V399.33ZM109.938 399.33C109.938 403.442 109.252 407.387 104.671 407.387C100.095 407.387 99.3522 403.442 99.3522 399.33C99.3522 395.215 100.095 391.273 104.671 391.273C109.252 391.273 109.938 395.215 109.938 399.33V399.33ZM120.635 409.87V388.785H117.55V409.87H120.635ZM120.843 382.788V379.319H117.388V382.788H120.843ZM142.906 409.87V396.372C142.906 393.928 142.219 391.956 140.712 390.499C139.424 389.213 137.588 388.529 135.311 388.529C132.968 388.529 130.908 389.386 129.401 391.1V388.785H126.316V409.87H129.401V396.885C129.401 393.2 131.456 391.273 134.625 391.273C137.806 391.273 139.821 393.155 139.821 396.885V409.87H142.906ZM164.904 409.87V396.327C164.904 391.57 162.08 388.53 157.319 388.53C154.964 388.53 152.944 389.348 151.41 391.099V379.364H148.323V409.87H151.41V396.841C151.41 393.2 153.507 391.272 156.678 391.272C159.842 391.272 161.817 393.155 161.817 396.841V409.87H164.904ZM186.448 399.33C186.448 396.071 186.013 393.113 183.871 390.93C182.402 389.472 180.399 388.53 177.821 388.53C175.261 388.53 173.241 389.472 171.778 390.929C169.652 393.113 169.211 396.071 169.211 399.329C169.211 402.588 169.652 405.54 171.778 407.728C173.241 409.184 175.261 410.128 177.821 410.128C180.399 410.128 182.402 409.184 183.871 407.728C186.013 405.54 186.448 402.588 186.448 399.33ZM183.363 399.33C183.363 401.685 183.229 404.296 181.688 405.843C180.689 406.829 179.316 407.387 177.821 407.387C176.325 407.387 174.998 406.829 174.009 405.843C172.459 404.296 172.297 401.685 172.297 399.33C172.297 396.97 172.459 394.358 174.009 392.815C174.998 391.827 176.325 391.272 177.821 391.272C179.316 391.272 180.689 391.827 181.688 392.815C183.229 394.358 183.363 396.97 183.363 399.33ZM207.072 399.33C207.072 396.071 206.648 393.113 204.496 390.93C203.054 389.472 201.041 388.53 198.463 388.53C195.895 388.53 193.87 389.472 192.431 390.929C190.276 393.113 189.852 396.071 189.852 399.329C189.852 402.588 190.276 405.54 192.431 407.728C193.87 409.184 195.895 410.128 198.463 410.128C201.041 410.128 203.054 409.184 204.495 407.728C206.648 405.54 207.072 402.588 207.072 399.33H207.072ZM203.987 399.33C203.987 401.685 203.864 404.296 202.318 405.843C201.342 406.829 199.968 407.387 198.463 407.387C196.956 407.387 195.638 406.829 194.652 405.843C193.117 404.296 192.937 401.685 192.937 399.33C192.937 396.97 193.117 394.358 194.652 392.815C195.638 391.827 196.956 391.272 198.463 391.272C199.968 391.272 201.342 391.827 202.318 392.815C203.864 394.358 203.987 396.97 203.987 399.33ZM227.25 409.87V379.364H224.164V391.228C222.445 389.043 220.514 388.53 218.199 388.53C216.057 388.53 214.165 389.263 213.054 390.377C210.911 392.514 210.487 396.027 210.487 399.33C210.487 402.627 210.911 406.143 213.054 408.281C214.165 409.396 216.057 410.128 218.199 410.128C220.514 410.128 222.49 409.569 224.204 407.343V409.87H227.25ZM224.164 399.33C224.164 403.442 223.479 407.387 218.88 407.387C214.287 407.387 213.573 403.442 213.573 399.33C213.573 395.215 214.288 391.273 218.88 391.273C223.479 391.273 224.164 395.215 224.164 399.33Z" fill="black"/>
<path d="M343.08 13.2531C343.08 15.1539 341.549 16.6851 339.648 16.6851C337.747 16.6851 336.216 15.1539 336.216 13.2531C336.216 11.3522 337.694 9.821 339.648 9.821C341.601 9.8738 343.08 11.405 343.08 13.2531ZM328.929 20.17C328.929 20.4868 328.929 21.0148 328.929 21.0148C328.929 21.0148 327.292 18.9028 323.807 18.9028C318.052 18.9028 313.564 23.2853 313.564 29.3574C313.564 35.3767 317.999 39.812 323.807 39.812C327.345 39.812 328.929 37.6471 328.929 37.6471V38.5448C328.929 38.9672 329.246 39.284 329.668 39.284H333.945V19.4308C333.945 19.4308 330.038 19.4308 329.668 19.4308C329.246 19.4308 328.929 19.8004 328.929 20.17ZM328.929 32.8951C328.137 34.0567 326.553 35.0599 324.652 35.0599C321.273 35.0599 318.686 32.9479 318.686 29.3574C318.686 25.7669 321.273 23.6549 324.652 23.6549C326.5 23.6549 328.19 24.7109 328.929 25.8197V32.8951ZM337.113 19.4308H342.182V39.284H337.113V19.4308ZM412.83 18.9028C409.345 18.9028 407.708 21.0148 407.708 21.0148V9.8738H402.639V39.284C402.639 39.284 406.547 39.284 406.916 39.284C407.339 39.284 407.655 38.9144 407.655 38.5448V37.6471C407.655 37.6471 409.292 39.812 412.777 39.812C418.532 39.812 423.021 35.3767 423.021 29.3574C423.021 23.3381 418.532 18.9028 412.83 18.9028ZM411.985 35.0071C410.031 35.0071 408.5 34.0039 407.708 32.8423V25.7669C408.5 24.7109 410.19 23.6021 411.985 23.6021C415.364 23.6021 417.952 25.7141 417.952 29.3046C417.952 32.8951 415.364 35.0071 411.985 35.0071ZM399.999 27.5093V39.3368H394.93V28.0902C394.93 24.8165 393.874 23.4965 391.023 23.4965C389.492 23.4965 387.908 24.2885 386.905 25.4501V39.284H381.836V19.4308H385.849C386.271 19.4308 386.588 19.8004 386.588 20.17V21.0148C388.066 19.4836 390.02 18.9028 391.974 18.9028C394.191 18.9028 396.039 19.5364 397.518 20.8036C399.313 22.282 399.999 24.1829 399.999 27.5093ZM369.533 18.9028C366.048 18.9028 364.411 21.0148 364.411 21.0148V9.8738H359.342V39.284C359.342 39.284 363.25 39.284 363.619 39.284C364.042 39.284 364.359 38.9144 364.359 38.5448V37.6471C364.359 37.6471 365.995 39.812 369.48 39.812C375.236 39.812 379.724 35.3767 379.724 29.3574C379.776 23.3381 375.288 18.9028 369.533 18.9028ZM368.688 35.0071C366.735 35.0071 365.203 34.0039 364.411 32.8423V25.7669C365.203 24.7109 366.893 23.6021 368.688 23.6021C372.068 23.6021 374.655 25.7141 374.655 29.3046C374.655 32.8951 372.068 35.0071 368.688 35.0071ZM354.96 18.9028C356.491 18.9028 357.283 19.1668 357.283 19.1668V23.8661C357.283 23.8661 353.059 22.4404 350.419 25.4501V39.3368H345.35V19.4308C345.35 19.4308 349.257 19.4308 349.627 19.4308C350.049 19.4308 350.366 19.8004 350.366 20.17V21.0148C351.317 19.906 353.376 18.9028 354.96 18.9028ZM302.317 37.4887C302.053 36.8551 301.789 36.1687 301.525 35.5879C301.103 34.6375 300.681 33.7399 300.311 32.8951L300.258 32.8423C296.615 24.9221 292.708 16.8963 288.589 8.97618L288.431 8.65937C288.008 7.86736 287.586 7.02254 287.163 6.17772C286.635 5.2273 286.107 4.22408 285.263 3.27366C283.573 1.16162 281.144 0 278.557 0C275.917 0 273.541 1.16162 271.798 3.16806C271.006 4.11848 270.426 5.1217 269.898 6.07212C269.475 6.91694 269.053 7.76175 268.63 8.55377L268.472 8.87058C264.406 16.7907 260.446 24.8165 256.803 32.7367L256.75 32.8423C256.38 33.6871 255.958 34.5847 255.536 35.5351C255.272 36.1159 255.008 36.7495 254.744 37.4359C254.057 39.3896 253.846 41.2376 254.11 43.1385C254.691 47.0985 257.331 50.425 260.974 51.9034C262.347 52.4842 263.773 52.7482 265.251 52.7482C265.673 52.7482 266.201 52.6954 266.624 52.6426C268.366 52.4314 270.162 51.8506 271.904 50.8474C274.069 49.633 276.128 47.8906 278.451 45.3561C280.775 47.8906 282.887 49.633 284.999 50.8474C286.741 51.8506 288.536 52.4314 290.279 52.6426C290.701 52.6954 291.229 52.7482 291.652 52.7482C293.13 52.7482 294.608 52.4842 295.928 51.9034C299.625 50.425 302.212 47.0457 302.793 43.1385C303.215 41.2904 303.004 39.4424 302.317 37.4887ZM278.504 40.2344C275.653 36.6439 273.805 33.2647 273.171 30.4134C272.907 29.199 272.854 28.143 273.013 27.1925C273.118 26.3477 273.435 25.6085 273.858 24.9749C274.861 23.5493 276.55 22.6517 278.504 22.6517C280.458 22.6517 282.2 23.4965 283.151 24.9749C283.573 25.6085 283.89 26.3477 283.995 27.1925C284.154 28.143 284.101 29.2518 283.837 30.4134C283.203 33.2119 281.355 36.5911 278.504 40.2344ZM299.572 42.716C299.202 45.4617 297.354 47.8377 294.767 48.8938C293.5 49.4218 292.127 49.5802 290.754 49.4218C289.434 49.2634 288.114 48.841 286.741 48.049C284.84 46.9929 282.939 45.3561 280.722 42.9273C284.207 38.6504 286.319 34.7431 287.111 31.2582C287.48 29.6214 287.533 28.143 287.375 26.7701C287.163 25.4501 286.688 24.2357 285.949 23.1797C284.312 20.8036 281.567 19.4308 278.504 19.4308C275.442 19.4308 272.696 20.8564 271.059 23.1797C270.32 24.2357 269.845 25.4501 269.634 26.7701C269.422 28.143 269.475 29.6742 269.898 31.2582C270.69 34.7431 272.854 38.7032 276.286 42.9801C274.122 45.4089 272.168 47.0457 270.267 48.1018C268.894 48.8938 267.574 49.3162 266.254 49.4746C264.829 49.633 263.456 49.4218 262.241 48.9466C259.654 47.8905 257.806 45.5145 257.436 42.7688C257.278 41.4488 257.384 40.1288 257.912 38.6504C258.07 38.1224 258.334 37.5943 258.598 36.9607C258.968 36.1159 259.39 35.2183 259.813 34.3207L259.865 34.2151C263.509 26.3477 267.416 18.322 271.482 10.5074L271.64 10.1906C272.062 9.39859 272.485 8.55377 272.907 7.76175C273.33 6.91694 273.805 6.12492 274.386 5.43851C275.494 4.17128 276.973 3.48487 278.61 3.48487C280.247 3.48487 281.725 4.17128 282.834 5.43851C283.415 6.12492 283.89 6.91694 284.312 7.76175C284.735 8.55377 285.157 9.39859 285.579 10.1906L285.738 10.5074C289.751 18.3748 293.658 26.4005 297.301 34.2679V34.3207C297.724 35.1655 298.093 36.1159 298.516 36.9607C298.78 37.5943 299.044 38.1224 299.202 38.6504C299.624 40.0232 299.783 41.3432 299.572 42.716Z" fill="black"/>
<path d="M81.9548 101.535C82.4337 101.611 82.8684 101.806 83.259 102.121C83.6622 102.436 83.9772 102.827 84.204 103.293C84.4434 103.759 84.5631 104.257 84.5631 104.786C84.5631 105.454 84.393 106.059 84.0528 106.601C83.7126 107.13 83.2149 107.552 82.5597 107.867C81.917 108.169 81.1547 108.32 80.2727 108.32H75.3586V95.147H80.0837C80.9783 95.147 81.7406 95.2982 82.3707 95.6006C83.0007 95.8904 83.4732 96.2873 83.7882 96.7913C84.1032 97.2953 84.2607 97.8623 84.2607 98.4923C84.2607 99.2736 84.0465 99.9225 83.6181 100.439C83.2023 100.943 82.6479 101.308 81.9548 101.535ZM77.0786 100.836H79.9703C80.7767 100.836 81.4004 100.647 81.8414 100.269C82.2824 99.891 82.503 99.3681 82.503 98.7002C82.503 98.0324 82.2824 97.5095 81.8414 97.1315C81.4004 96.7535 80.7641 96.5645 79.9325 96.5645H77.0786V100.836ZM80.1215 106.903C80.9783 106.903 81.6461 106.701 82.1249 106.298C82.6038 105.895 82.8432 105.334 82.8432 104.616C82.8432 103.885 82.5912 103.312 82.0871 102.896C81.5831 102.468 80.909 102.254 80.0648 102.254H77.0786V106.903H80.1215ZM96.1354 97.9631V108.32H94.4155V106.79C94.0878 107.319 93.6279 107.735 93.0357 108.037C92.4561 108.327 91.8135 108.472 91.1079 108.472C90.3015 108.472 89.577 108.308 88.9344 107.98C88.2918 107.64 87.7814 107.136 87.4034 106.468C87.038 105.8 86.8553 104.988 86.8553 104.03V97.9631H88.5564V103.803C88.5564 104.824 88.8147 105.611 89.3313 106.166C89.8479 106.708 90.5535 106.979 91.4481 106.979C92.3679 106.979 93.0924 106.695 93.6216 106.128C94.1508 105.561 94.4155 104.736 94.4155 103.652V97.9631H96.1354ZM111.495 97.7741C112.301 97.7741 113.019 97.9442 113.649 98.2844C114.279 98.612 114.777 99.1098 115.142 99.7776C115.508 100.445 115.691 101.258 115.691 102.216V108.32H113.99V102.461C113.99 101.428 113.731 100.641 113.215 100.099C112.711 99.5445 112.024 99.2673 111.154 99.2673C110.26 99.2673 109.548 99.5571 109.019 100.137C108.49 100.704 108.225 101.529 108.225 102.613V108.32H106.524V102.461C106.524 101.428 106.266 100.641 105.749 100.099C105.245 99.5445 104.558 99.2673 103.689 99.2673C102.794 99.2673 102.082 99.5571 101.553 100.137C101.024 100.704 100.759 101.529 100.759 102.613V108.32H99.0394V97.9631H100.759V99.4563C101.1 98.9145 101.553 98.4986 102.12 98.2088C102.7 97.919 103.336 97.7741 104.029 97.7741C104.898 97.7741 105.667 97.9694 106.335 98.36C107.003 98.7506 107.5 99.324 107.828 100.08C108.118 99.3492 108.597 98.7821 109.264 98.3789C109.932 97.9757 110.676 97.7741 111.495 97.7741ZM120.232 99.891C120.585 99.2736 121.101 98.7695 121.782 98.3789C122.462 97.9883 123.237 97.793 124.106 97.793C125.039 97.793 125.877 98.0135 126.62 98.4545C127.363 98.8955 127.949 99.5193 128.378 100.326C128.806 101.119 129.02 102.046 129.02 103.104C129.02 104.15 128.806 105.082 128.378 105.901C127.949 106.72 127.357 107.357 126.601 107.81C125.858 108.264 125.026 108.491 124.106 108.491C123.212 108.491 122.424 108.295 121.744 107.905C121.076 107.514 120.572 107.016 120.232 106.412V108.32H118.512V94.3343H120.232V99.891ZM127.263 103.104C127.263 102.323 127.105 101.642 126.79 101.063C126.475 100.483 126.047 100.042 125.505 99.7398C124.976 99.4374 124.39 99.2862 123.747 99.2862C123.117 99.2862 122.531 99.4437 121.989 99.7587C121.46 100.061 121.032 100.508 120.704 101.101C120.389 101.68 120.232 102.354 120.232 103.123C120.232 103.904 120.389 104.591 120.704 105.183C121.032 105.763 121.46 106.21 121.989 106.525C122.531 106.827 123.117 106.979 123.747 106.979C124.39 106.979 124.976 106.827 125.505 106.525C126.047 106.21 126.475 105.763 126.79 105.183C127.105 104.591 127.263 103.898 127.263 103.104ZM133.004 94.3343V108.32H131.284V94.3343H133.004ZM145.386 102.745C145.386 103.073 145.367 103.419 145.329 103.784H137.051C137.114 104.805 137.46 105.605 138.09 106.185C138.733 106.752 139.508 107.035 140.415 107.035C141.158 107.035 141.776 106.865 142.267 106.525C142.771 106.172 143.124 105.706 143.326 105.126H145.178C144.901 106.122 144.346 106.934 143.515 107.564C142.683 108.182 141.65 108.491 140.415 108.491C139.432 108.491 138.55 108.27 137.769 107.829C137 107.388 136.395 106.764 135.954 105.958C135.513 105.139 135.293 104.194 135.293 103.123C135.293 102.052 135.507 101.113 135.936 100.307C136.364 99.5004 136.962 98.8829 137.731 98.4545C138.512 98.0135 139.407 97.793 140.415 97.793C141.398 97.793 142.267 98.0072 143.023 98.4356C143.779 98.864 144.359 99.4563 144.762 100.212C145.178 100.956 145.386 101.8 145.386 102.745ZM143.609 102.386C143.609 101.731 143.464 101.17 143.174 100.704C142.885 100.225 142.488 99.8658 141.984 99.6264C141.492 99.3744 140.944 99.2484 140.339 99.2484C139.47 99.2484 138.726 99.5256 138.109 100.08C137.504 100.634 137.158 101.403 137.07 102.386H143.609ZM149.376 99.891C149.729 99.2736 150.245 98.7695 150.926 98.3789C151.606 97.9883 152.381 97.793 153.25 97.793C154.183 97.793 155.021 98.0135 155.764 98.4545C156.508 98.8955 157.093 99.5193 157.522 100.326C157.95 101.119 158.165 102.046 158.165 103.104C158.165 104.15 157.95 105.082 157.522 105.901C157.093 106.72 156.501 107.357 155.745 107.81C155.002 108.264 154.17 108.491 153.25 108.491C152.356 108.491 151.568 108.295 150.888 107.905C150.22 107.514 149.716 107.016 149.376 106.412V108.32H147.656V94.3343H149.376V99.891ZM156.407 103.104C156.407 102.323 156.249 101.642 155.934 101.063C155.619 100.483 155.191 100.042 154.649 99.7398C154.12 99.4374 153.534 99.2862 152.891 99.2862C152.261 99.2862 151.675 99.4437 151.134 99.7587C150.604 100.061 150.176 100.508 149.848 101.101C149.533 101.68 149.376 102.354 149.376 103.123C149.376 103.904 149.533 104.591 149.848 105.183C150.176 105.763 150.604 106.21 151.134 106.525C151.675 106.827 152.261 106.979 152.891 106.979C153.534 106.979 154.12 106.827 154.649 106.525C155.191 106.21 155.619 105.763 155.934 105.183C156.249 104.591 156.407 103.898 156.407 103.104ZM169.879 102.745C169.879 103.073 169.86 103.419 169.822 103.784H161.544C161.607 104.805 161.953 105.605 162.583 106.185C163.226 106.752 164.001 107.035 164.908 107.035C165.651 107.035 166.269 106.865 166.76 106.525C167.264 106.172 167.617 105.706 167.818 105.126H169.671C169.393 106.122 168.839 106.934 168.007 107.564C167.176 108.182 166.143 108.491 164.908 108.491C163.925 108.491 163.043 108.27 162.262 107.829C161.493 107.388 160.888 106.764 160.447 105.958C160.006 105.139 159.786 104.194 159.786 103.123C159.786 102.052 160 101.113 160.428 100.307C160.857 99.5004 161.455 98.8829 162.224 98.4545C163.005 98.0135 163.9 97.793 164.908 97.793C165.891 97.793 166.76 98.0072 167.516 98.4356C168.272 98.864 168.852 99.4563 169.255 100.212C169.671 100.956 169.879 101.8 169.879 102.745ZM168.102 102.386C168.102 101.731 167.957 101.17 167.667 100.704C167.377 100.225 166.981 99.8658 166.477 99.6264C165.985 99.3744 165.437 99.2484 164.832 99.2484C163.963 99.2484 163.219 99.5256 162.602 100.08C161.997 100.634 161.651 101.403 161.562 102.386H168.102ZM181.599 102.745C181.599 103.073 181.58 103.419 181.542 103.784H173.264C173.327 104.805 173.673 105.605 174.303 106.185C174.946 106.752 175.721 107.035 176.628 107.035C177.372 107.035 177.989 106.865 178.48 106.525C178.984 106.172 179.337 105.706 179.539 105.126H181.391C181.114 106.122 180.559 106.934 179.728 107.564C178.896 108.182 177.863 108.491 176.628 108.491C175.645 108.491 174.763 108.27 173.982 107.829C173.214 107.388 172.609 106.764 172.168 105.958C171.727 105.139 171.506 104.194 171.506 103.123C171.506 102.052 171.72 101.113 172.149 100.307C172.577 99.5004 173.176 98.8829 173.944 98.4545C174.726 98.0135 175.62 97.793 176.628 97.793C177.611 97.793 178.48 98.0072 179.236 98.4356C179.992 98.864 180.572 99.4563 180.975 100.212C181.391 100.956 181.599 101.8 181.599 102.745ZM179.822 102.386C179.822 101.731 179.677 101.17 179.388 100.704C179.098 100.225 178.701 99.8658 178.197 99.6264C177.705 99.3744 177.157 99.2484 176.553 99.2484C175.683 99.2484 174.94 99.5256 174.322 100.08C173.718 100.634 173.371 101.403 173.283 102.386H179.822ZM192.575 108.491C191.781 108.491 191.069 108.358 190.439 108.094C189.809 107.816 189.311 107.438 188.946 106.96C188.58 106.468 188.379 105.908 188.341 105.278H190.118C190.168 105.794 190.407 106.216 190.836 106.544C191.277 106.871 191.85 107.035 192.556 107.035C193.211 107.035 193.728 106.89 194.106 106.601C194.484 106.311 194.673 105.945 194.673 105.504C194.673 105.051 194.471 104.717 194.068 104.503C193.665 104.276 193.041 104.055 192.197 103.841C191.428 103.64 190.798 103.438 190.307 103.236C189.828 103.022 189.412 102.713 189.059 102.31C188.719 101.894 188.549 101.353 188.549 100.685C188.549 100.156 188.706 99.6705 189.021 99.2295C189.336 98.7884 189.784 98.4419 190.363 98.1899C190.943 97.9253 191.604 97.793 192.348 97.793C193.495 97.793 194.421 98.0828 195.126 98.6624C195.832 99.2421 196.21 100.036 196.26 101.044H194.54C194.503 100.502 194.282 100.067 193.879 99.7398C193.488 99.4122 192.959 99.2484 192.291 99.2484C191.674 99.2484 191.182 99.3807 190.817 99.6453C190.452 99.9099 190.269 100.256 190.269 100.685C190.269 101.025 190.376 101.308 190.59 101.535C190.817 101.749 191.094 101.926 191.422 102.064C191.762 102.191 192.228 102.335 192.82 102.499C193.564 102.701 194.169 102.902 194.635 103.104C195.101 103.293 195.498 103.583 195.826 103.973C196.166 104.364 196.342 104.874 196.355 105.504C196.355 106.071 196.197 106.582 195.882 107.035C195.567 107.489 195.12 107.848 194.54 108.113C193.973 108.365 193.318 108.491 192.575 108.491ZM200.503 99.8721C200.843 99.2799 201.347 98.7884 202.015 98.3978C202.695 97.9946 203.483 97.793 204.377 97.793C205.297 97.793 206.129 98.0135 206.872 98.4545C207.628 98.8955 208.22 99.5193 208.649 100.326C209.077 101.119 209.291 102.046 209.291 103.104C209.291 104.15 209.077 105.082 208.649 105.901C208.22 106.72 207.628 107.357 206.872 107.81C206.129 108.264 205.297 108.491 204.377 108.491C203.495 108.491 202.714 108.295 202.034 107.905C201.366 107.501 200.855 107.004 200.503 106.412V113.235H198.783V97.9631H200.503V99.8721ZM207.534 103.104C207.534 102.323 207.376 101.642 207.061 101.063C206.746 100.483 206.318 100.042 205.776 99.7398C205.247 99.4374 204.661 99.2862 204.018 99.2862C203.388 99.2862 202.802 99.4437 202.26 99.7587C201.731 100.061 201.303 100.508 200.975 101.101C200.66 101.68 200.503 102.354 200.503 103.123C200.503 103.904 200.66 104.591 200.975 105.183C201.303 105.763 201.731 106.21 202.26 106.525C202.802 106.827 203.388 106.979 204.018 106.979C204.661 106.979 205.247 106.827 205.776 106.525C206.318 106.21 206.746 105.763 207.061 105.183C207.376 104.591 207.534 103.898 207.534 103.104ZM210.913 103.104C210.913 102.046 211.127 101.119 211.555 100.326C211.984 99.5193 212.569 98.8955 213.313 98.4545C214.069 98.0135 214.907 97.793 215.827 97.793C216.734 97.793 217.521 97.9883 218.189 98.3789C218.857 98.7695 219.355 99.261 219.682 99.8532V97.9631H221.421V108.32H219.682V106.393C219.342 106.997 218.832 107.501 218.151 107.905C217.484 108.295 216.702 108.491 215.808 108.491C214.888 108.491 214.056 108.264 213.313 107.81C212.569 107.357 211.984 106.72 211.555 105.901C211.127 105.082 210.913 104.15 210.913 103.104ZM219.682 103.123C219.682 102.342 219.525 101.661 219.21 101.082C218.895 100.502 218.466 100.061 217.925 99.7587C217.395 99.4437 216.809 99.2862 216.167 99.2862C215.524 99.2862 214.938 99.4374 214.409 99.7398C213.88 100.042 213.458 100.483 213.143 101.063C212.828 101.642 212.67 102.323 212.67 103.104C212.67 103.898 212.828 104.591 213.143 105.183C213.458 105.763 213.88 106.21 214.409 106.525C214.938 106.827 215.524 106.979 216.167 106.979C216.809 106.979 217.395 106.827 217.925 106.525C218.466 106.21 218.895 105.763 219.21 105.183C219.525 104.591 219.682 103.904 219.682 103.123ZM223.685 103.123C223.685 102.052 223.899 101.119 224.328 100.326C224.756 99.5193 225.348 98.8955 226.104 98.4545C226.873 98.0135 227.749 97.793 228.731 97.793C230.004 97.793 231.05 98.1017 231.869 98.7191C232.7 99.3366 233.249 100.193 233.513 101.29H231.661C231.485 100.66 231.138 100.162 230.621 99.7965C230.117 99.4311 229.487 99.2484 228.731 99.2484C227.749 99.2484 226.955 99.5886 226.35 100.269C225.745 100.937 225.443 101.888 225.443 103.123C225.443 104.37 225.745 105.334 226.35 106.015C226.955 106.695 227.749 107.035 228.731 107.035C229.487 107.035 230.117 106.859 230.621 106.506C231.125 106.153 231.472 105.649 231.661 104.994H233.513C233.236 106.052 232.682 106.903 231.85 107.546C231.018 108.176 229.979 108.491 228.731 108.491C227.749 108.491 226.873 108.27 226.104 107.829C225.348 107.388 224.756 106.764 224.328 105.958C223.899 105.152 223.685 104.207 223.685 103.123ZM245.258 102.745C245.258 103.073 245.239 103.419 245.202 103.784H236.923C236.986 104.805 237.333 105.605 237.963 106.185C238.605 106.752 239.38 107.035 240.287 107.035C241.031 107.035 241.648 106.865 242.14 106.525C242.644 106.172 242.997 105.706 243.198 105.126H245.05C244.773 106.122 244.219 106.934 243.387 107.564C242.555 108.182 241.522 108.491 240.287 108.491C239.305 108.491 238.423 108.27 237.641 107.829C236.873 107.388 236.268 106.764 235.827 105.958C235.386 105.139 235.165 104.194 235.165 103.123C235.165 102.052 235.38 101.113 235.808 100.307C236.236 99.5004 236.835 98.8829 237.604 98.4545C238.385 98.0135 239.279 97.793 240.287 97.793C241.27 97.793 242.14 98.0072 242.896 98.4356C243.652 98.864 244.231 99.4563 244.635 100.212C245.05 100.956 245.258 101.8 245.258 102.745ZM243.482 102.386C243.482 101.731 243.337 101.17 243.047 100.704C242.757 100.225 242.36 99.8658 241.856 99.6264C241.365 99.3744 240.817 99.2484 240.212 99.2484C239.342 99.2484 238.599 99.5256 237.982 100.08C237.377 100.634 237.03 101.403 236.942 102.386H243.482ZM251.195 108.491C250.401 108.491 249.689 108.358 249.059 108.094C248.429 107.816 247.932 107.438 247.566 106.96C247.201 106.468 246.999 105.908 246.961 105.278H248.738C248.789 105.794 249.028 106.216 249.456 106.544C249.897 106.871 250.471 107.035 251.176 107.035C251.831 107.035 252.348 106.89 252.726 106.601C253.104 106.311 253.293 105.945 253.293 105.504C253.293 105.051 253.091 104.717 252.688 104.503C252.285 104.276 251.661 104.055 250.817 103.841C250.049 103.64 249.419 103.438 248.927 103.236C248.448 103.022 248.032 102.713 247.68 102.31C247.339 101.894 247.169 101.353 247.169 100.685C247.169 100.156 247.327 99.6705 247.642 99.2295C247.957 98.7884 248.404 98.4419 248.984 98.1899C249.563 97.9253 250.225 97.793 250.968 97.793C252.115 97.793 253.041 98.0828 253.747 98.6624C254.452 99.2421 254.83 100.036 254.881 101.044H253.161C253.123 100.502 252.902 100.067 252.499 99.7398C252.109 99.4122 251.579 99.2484 250.912 99.2484C250.294 99.2484 249.803 99.3807 249.437 99.6453C249.072 99.9099 248.889 100.256 248.889 100.685C248.889 101.025 248.996 101.308 249.211 101.535C249.437 101.749 249.715 101.926 250.042 102.064C250.382 102.191 250.849 102.335 251.441 102.499C252.184 102.701 252.789 102.902 253.255 103.104C253.721 103.293 254.118 103.583 254.446 103.973C254.786 104.364 254.963 104.874 254.975 105.504C254.975 106.071 254.818 106.582 254.503 107.035C254.188 107.489 253.74 107.848 253.161 108.113C252.594 108.365 251.939 108.491 251.195 108.491Z" fill="black"/>
<rect x="21.1373" y="79.0339" width="23.4846" height="44.512" rx="11.7423" stroke="black" stroke-width="2.0061"/>
<rect x="16.2965" y="90.6997" width="23.4846" height="44.512" rx="11.7423" transform="rotate(-45 16.2965 90.6997)" stroke="black" stroke-width="2.0061"/>
<rect x="32.8931" y="74.0935" width="23.4846" height="44.512" rx="11.7423" transform="rotate(45 32.8931 74.0935)" stroke="black" stroke-width="2.0061"/>
</svg>
