<svg width="1118" height="649" viewBox="0 0 1118 649" fill="none" xmlns="http://www.w3.org/2000/svg">
<g clip-path="url(#clip0)">
<path d="M263.862 230.151L256.797 211.097C256.508 210.318 255.406 210.318 255.117 211.097L248.053 230.152C248.003 230.288 247.986 230.433 248.005 230.577C248.023 230.72 248.076 230.857 248.158 230.975C248.241 231.094 248.35 231.191 248.478 231.257C248.606 231.324 248.749 231.359 248.893 231.359H263.022C263.166 231.359 263.309 231.324 263.437 231.257C263.565 231.19 263.675 231.093 263.757 230.975C263.839 230.856 263.892 230.719 263.91 230.576C263.928 230.433 263.912 230.287 263.861 230.152L263.862 230.151ZM267.126 240.861H244.79C244.607 240.861 244.429 240.917 244.279 241.021C244.129 241.126 244.014 241.274 243.951 241.445L239.554 253.301C239.49 253.472 239.375 253.62 239.225 253.724C239.075 253.829 238.897 253.885 238.714 253.885H229.033C228.887 253.885 228.743 253.849 228.614 253.78C228.484 253.712 228.374 253.612 228.292 253.491C228.21 253.37 228.159 253.23 228.143 253.085C228.128 252.939 228.148 252.792 228.202 252.656L250.491 197.108C250.558 196.942 250.673 196.8 250.821 196.7C250.969 196.6 251.144 196.546 251.322 196.546H260.592C260.957 196.546 261.286 196.768 261.423 197.108L283.711 252.655C283.766 252.791 283.786 252.939 283.771 253.084C283.755 253.23 283.704 253.37 283.622 253.491C283.54 253.613 283.43 253.712 283.3 253.781C283.171 253.85 283.027 253.885 282.88 253.885H273.201C273.018 253.885 272.84 253.829 272.69 253.725C272.54 253.62 272.425 253.472 272.362 253.301L267.964 241.445C267.9 241.274 267.786 241.126 267.636 241.021C267.486 240.917 267.307 240.861 267.125 240.861H267.126ZM288.247 216.041H296.527C296.764 216.041 296.992 216.135 297.16 216.303C297.328 216.471 297.422 216.699 297.422 216.937V252.989C297.422 253.227 297.328 253.454 297.16 253.622C296.992 253.79 296.764 253.885 296.527 253.885H288.247C288.009 253.885 287.781 253.79 287.614 253.622C287.446 253.454 287.351 253.227 287.351 252.989V216.936C287.351 216.699 287.446 216.471 287.614 216.303C287.781 216.135 288.009 216.04 288.247 216.04V216.041ZM327.62 224.811C327.62 225.048 327.526 225.276 327.358 225.444C327.19 225.612 326.962 225.706 326.725 225.706H326.474C322.38 225.706 319.377 226.689 317.467 228.655C315.556 230.621 314.602 233.871 314.602 238.403V252.989C314.602 253.227 314.507 253.454 314.34 253.622C314.172 253.79 313.944 253.885 313.706 253.885H305.508C305.27 253.885 305.042 253.79 304.874 253.622C304.707 253.454 304.612 253.227 304.612 252.989V216.936C304.612 216.699 304.707 216.471 304.874 216.303C305.042 216.135 305.27 216.04 305.508 216.04H313.624C313.862 216.04 314.089 216.135 314.257 216.303C314.425 216.471 314.519 216.699 314.519 216.936V224.067H314.684C315.666 221.119 317.222 218.854 319.351 217.269C321.479 215.686 324.1 214.893 327.211 214.893H327.62V224.81V224.811ZM350.26 224.478C350.023 224.478 349.795 224.572 349.627 224.74C349.459 224.908 349.365 225.136 349.365 225.373V240.369C349.365 241.898 349.663 242.99 350.265 243.645C350.865 244.301 351.902 244.628 353.376 244.628H354.2C354.438 244.628 354.665 244.723 354.833 244.891C355.001 245.059 355.096 245.287 355.096 245.524V253.07C355.096 253.308 355.001 253.536 354.833 253.704C354.665 253.872 354.438 253.966 354.2 253.966H350.674C347.017 253.966 344.206 253.024 342.241 251.14C340.275 249.256 339.293 246.459 339.293 242.744V225.373C339.293 225.136 339.198 224.908 339.031 224.74C338.863 224.572 338.635 224.478 338.397 224.478H333.229C332.992 224.478 332.764 224.383 332.596 224.215C332.428 224.047 332.334 223.819 332.334 223.582V216.936C332.334 216.699 332.428 216.471 332.596 216.303C332.764 216.135 332.992 216.04 333.229 216.04H338.398C338.636 216.04 338.863 215.946 339.031 215.778C339.199 215.61 339.293 215.382 339.293 215.145V201.782C339.293 201.545 339.388 201.317 339.556 201.149C339.724 200.981 339.951 200.886 340.189 200.886H348.469C348.706 200.886 348.934 200.981 349.102 201.149C349.27 201.317 349.364 201.545 349.364 201.782V215.145C349.364 215.382 349.458 215.61 349.626 215.778C349.794 215.946 350.022 216.04 350.259 216.04H356.247C356.484 216.04 356.712 216.135 356.88 216.303C357.048 216.471 357.142 216.699 357.142 216.936V223.582C357.142 223.82 357.048 224.048 356.88 224.216C356.712 224.384 356.484 224.478 356.247 224.478H350.26V224.478ZM388.175 242.663C390.058 240.697 391 238.13 391 234.962C391 231.796 390.058 229.228 388.175 227.263C386.292 225.297 383.821 224.314 380.765 224.314C377.708 224.314 375.239 225.297 373.355 227.263C371.472 229.228 370.531 231.796 370.531 234.962C370.531 238.13 371.472 240.697 373.355 242.663C375.239 244.628 377.708 245.611 380.765 245.611C383.821 245.611 386.292 244.628 388.175 242.663ZM369.057 252.738C366.273 251.155 364.075 248.847 362.466 245.816C360.855 242.786 360.05 239.168 360.05 234.962C360.05 230.758 360.855 227.14 362.466 224.109C364.075 221.079 366.273 218.772 369.057 217.187C371.841 215.604 374.897 214.812 378.227 214.812C381.174 214.812 383.699 215.385 385.801 216.532C387.901 217.678 389.58 219.29 390.836 221.365H391V216.936C391 216.699 391.094 216.471 391.262 216.303C391.43 216.135 391.658 216.04 391.895 216.04H400.093C400.331 216.04 400.559 216.135 400.726 216.303C400.894 216.471 400.989 216.699 400.989 216.936V252.988C400.989 253.226 400.894 253.454 400.726 253.622C400.559 253.79 400.331 253.884 400.093 253.884H391.895C391.658 253.884 391.43 253.79 391.262 253.622C391.094 253.454 391 253.226 391 252.988V248.56H390.836C389.58 250.636 387.901 252.246 385.801 253.393C383.699 254.539 381.175 255.113 378.227 255.113C374.897 255.113 371.841 254.321 369.057 252.738V252.738ZM435.085 242.663C436.968 240.697 437.909 238.13 437.909 234.962C437.909 231.796 436.968 229.228 435.085 227.263C433.202 225.297 430.732 224.314 427.675 224.314C424.618 224.314 422.148 225.297 420.265 227.263C418.383 229.228 417.44 231.796 417.44 234.962C417.44 238.13 418.383 240.697 420.265 242.663C422.148 244.628 424.618 245.611 427.675 245.611C430.732 245.611 433.202 244.628 435.085 242.663ZM422.64 253.393C420.538 252.246 418.859 250.636 417.604 248.56H417.44V252.988C417.44 253.226 417.346 253.454 417.178 253.622C417.01 253.79 416.782 253.884 416.545 253.884H408.265C408.027 253.884 407.8 253.79 407.632 253.622C407.464 253.454 407.369 253.226 407.369 252.988V197.44C407.369 197.203 407.464 196.975 407.632 196.807C407.8 196.639 408.027 196.545 408.265 196.545H416.545C416.782 196.545 417.01 196.639 417.178 196.807C417.346 196.975 417.44 197.203 417.44 197.44V221.365H417.604C418.859 219.289 420.538 217.678 422.64 216.532C424.741 215.385 427.266 214.811 430.214 214.811C433.542 214.811 436.6 215.603 439.384 217.187C442.168 218.772 444.364 221.078 445.975 224.108C447.584 227.14 448.391 230.759 448.391 234.963C448.391 239.169 447.584 242.786 445.975 245.817C444.365 248.847 442.168 251.155 439.384 252.738C436.6 254.321 433.543 255.114 430.214 255.114C427.266 255.114 424.741 254.54 422.64 253.393L422.64 253.393ZM462.341 253.885H454.061C453.824 253.885 453.596 253.79 453.428 253.622C453.26 253.454 453.166 253.227 453.166 252.989V197.442C453.166 197.205 453.26 196.977 453.428 196.809C453.596 196.641 453.824 196.546 454.061 196.546H462.341C462.579 196.546 462.806 196.641 462.974 196.809C463.142 196.977 463.237 197.205 463.237 197.442V252.989C463.237 253.227 463.142 253.454 462.974 253.622C462.806 253.79 462.579 253.885 462.341 253.885V253.885ZM481.873 224.806C480.5 225.877 479.573 227.424 479.093 229.447C478.961 230.005 479.396 230.54 479.969 230.54H495.727C496.274 230.54 496.704 230.05 496.615 229.51C496.3 227.596 495.48 226.071 494.154 224.929C492.599 223.591 490.565 222.923 488.054 222.923C485.543 222.923 483.482 223.55 481.873 224.806V224.806ZM502.055 220.096C505.276 223.619 506.886 228.602 506.886 235.045V236.115C506.886 236.352 506.792 236.58 506.624 236.748C506.456 236.916 506.228 237.011 505.991 237.011H479.665C479.534 237.011 479.405 237.04 479.286 237.095C479.167 237.151 479.062 237.231 478.977 237.332C478.893 237.432 478.832 237.55 478.797 237.677C478.763 237.803 478.757 237.936 478.779 238.065C479.2 240.458 480.258 242.36 481.955 243.768C483.891 245.381 486.335 246.185 489.283 246.185C493.088 246.185 496.61 244.699 499.849 241.727C500.244 241.364 500.872 241.441 501.179 241.883L505.204 247.663C505.33 247.843 505.386 248.063 505.361 248.281C505.335 248.499 505.231 248.701 505.067 248.847C503.091 250.577 500.894 252.037 498.534 253.189C495.914 254.471 492.83 255.114 489.283 255.114C485.189 255.114 481.613 254.28 478.556 252.615C475.499 250.95 473.125 248.602 471.434 245.571C469.741 242.54 468.895 239.032 468.895 235.045C468.895 231.059 469.714 227.537 471.351 224.478C472.989 221.421 475.281 219.045 478.229 217.352C481.177 215.66 484.615 214.813 488.546 214.813C494.33 214.813 498.834 216.574 502.055 220.096V220.096ZM298.504 202.713C298.504 206.091 295.766 208.83 292.388 208.83C289.01 208.83 286.272 206.091 286.272 202.712C286.272 199.333 289.01 196.594 292.388 196.594C295.766 196.594 298.504 199.333 298.504 202.712" fill="white"/>
<path d="M148.154 180.39L108.783 196.688C106.594 197.594 106.617 200.706 108.82 201.58L148.355 217.264C151.828 218.643 155.697 218.643 159.171 217.264L198.706 201.579C200.909 200.706 200.933 197.595 198.742 196.688L159.372 180.389C155.78 178.902 151.746 178.902 148.154 180.389" fill="white"/>
<path d="M157.271 225.829V265.012C157.271 266.875 159.149 268.152 160.881 267.465L204.935 250.358C205.426 250.163 205.848 249.825 206.145 249.388C206.442 248.95 206.601 248.434 206.6 247.905V208.722C206.6 206.858 204.722 205.582 202.99 206.269L158.936 223.376C158.445 223.571 158.024 223.909 157.727 224.347C157.43 224.784 157.271 225.301 157.271 225.829" fill="white"/>
<path d="M146.983 227.851L133.909 234.166L132.582 234.808L104.982 248.038C103.234 248.882 101 247.607 101 245.662V208.886C101 208.183 101.361 207.576 101.844 207.119C102.042 206.921 102.267 206.752 102.513 206.617C103.171 206.221 104.112 206.116 104.912 206.432L146.764 223.022C148.891 223.866 149.058 226.849 146.983 227.851" fill="white"/>
<path d="M146.984 227.851L133.909 234.166L101.844 207.118C102.043 206.921 102.268 206.752 102.513 206.617C103.172 206.221 104.112 206.116 104.912 206.432L146.764 223.022C148.891 223.866 149.058 226.849 146.984 227.851" fill="white" fill-opacity="0.25"/>
</g>
<path d="M308.077 358.638C304.964 358.638 302.37 361.232 302.37 364.345C302.37 367.544 304.964 370.051 308.077 370.051C311.276 370.051 313.784 367.457 313.784 364.345C313.784 361.232 311.19 358.638 308.077 358.638ZM290.957 341.518C287.844 341.518 285.25 344.112 285.25 347.224C285.25 350.424 287.844 352.931 290.957 352.931C294.156 352.931 296.664 350.337 296.664 347.224C296.664 344.112 294.07 341.518 290.957 341.518ZM290.957 375.845C287.844 375.845 285.25 378.439 285.25 381.551C285.25 384.664 287.844 387.258 290.957 387.258C294.156 387.258 296.664 384.664 296.664 381.551C296.664 378.352 294.07 375.845 290.957 375.845ZM290.957 358.638C287.844 358.638 285.25 361.232 285.25 364.345C285.25 367.457 287.844 370.051 290.957 370.051C294.156 370.051 296.664 367.457 296.664 364.345C296.664 361.232 294.07 358.638 290.957 358.638ZM273.75 358.638C270.551 358.638 268.043 361.232 268.043 364.345C268.043 367.544 270.637 370.051 273.75 370.051C276.863 370.051 279.457 367.457 279.457 364.345C279.457 361.232 276.949 358.638 273.75 358.638ZM777.239 387.258H786.837V325.176H777.239V387.258ZM671.751 387.258H681.262V341.518H671.751V387.258ZM676.42 324.398C673.308 324.398 670.714 326.991 670.714 330.104C670.714 333.217 673.308 335.811 676.42 335.811C679.62 335.811 682.127 333.217 682.127 330.104C682.214 326.905 679.62 324.398 676.42 324.398ZM759.341 370.051C759.341 377.314 755.191 381.811 748.533 381.811C743.172 381.811 740.232 378.871 740.232 374.461C740.232 369.446 743.691 366.333 751.3 366.333H759.341V370.051ZM750.089 340.134C742.567 340.134 737.292 342.728 733.315 346.187V353.363C737.206 349.04 742.048 346.879 747.582 346.879C754.845 346.879 759.427 350.856 759.427 359.07V360.886H750.781C737.206 360.886 730.634 366.506 730.634 374.634C730.634 382.416 736.687 388.382 745.333 388.382C752.337 388.382 757.093 384.837 759.427 379.735V387.172H768.939V358.724C768.852 346.965 762.021 340.134 750.089 340.134ZM580.876 358.638C582 351.375 586.15 346.36 593.068 346.36C599.466 346.36 603.789 350.51 603.962 358.638H580.876ZM593.327 340.134C579.406 340.134 570.414 350.078 570.414 363.999C570.414 378.784 580.617 388.555 595.143 388.555C602.406 388.555 608.372 386.047 612.09 382.416V376.536C608.631 379.908 603.184 381.811 597.737 381.811C587.88 381.811 581.049 375.845 580.53 364.172H613.56V361.145C613.473 347.916 605.605 340.134 593.327 340.134ZM713.082 381.811C702.879 381.811 697.345 374.202 697.345 364.258C697.345 354.055 703.311 347.052 712.822 347.052C717.924 347.052 722.161 348.954 725.879 353.45V346.273C722.507 342.555 717.405 340.221 710.834 340.221C696.913 340.221 687.142 350.77 687.142 364.518C687.142 378.179 696.999 388.728 710.747 388.728C716.54 388.728 721.815 386.826 726.484 382.157V375.845C723.285 379.563 718.183 381.811 713.082 381.811ZM640.537 381.638C632.928 381.638 627.913 374.893 627.913 364.604C627.913 354.142 633.015 347.052 640.883 347.052C648.924 347.052 653.766 354.055 653.766 364.172C653.766 374.461 648.406 381.638 640.537 381.638ZM653.593 350.078C650.654 343.766 645.466 340.134 638.635 340.134C626.876 340.134 617.624 350.683 617.624 364.777C617.624 378.611 626.27 388.555 637.684 388.555C645.552 388.555 651.172 383.886 653.593 377.747V387.172H663.105V325.089H653.593V350.078V350.078ZM407.167 340.134C399.644 340.134 394.629 344.285 392.122 350.597V341.518H382.61V387.258H392.122V362.097C392.122 353.536 396.358 348.089 403.881 348.089C410.712 348.089 413.565 352.153 413.565 360.713V387.258H423.076V358.724C423.076 346.965 416.764 340.134 407.167 340.134ZM353.731 382.243C345.949 382.243 341.193 375.239 341.193 364.431C341.193 353.536 345.949 346.533 353.731 346.533C361.686 346.533 366.441 353.536 366.441 364.431C366.441 375.239 361.772 382.243 353.731 382.243ZM353.731 340.134C340.588 340.134 330.904 350.683 330.904 364.431C330.904 378.179 340.502 388.641 353.731 388.641C367.133 388.641 376.731 378.179 376.731 364.431C376.731 350.683 367.133 340.134 353.731 340.134ZM439.245 358.638C440.456 351.375 444.52 346.36 451.523 346.36C457.835 346.36 462.159 350.51 462.332 358.638H439.245ZM451.696 340.134C437.775 340.134 428.869 350.078 428.869 363.999C428.869 378.784 438.986 388.555 453.512 388.555C460.775 388.555 466.741 386.047 470.546 382.416V376.536C467.001 379.908 461.64 381.811 456.193 381.811C446.249 381.811 439.418 375.845 438.986 364.172H471.929V361.145C471.843 347.916 463.974 340.134 451.696 340.134ZM550.527 340.134C544.215 340.134 539.372 343.766 536.692 349.818C534.703 343.679 529.775 340.134 523.722 340.134C517.583 340.134 513.26 343.766 511.012 349.645V341.431H501.414V387.172H511.012V359.848C511.012 352.845 514.557 347.916 520.264 347.916C525.624 347.916 528.391 351.548 528.391 358.551V387.172H537.903V359.07C537.903 352.499 541.448 347.916 547.241 347.916C552.602 347.916 555.109 351.548 555.109 358.811V387.172H564.62V357.082C564.707 346.533 559.173 340.134 550.527 340.134Z" fill="white"/>
<path d="M773.885 191.386C773.885 195.314 770.721 198.478 766.793 198.478C762.865 198.478 759.701 195.314 759.701 191.386C759.701 187.458 762.756 184.294 766.793 184.294C770.83 184.403 773.885 187.568 773.885 191.386ZM744.643 205.68C744.643 206.334 744.643 207.425 744.643 207.425C744.643 207.425 741.261 203.061 734.06 203.061C722.167 203.061 712.893 212.117 712.893 224.665C712.893 237.103 722.058 246.268 734.06 246.268C741.37 246.268 744.643 241.795 744.643 241.795V243.65C744.643 244.523 745.298 245.177 746.171 245.177H755.009V204.152C755.009 204.152 746.935 204.152 746.171 204.152C745.298 204.152 744.643 204.916 744.643 205.68ZM744.643 231.975C743.007 234.375 739.734 236.448 735.806 236.448C728.823 236.448 723.476 232.084 723.476 224.665C723.476 217.245 728.823 212.881 735.806 212.881C739.624 212.881 743.116 215.063 744.643 217.354V231.975ZM761.555 204.152H772.03V245.177H761.555V204.152ZM918.018 203.061C910.817 203.061 907.434 207.425 907.434 207.425V184.403H896.96V245.177C896.96 245.177 905.034 245.177 905.798 245.177C906.671 245.177 907.325 244.413 907.325 243.65V241.795C907.325 241.795 910.708 246.268 917.909 246.268C929.802 246.268 939.076 237.103 939.076 224.665C939.076 212.226 929.802 203.061 918.018 203.061ZM916.272 236.339C912.235 236.339 909.071 234.266 907.434 231.866V217.245C909.071 215.063 912.562 212.772 916.272 212.772C923.255 212.772 928.601 217.136 928.601 224.556C928.601 231.975 923.255 236.339 916.272 236.339ZM891.504 220.846V245.286H881.03V222.046C881.03 215.281 878.848 212.554 872.956 212.554C869.792 212.554 866.518 214.19 864.445 216.591V245.177H853.971V204.152H862.263C863.136 204.152 863.791 204.916 863.791 205.68V207.425C866.846 204.261 870.883 203.061 874.92 203.061C879.502 203.061 883.321 204.37 886.376 206.989C890.086 210.044 891.504 213.972 891.504 220.846ZM828.548 203.061C821.347 203.061 817.965 207.425 817.965 207.425V184.403H807.49V245.177C807.49 245.177 815.564 245.177 816.328 245.177C817.201 245.177 817.856 244.413 817.856 243.65V241.795C817.856 241.795 821.238 246.268 828.439 246.268C840.332 246.268 849.606 237.103 849.606 224.665C849.716 212.226 840.441 203.061 828.548 203.061ZM826.803 236.339C822.766 236.339 819.601 234.266 817.965 231.866V217.245C819.601 215.063 823.093 212.772 826.803 212.772C833.786 212.772 839.132 217.136 839.132 224.556C839.132 231.975 833.786 236.339 826.803 236.339ZM798.434 203.061C801.598 203.061 803.235 203.607 803.235 203.607V213.317C803.235 213.317 794.506 210.371 789.051 216.591V245.286H778.576V204.152C778.576 204.152 786.651 204.152 787.414 204.152C788.287 204.152 788.942 204.916 788.942 205.68V207.425C790.906 205.134 795.161 203.061 798.434 203.061ZM689.653 241.467C689.107 240.158 688.561 238.74 688.016 237.54C687.143 235.576 686.27 233.721 685.506 231.975L685.397 231.866C677.869 215.499 669.795 198.915 661.284 182.549L660.957 181.894C660.084 180.257 659.211 178.512 658.338 176.766C657.247 174.802 656.156 172.729 654.41 170.765C650.919 166.4 645.9 164 640.553 164C635.098 164 630.188 166.4 626.587 170.547C624.951 172.511 623.751 174.584 622.66 176.548C621.787 178.293 620.914 180.039 620.041 181.676L619.714 182.33C611.312 198.697 603.129 215.281 595.6 231.648L595.491 231.866C594.728 233.612 593.855 235.466 592.982 237.43C592.436 238.631 591.891 239.94 591.345 241.358C589.927 245.395 589.49 249.214 590.036 253.142C591.236 261.325 596.692 268.199 604.22 271.254C607.057 272.454 610.003 273 613.058 273C613.931 273 615.022 272.891 615.895 272.782C619.495 272.345 623.205 271.145 626.806 269.072C631.279 266.563 635.534 262.962 640.335 257.725C645.136 262.962 649.5 266.563 653.865 269.072C657.465 271.145 661.175 272.345 664.776 272.782C665.649 272.891 666.74 273 667.612 273C670.668 273 673.723 272.454 676.45 271.254C684.088 268.199 689.434 261.216 690.634 253.142C691.507 249.323 691.071 245.505 689.653 241.467ZM640.444 247.141C634.552 239.722 630.734 232.739 629.424 226.847C628.879 224.337 628.77 222.155 629.097 220.191C629.315 218.445 629.97 216.918 630.843 215.609C632.916 212.663 636.407 210.808 640.444 210.808C644.481 210.808 648.082 212.554 650.046 215.609C650.919 216.918 651.573 218.445 651.792 220.191C652.119 222.155 652.01 224.446 651.464 226.847C650.155 232.63 646.336 239.613 640.444 247.141ZM683.979 252.269C683.215 257.943 679.396 262.853 674.05 265.035C671.431 266.126 668.594 266.453 665.758 266.126C663.03 265.799 660.302 264.926 657.465 263.289C653.537 261.107 649.609 257.725 645.027 252.706C652.228 243.868 656.592 235.794 658.229 228.593C658.993 225.21 659.102 222.155 658.775 219.318C658.338 216.591 657.356 214.081 655.829 211.899C652.446 206.989 646.773 204.152 640.444 204.152C634.116 204.152 628.442 207.098 625.06 211.899C623.532 214.081 622.55 216.591 622.114 219.318C621.678 222.155 621.787 225.319 622.66 228.593C624.296 235.794 628.77 243.977 635.862 252.815C631.388 257.834 627.351 261.216 623.423 263.398C620.586 265.035 617.859 265.908 615.131 266.235C612.185 266.563 609.348 266.126 606.839 265.144C601.492 262.962 597.674 258.052 596.91 252.378C596.582 249.651 596.801 246.923 597.892 243.868C598.219 242.777 598.765 241.686 599.31 240.376C600.074 238.631 600.947 236.776 601.82 234.921L601.929 234.703C609.457 218.445 617.531 201.861 625.933 185.713L626.26 185.058C627.133 183.421 628.006 181.676 628.879 180.039C629.752 178.293 630.734 176.657 631.934 175.238C634.225 172.62 637.28 171.201 640.663 171.201C644.045 171.201 647.1 172.62 649.391 175.238C650.591 176.657 651.573 178.293 652.446 180.039C653.319 181.676 654.192 183.421 655.065 185.058L655.392 185.713C663.685 201.97 671.759 218.555 679.287 234.812V234.921C680.16 236.667 680.924 238.631 681.797 240.376C682.342 241.686 682.888 242.777 683.215 243.868C684.088 246.705 684.415 249.432 683.979 252.269Z" fill="white"/>
<path d="M894.759 390.912H876.134L878.399 383.398H868.447L863.937 390.912H845.878L884.662 332.466H908.49L894.759 390.912ZM882.982 368.372L888.66 349.845L877.54 368.372H882.982Z" fill="white"/>
<path d="M913.932 390.911H895.873L922.532 332.484H940.591L913.932 390.911Z" fill="white"/>
<path d="M937.505 384.565L934.492 390.911H916.433L943.092 332.484H961.151L952.295 351.851C957.736 343.663 961.662 339.159 967.432 339.159C975.046 339.159 976.635 347.748 967.688 367.369C958.32 387.903 952.295 391.732 945.867 391.732C941.777 391.732 939.422 389.234 937.505 384.565ZM950.213 356.428L941.01 376.633C941.686 376.797 942.27 376.888 942.508 376.888C944.845 376.888 945.849 375.794 949.866 367.041C955.052 355.607 954.376 354.021 952.623 354.021C951.71 354.003 950.962 354.841 950.213 356.428Z" fill="white"/>
<path d="M1008.52 367.862C1002.84 383.8 996.063 391.732 983.61 391.732C974.334 391.732 968.235 387.137 968.235 377.217C968.235 372.876 969.568 366.695 973.585 358.689C979.848 345.76 986.714 339.159 999.24 339.159C1008.84 339.159 1014.12 343.827 1014.12 351.103C1014.12 355.863 1011.95 361.461 1009.87 365.035H989.051C985.381 373.223 984.797 375.794 984.797 377.563C984.797 378.566 985.381 378.821 985.892 378.821C987.152 378.821 988.905 377.144 992.247 367.88H1008.52V367.862ZM991.808 359.017H995.898C997.816 354.422 998.4 352.763 998.4 351.833C998.4 351.158 997.98 350.83 997.487 350.83C996.41 350.83 995.314 351.668 991.808 359.017Z" fill="white"/>
<path d="M1027.69 378.712C1022.17 386.973 1018.25 391.732 1012.31 391.732C1004.7 391.732 1003.13 383.143 1012.06 363.522C1020.91 344.064 1026.59 339.141 1034.21 339.141C1037.88 339.141 1040.4 340.472 1043.48 343.9L1048.67 332.466H1066.73L1040.07 390.893H1024.6L1027.69 378.712ZM1029.11 365.783C1025.52 373.788 1024.51 376.797 1026.52 376.797C1028.11 376.797 1029.11 374.718 1033.13 366.275C1037.57 356.847 1038.74 354.094 1036.73 354.094C1035.56 354.094 1033.97 354.769 1029.11 365.783Z" fill="white"/>
<path d="M1067.06 391.732C1056.87 391.732 1050.75 387.064 1050.75 377.034C1050.75 372.694 1052.01 366.603 1056.01 358.671C1062.2 345.906 1069.37 339.141 1081.24 339.141C1091.36 339.141 1097.37 343.809 1097.37 353.839C1097.37 358.179 1096.03 364.196 1092.11 372.202C1085.86 384.985 1078.85 391.732 1067.06 391.732ZM1076.26 366.366C1079.93 358.525 1080.6 354.841 1080.6 353.346C1080.6 352.671 1080.28 352.343 1079.76 352.343C1078.76 352.343 1077.01 353.346 1071.91 364.689C1068.32 372.694 1067.57 376.214 1067.57 377.8C1067.57 378.548 1067.99 378.803 1068.41 378.803C1069.32 378.803 1070.98 377.636 1076.26 366.366Z" fill="white"/>
<path d="M912.836 328.199V313.574H910.9V328.199H891.874V330.132H910.9V346.362H912.836V330.132H931.862V328.199H912.836Z" fill="white"/>
<path d="M844.034 377.126H842.099V393.501H823.072V395.434H842.099V409.932H844.034V395.434H863.061V393.501H844.034V377.126Z" fill="white"/>
<g clip-path="url(#clip1)">
<path d="M426.782 493.18L443.785 488.185C443.785 492.897 444.911 496.303 446.375 496.303C447.332 496.303 448.064 494.77 448.064 492.613V457.188H467.094V491.534C467.094 502.888 459.099 511.12 447.67 511.12C436.691 511.063 427.965 503.513 426.782 493.18Z" fill="white"/>
<path d="M471.429 490.399V457.188H490.459V488.923C490.459 491.875 491.36 495.167 494.513 495.167C497.215 495.167 498.566 492.669 498.566 488.923V457.188H517.596V490.399C517.596 503.456 508.363 511.46 494.513 511.46C480.663 511.404 471.429 503.456 471.429 490.399Z" fill="white"/>
<path d="M521.931 457.188H540.961V510.325H521.931V457.188V457.188Z" fill="white"/>
<path d="M544.283 483.756C544.283 467.293 554.811 456.052 569.337 456.052C582.342 456.052 592.308 465.079 593.208 478.42L575.811 480.237C575.248 475.241 572.827 472.289 569.675 472.289C566.015 472.289 563.369 476.433 563.369 483.756C563.369 491.08 566.691 495.224 570.913 495.224C574.742 495.224 577.951 491.988 578.739 486.538L596.361 488.355C594.841 502.036 584.932 511.46 570.801 511.46C555.487 511.404 544.283 500.22 544.283 483.756Z" fill="white"/>
<path d="M608.748 492.613L593.771 457.188H613.477L618.319 477.114L622.372 457.188H642.359L627.89 492.613V510.325H608.86V492.613H608.748Z" fill="white"/>
<path d="M659.137 457.188H683.741L692.355 488.752L701.419 457.188H725.742V510.325H708.907V476.831L699.336 510.325H685.43L675.971 476.831V510.325H659.137V457.188Z" fill="white"/>
<path d="M741.9 457.188H765.321L779.284 510.325H760.198L758.79 502.207H747.981L746.292 510.325H727.825L741.9 457.188ZM756.989 489.661L753.611 472.63L749.782 489.661H756.989Z" fill="white"/>
<path d="M805.295 501.469L804.338 494.77C804.169 493.578 803.099 492.613 801.861 492.613H800.566V510.325H781.536V457.188H803.437C819.258 457.188 826.183 464.398 826.183 475.127C826.183 482.167 823.255 486.765 819.033 488.582C821.397 489.547 822.411 491.818 822.692 494.77L823.086 498.63C823.255 500.106 824.044 500.674 824.832 500.674C825.507 500.674 826.464 500.277 827.196 499.539L829.448 507.884C826.352 510.155 821.341 511.801 817.231 511.801C810.531 511.801 806.14 507.487 805.295 501.469ZM802.649 480.804C805.07 480.804 807.097 478.988 807.097 475.638C807.097 472.346 805.07 470.472 802.649 470.472H800.51V480.804H802.649Z" fill="white"/>
<path d="M831.531 457.188H857.205C867.733 457.188 875.446 463.376 875.446 471.721C875.446 477.285 872.068 481.997 867.395 483.359C872.519 484.551 876.178 489.547 876.178 495.565C876.178 504.137 868.634 510.325 858.331 510.325H831.531V457.188ZM853.658 478.193C855.684 478.193 857.092 476.49 857.092 473.935C857.092 471.437 855.684 469.734 853.658 469.734H850.561V478.25H853.658V478.193ZM853.432 497.779C855.684 497.779 857.148 496.132 857.148 493.691C857.148 490.796 855.628 488.866 853.432 488.866H850.561V497.722H853.432V497.779Z" fill="white"/>
<path d="M879.5 457.188H898.53V494.089H912.436V510.325H879.5V457.188Z" fill="white"/>
<path d="M916.096 457.188H948.3V471.948H934.394V477.114H945.372V489.661H934.394V495.565H949.032V510.325H916.096V457.188Z" fill="white"/>
<path d="M950.833 495.621L967.105 492.669C967.105 496.303 969.244 498.119 971.946 498.119C973.973 498.119 975.55 497.325 975.55 495.338C975.55 492.386 972.284 491.875 968.174 491.08C962.263 489.888 951.734 486.708 951.734 473.424C951.734 462.524 960.011 456.052 971.496 456.052C981.968 456.052 990.301 461.957 991.427 471.097L975.888 474.049C975.888 470.87 974.48 469.337 972.566 469.337C971.102 469.337 970.032 470.018 970.032 471.721C970.032 474.616 973.185 475.127 977.182 475.809C984.164 476.887 993.791 479.953 993.791 493.351C993.791 504.705 984.502 511.46 971.665 511.46C960.743 511.404 951.96 505.216 950.833 495.621Z" fill="white"/>
</g>
<path d="M174.857 484.002C177.165 484.002 179.473 482.233 179.473 478.54V465.458C179.473 462.151 177.934 460.073 175.242 459.38V459.15H191.168V477.387C191.168 481.617 192.708 482.695 195.631 483.156V483.386L179.704 489.234V480.617C178.781 484.925 173.395 489.62 168.085 489.62C161.93 489.62 159.236 485.542 159.236 478.925V465.843C159.236 462.073 156.929 459.841 154.773 459.38V459.15H170.933V478.232C170.933 481.617 171.857 484.002 174.857 484.002Z" fill="white"/>
<path d="M174.857 484.002C177.165 484.002 179.473 482.233 179.473 478.54V465.458C179.473 462.151 177.934 460.073 175.242 459.38V459.15H191.168V477.387C191.168 481.617 192.708 482.695 195.631 483.156V483.386L179.704 489.234V480.617C178.781 484.925 173.395 489.62 168.085 489.62C161.93 489.62 159.236 485.542 159.236 478.925V465.843C159.236 462.073 156.929 459.841 154.773 459.38V459.15H170.933V478.232C170.933 481.617 171.857 484.002 174.857 484.002Z" stroke="white" stroke-width="0.124112" stroke-miterlimit="10"/>
<path d="M212.454 488.235C215.224 488.235 216.377 486.081 216.377 482.386V469.614C216.377 466.228 215.454 463.381 212.454 463.381C209.838 463.381 208.375 465.458 208.375 469.306V482.386C208.375 486.081 209.453 488.235 212.454 488.235ZM192.371 463.535L208.144 458.149V466.536C209.068 462.226 213.916 458.227 219.225 458.227C225.381 458.227 228.073 462.304 228.073 468.921V482.002C228.073 486.465 230.382 488.234 232.767 488.466V488.697H192.526V488.466C195.065 487.85 196.679 486.235 196.679 482.002V469.537C196.679 465.306 195.141 464.228 192.371 463.766V463.535" fill="white"/>
<path d="M212.454 488.235C215.224 488.235 216.377 486.081 216.377 482.386V469.614C216.377 466.228 215.454 463.381 212.454 463.381C209.838 463.381 208.375 465.458 208.375 469.306V482.386C208.375 486.081 209.453 488.235 212.454 488.235ZM192.371 463.535L208.144 458.149V466.536C209.068 462.226 213.916 458.227 219.225 458.227C225.381 458.227 228.073 462.304 228.073 468.921V482.002C228.073 486.465 230.382 488.234 232.767 488.466V488.697H192.526V488.466C195.065 487.85 196.679 486.235 196.679 482.002V469.537C196.679 465.306 195.141 464.228 192.371 463.766V463.535Z" stroke="white" stroke-width="0.124112" stroke-miterlimit="10"/>
<path d="M247.549 448.762C247.549 452.532 244.548 455.61 240.779 455.61C237.009 455.61 234.085 452.532 234.085 448.762C234.085 444.992 237.009 441.991 240.779 441.991C244.548 441.991 247.549 444.992 247.549 448.762ZM252.167 488.466V488.697H231.392V488.466C233.931 487.85 235.547 486.235 235.547 482.002V469.691C235.547 465.458 233.931 464.458 230.699 463.766V463.535L247.627 457.765V482.002C247.627 486.465 249.859 487.926 252.167 488.466" fill="white"/>
<path d="M247.549 448.762C247.549 452.532 244.548 455.61 240.779 455.61C237.009 455.61 234.085 452.532 234.085 448.762C234.085 444.992 237.009 441.991 240.779 441.991C244.548 441.991 247.549 444.992 247.549 448.762ZM252.167 488.466V488.697H231.392V488.466C233.931 487.85 235.547 486.235 235.547 482.002V469.691C235.547 465.458 233.931 464.458 230.699 463.766V463.535L247.627 457.765V482.002C247.627 486.465 249.859 487.926 252.167 488.466V488.466Z" stroke="white" stroke-width="0.124112" stroke-miterlimit="10"/>
<path d="M272.049 471.152C268.894 471.152 266.202 468.767 266.202 465.613C266.202 463.766 266.816 462.767 267.894 461.535C268.355 460.995 269.048 460.766 269.048 460.073C269.048 459.38 268.433 458.918 267.586 458.918C263.663 458.918 260.969 464.612 260.969 469.923C260.969 476.002 264.431 482.772 270.587 482.772C274.819 482.772 277.435 480.463 278.897 476.925H279.282C277.666 482.386 273.819 489.85 264.509 489.85C256.275 489.85 250.042 483.464 250.042 474.769C250.042 465.613 257.661 458.38 267.509 458.38C272.742 458.38 277.742 460.766 277.742 465.536C277.742 468.845 275.203 471.152 272.049 471.152" fill="white"/>
<path d="M272.049 471.152C268.894 471.152 266.202 468.767 266.202 465.613C266.202 463.766 266.816 462.767 267.894 461.535C268.355 460.995 269.048 460.766 269.048 460.073C269.048 459.38 268.433 458.918 267.586 458.918C263.663 458.918 260.969 464.612 260.969 469.923C260.969 476.002 264.431 482.772 270.587 482.772C274.819 482.772 277.435 480.463 278.897 476.925H279.282C277.666 482.386 273.819 489.85 264.509 489.85C256.275 489.85 250.042 483.464 250.042 474.769C250.042 465.613 257.661 458.38 267.509 458.38C272.742 458.38 277.742 460.766 277.742 465.536C277.742 468.845 275.203 471.152 272.049 471.152V471.152Z" stroke="white" stroke-width="0.124112" stroke-miterlimit="10"/>
<path d="M291.342 474.153C291.342 486.388 292.804 489.234 295.419 489.234C298.112 489.234 299.343 486.388 299.343 474.153C299.343 461.919 298.19 458.996 295.497 458.996C292.881 458.996 291.342 461.919 291.342 474.153V474.153ZM311.81 474.153C311.81 484.157 303.344 489.774 295.419 489.774C286.956 489.774 278.876 484.157 278.876 474.153C278.876 464.15 287.571 458.456 295.497 458.456C303.884 458.456 311.81 464.15 311.81 474.153Z" fill="white"/>
<path d="M291.342 474.153C291.342 486.388 292.804 489.234 295.419 489.234C298.112 489.234 299.343 486.388 299.343 474.153C299.343 461.919 298.19 458.996 295.497 458.996C292.881 458.996 291.342 461.919 291.342 474.153V474.153ZM311.81 474.153C311.81 484.157 303.344 489.774 295.419 489.774C286.956 489.774 278.876 484.157 278.876 474.153C278.876 464.15 287.571 458.456 295.497 458.456C303.884 458.456 311.81 464.15 311.81 474.153Z" stroke="white" stroke-width="0.124112" stroke-miterlimit="10"/>
<path d="M328.014 464.766C327.246 464.766 326.169 466.536 326.169 470.077V482.386C326.169 486.081 327.631 487.926 330.861 488.466V488.697H309.701V488.466C312.78 487.696 314.473 486.235 314.473 482.002V469.537C314.473 465.306 312.933 464.228 310.163 463.766V463.535L325.937 458.149V467.537C326.86 463.226 329.554 457.918 334.786 457.918C339.326 457.918 341.249 461.381 341.249 463.766C341.249 466.921 339.094 470.306 335.247 470.306C329.323 470.306 329.861 464.766 328.014 464.766" fill="white"/>
<path d="M328.014 464.766C327.246 464.766 326.169 466.536 326.169 470.077V482.386C326.169 486.081 327.631 487.926 330.861 488.466V488.697H309.701V488.466C312.78 487.696 314.473 486.235 314.473 482.002V469.537C314.473 465.306 312.933 464.228 310.163 463.766V463.535L325.937 458.149V467.537C326.86 463.226 329.554 457.918 334.786 457.918C339.326 457.918 341.249 461.381 341.249 463.766C341.249 466.921 339.094 470.306 335.247 470.306C329.323 470.306 329.861 464.766 328.014 464.766V464.766Z" stroke="white" stroke-width="0.124112" stroke-miterlimit="10"/>
<path d="M360.088 488.235C362.857 488.235 364.011 486.081 364.011 482.386V469.614C364.011 466.228 363.088 463.381 360.088 463.381C357.471 463.381 356.009 465.458 356.009 469.306V482.386C356.009 486.081 357.087 488.235 360.088 488.235ZM340.005 463.535L355.778 458.149V466.536C356.702 462.226 361.549 458.227 366.858 458.227C373.015 458.227 375.707 462.304 375.707 468.921V482.002C375.707 486.465 378.015 488.234 380.401 488.466V488.697H340.159V488.466C342.697 487.85 344.313 486.235 344.313 482.002V469.537C344.313 465.306 342.775 464.228 340.005 463.766V463.535" fill="white"/>
<path d="M360.088 488.235C362.857 488.235 364.011 486.081 364.011 482.386V469.614C364.011 466.228 363.088 463.381 360.088 463.381C357.471 463.381 356.009 465.458 356.009 469.306V482.386C356.009 486.081 357.087 488.235 360.088 488.235ZM340.005 463.535L355.778 458.149V466.536C356.702 462.226 361.549 458.227 366.858 458.227C373.015 458.227 375.707 462.304 375.707 468.921V482.002C375.707 486.465 378.015 488.234 380.401 488.466V488.697H340.159V488.466C342.697 487.85 344.313 486.235 344.313 482.002V469.537C344.313 465.306 342.775 464.228 340.005 463.766V463.535Z" stroke="white" stroke-width="0.124112" stroke-miterlimit="10"/>
<path d="M194.247 533.117C196.709 533.117 197.863 530.964 197.863 527.27V514.498C197.863 511.113 197.402 508.264 194.401 508.264C191.784 508.264 190.476 510.342 190.476 514.189V527.27C190.476 530.964 191.707 533.117 194.247 533.117ZM175.165 533.117C177.626 533.117 178.781 530.964 178.781 527.27V514.498C178.781 511.113 178.318 508.264 175.318 508.264C172.702 508.264 171.395 510.342 171.395 514.189V527.27C171.395 530.964 172.626 533.117 175.165 533.117ZM190.553 510.573C192.169 506.033 195.785 503.109 200.787 503.109C206.943 503.109 209.559 507.186 209.559 513.805V526.885C209.559 531.348 211.867 533.117 214.252 533.348V533.579H154.773V533.348C157.313 532.502 159.698 531.118 159.698 526.885V514.42C159.698 510.188 158.16 509.111 155.389 508.65V508.419L171.163 503.033V511.42C172.086 507.111 176.394 503.109 181.705 503.109C187.476 503.109 190.245 505.034 190.553 510.573Z" fill="white"/>
<path d="M194.247 533.117C196.709 533.117 197.863 530.964 197.863 527.27V514.498C197.863 511.113 197.402 508.264 194.401 508.264C191.784 508.264 190.476 510.342 190.476 514.189V527.27C190.476 530.964 191.707 533.117 194.247 533.117ZM175.165 533.117C177.626 533.117 178.781 530.964 178.781 527.27V514.498C178.781 511.113 178.318 508.264 175.318 508.264C172.702 508.264 171.395 510.342 171.395 514.189V527.27C171.395 530.964 172.626 533.117 175.165 533.117ZM190.553 510.573C192.169 506.033 195.785 503.109 200.787 503.109C206.943 503.109 209.559 507.186 209.559 513.805V526.885C209.559 531.348 211.867 533.117 214.252 533.348V533.579H154.773V533.348C157.313 532.502 159.698 531.118 159.698 526.885V514.42C159.698 510.188 158.16 509.111 155.389 508.65V508.419L171.163 503.033V511.42C172.086 507.111 176.394 503.109 181.705 503.109C187.476 503.109 190.245 505.034 190.553 510.573Z" stroke="white" stroke-width="0.124112" stroke-miterlimit="10"/>
<path d="M223.181 515.266H230.875C230.875 509.804 230.413 503.879 227.49 503.879C224.334 503.879 222.949 509.804 223.181 515.266V515.266ZM227.951 503.34C236.723 503.34 242.109 508.881 242.031 515.728H226.95C225.489 515.728 224.181 515.805 223.257 515.805C223.027 521.96 226.566 527.885 232.644 527.885C236.877 527.885 240.493 524.961 242.185 521.114L242.493 521.191C240.57 526.655 236.03 534.656 226.719 534.656C218.486 534.656 212.255 528.655 212.255 519.345C212.255 510.342 219.102 503.34 227.951 503.34" fill="white"/>
<path d="M223.181 515.266H230.875C230.875 509.804 230.413 503.879 227.49 503.879C224.334 503.879 222.949 509.804 223.181 515.266V515.266ZM227.951 503.34C236.723 503.34 242.109 508.881 242.031 515.728H226.95C225.489 515.728 224.181 515.805 223.257 515.805C223.027 521.96 226.566 527.885 232.644 527.885C236.877 527.885 240.493 524.961 242.185 521.114L242.493 521.191C240.57 526.655 236.03 534.656 226.719 534.656C218.486 534.656 212.255 528.655 212.255 519.345C212.255 510.342 219.102 503.34 227.951 503.34V503.34Z" stroke="white" stroke-width="0.124112" stroke-miterlimit="10"/>
<path d="M253.729 524.499C253.729 527.27 254.267 530.04 256.807 530.04C258.73 530.04 258.73 527.501 258.73 523.962V517.19L257.423 518.036C254.884 519.575 253.729 520.807 253.729 524.499V524.499ZM262.424 503.109C267.81 503.109 270.735 506.188 270.735 511.727V525.654C270.735 527.732 270.735 529.424 272.272 529.424C273.504 529.424 274.273 527.655 274.811 525.962H275.043C274.12 530.578 270.888 534.81 265.732 534.81C262.501 534.81 259.038 533.271 259.038 528.116C258.269 531.963 254.806 534.81 250.65 534.81C246.573 534.81 242.495 532.271 242.495 528.194C242.495 521.114 249.497 520.729 255.191 518.575C256.575 518.036 257.807 517.344 258.73 516.499V510.035C258.73 507.265 257.423 505.265 254.73 505.265C253.499 505.265 251.959 505.956 251.959 507.186C251.959 508.726 254.73 508.803 254.73 511.881C254.73 515.266 250.882 518.499 247.342 518.499C244.88 518.499 243.341 517.036 243.341 514.575C243.341 508.264 255.113 503.109 262.424 503.109" fill="white"/>
<path d="M253.729 524.499C253.729 527.27 254.267 530.04 256.807 530.04C258.73 530.04 258.73 527.501 258.73 523.962V517.19L257.423 518.036C254.884 519.575 253.729 520.807 253.729 524.499V524.499ZM262.424 503.109C267.81 503.109 270.735 506.188 270.735 511.727V525.654C270.735 527.732 270.735 529.424 272.272 529.424C273.504 529.424 274.273 527.655 274.811 525.962H275.043C274.12 530.578 270.888 534.81 265.732 534.81C262.501 534.81 259.038 533.271 259.038 528.116C258.269 531.963 254.806 534.81 250.65 534.81C246.573 534.81 242.495 532.271 242.495 528.194C242.495 521.114 249.497 520.729 255.191 518.575C256.575 518.036 257.807 517.344 258.73 516.499V510.035C258.73 507.265 257.423 505.265 254.73 505.265C253.499 505.265 251.959 505.956 251.959 507.186C251.959 508.726 254.73 508.803 254.73 511.881C254.73 515.266 250.882 518.499 247.342 518.499C244.88 518.499 243.341 517.036 243.341 514.575C243.341 508.264 255.113 503.109 262.424 503.109V503.109Z" stroke="white" stroke-width="0.124112" stroke-miterlimit="10"/>
<path d="M287.817 504.032H296.051L293.973 508.187H287.817V524.27C287.817 527.423 289.049 529.808 291.663 529.808C293.819 529.808 295.513 527.885 296.512 525.732L296.743 525.808C295.051 530.424 290.972 534.81 285.202 534.81C278.968 534.81 276.121 531.194 276.121 524.809V508.187H272.89L287.817 494.337V504.032" fill="white"/>
<path d="M287.817 504.032H296.051L293.973 508.187H287.817V524.27C287.817 527.423 289.049 529.808 291.663 529.808C293.819 529.808 295.513 527.885 296.512 525.732L296.743 525.808C295.051 530.424 290.972 534.81 285.202 534.81C278.968 534.81 276.121 531.194 276.121 524.809V508.187H272.89L287.817 494.337V504.032Z" stroke="white" stroke-width="0.124112" stroke-miterlimit="10"/>
<path d="M126.233 495.17C125.474 490.642 124.156 485.122 123.692 483.831C123.331 482.823 122.89 481.831 122.274 480.947C122.122 480.732 121.958 480.524 121.785 480.324C121.798 480.312 123.677 478.6 125.237 478.883C128.7 479.507 132.716 492.18 132.974 492.99C135.769 501.72 135.074 504.511 135.066 504.537C134.707 506.29 133.508 509.831 132.019 509.917C130.322 510.022 128.451 507.93 127.177 505.768C127.186 505.54 126.994 499.697 126.233 495.17" fill="white"/>
<path d="M71.2362 522.172C71.9741 520.951 72.9488 519.844 73.8456 518.759C75.4208 516.858 77.0318 514.969 78.3794 512.898C78.7978 512.254 79.2016 511.584 79.5444 510.886C79.772 511.024 80.0596 511.11 80.3196 511.218C80.9169 511.466 81.5218 511.697 82.1305 511.913C82.7441 512.132 83.3625 512.336 83.9847 512.526C83.6695 513.812 83.0322 516.272 82.4338 517.662C82.1046 518.431 81.6537 519.225 81.1791 520.068C80.3082 521.608 79.6449 521.862 79.24 523.654C78.8724 525.272 79.2027 526.898 79.2552 529.209C79.3682 534.158 78.2848 538.255 76.2068 540.743C75.5846 541.487 74.8419 541.843 74.0483 541.784C72.9288 541.693 71.7741 540.766 70.881 539.242C69.9988 537.753 68.8069 534.918 69.3458 533.645C71.6125 528.31 71.307 523.684 71.2362 522.172" fill="white"/>
<path d="M52.2771 477.906C54.5513 475.658 57.0466 483.084 61.1556 481.909C63.6547 481.193 65.6694 479.294 68.4864 479.294C76.9832 479.296 80.9754 489.62 74.7241 495.379C69.5978 500.104 62.5168 498.236 57.8105 493.761C53.8372 489.984 50.7505 480.521 52.2771 477.906Z" fill="white"/>
<path d="M86.9215 499.479C87.2199 501.398 88.4195 502.808 89.5996 502.628C90.7818 502.447 91.4959 500.749 91.1991 498.831C90.9013 496.912 89.7012 495.503 88.5211 495.681C87.3389 495.859 86.6237 497.562 86.9215 499.479Z" fill="white"/>
<path d="M81.9207 489.03C82.4013 486.775 83.1289 484.332 84.6247 482.523C85.6464 481.288 87.7822 479.965 89.0336 481.665C90.4856 483.639 90.2818 486.943 90.5867 489.251C90.7754 490.679 91.0527 491.967 91.9306 493.138C92.5512 493.966 93.3691 494.562 94.0929 495.288C95.8568 497.054 96.225 499.795 96.245 502.188C96.2671 504.816 95.6514 507.81 93.6734 509.693C91.9879 511.298 89.511 511.564 87.5033 510.416C83.1965 507.953 81.7288 501.597 81.352 497.063C81.1288 494.39 81.3628 491.651 81.9207 489.03V489.03ZM54.7242 538.538C54.9923 540.324 55.5864 542.019 56.6454 543.492C57.4071 544.551 58.6028 546.164 60.0872 545.683C62.8539 544.786 64.0356 541.645 64.9973 539.196C66.4574 535.476 67.278 531.691 68.0197 527.779C68.3581 525.992 68.5646 524.112 69.4095 522.478C70.2545 520.845 71.5005 519.442 72.6865 518.052C75.0521 515.28 78.2799 512.2 79.1713 508.543C79.2816 508.092 79.42 506.782 80.0514 506.849C80.5671 506.904 80.4174 507.851 80.3492 508.267C80.2817 508.677 79.9422 509.411 80.0038 509.791C80.0633 510.155 80.3838 510.216 80.799 510.353C81.6088 510.623 82.4213 510.885 83.237 511.135C86.3551 512.088 90.2981 513.43 93.3815 511.616C96.2244 509.944 97.3872 506.448 97.5808 503.325C97.7624 500.393 97.3888 496.805 95.2892 494.561C94.3946 493.605 93.2772 492.893 92.6312 491.717C91.8755 490.341 91.8814 488.56 91.7176 487.035C91.4495 484.533 91.2079 479.775 87.833 479.507C86.6508 479.413 85.3101 479.928 84.2171 480.313C82.3213 480.982 80.5006 481.881 78.8324 483.004C73.5752 486.545 70.5772 492.506 69.5447 498.668C69.0987 501.329 69.6101 504.073 69.0236 506.707C68.7003 508.159 68.0851 509.599 66.9212 510.577C65.6801 511.621 63.6826 511.63 62.8274 513.099C62.0106 514.503 62.1755 516.351 61.9614 517.911C61.6825 519.945 61.2981 521.965 60.7489 523.944C59.7056 527.705 57.7022 530.65 55.4161 533.758C54.3798 535.168 54.4766 536.888 54.7242 538.538" fill="white"/>
<path d="M130.939 449.967C130.136 451.295 128.992 452.984 127.22 452.249C125.96 451.727 125.42 450.169 125.061 448.953C124.596 447.382 125.074 446.123 124.047 444.696C122.897 443.101 121.385 443.619 119.587 443.885C118.792 444.003 118.439 443.65 117.763 443.074C117.1 442.511 116.2 441.788 115.472 441.3C114.698 440.781 113.589 439.931 112.673 440.805C111.87 441.571 111.753 442.831 112.04 443.697C112.421 444.853 112.926 446.661 113.506 447.737C111.789 448.229 111.436 449.846 111.104 451.266C110.605 453.401 110.1 455.536 109.531 457.655C108.516 461.431 107.326 465.352 105.012 468.617C100.913 465.87 99.779 461.245 100.991 456.735C101.757 453.886 103.448 451.328 103.852 448.383C104.16 446.127 103.918 443.847 104.921 441.716C106.963 437.374 112.135 434.128 117 433.476C121.278 432.902 125.742 434.213 128.769 437.185C132.206 440.56 133.459 445.804 130.939 449.967Z" fill="white"/>
<path fill-rule="evenodd" clip-rule="evenodd" d="M102.365 473.52C101.653 474.039 100.951 474.551 100.337 475.23C95.5665 480.507 96.3114 488.697 97.6505 495.118C98.3208 498.332 99.3052 501.818 101.824 504.103C102.634 504.837 104.549 506.111 105.721 505.422C106.061 505.221 105.988 504.973 105.893 504.655C105.858 504.538 105.821 504.411 105.8 504.274C105.694 503.575 105.637 502.854 105.673 502.147C105.695 501.7 105.834 499.801 106.271 499.801C106.625 499.801 106.712 500.9 106.719 501.317C106.742 502.686 106.892 504.385 107.534 505.606C108.94 508.28 112.206 506.56 113.664 504.913C114.57 503.889 115.164 502.722 115.773 501.524C115.838 501.397 115.903 501.269 115.968 501.141C115.984 501.11 116 501.08 116.015 501.05C116.371 500.357 116.468 500.168 116.31 499.354C116.179 498.68 116.029 498.007 115.866 497.339C115.68 496.577 115.085 493.814 115.58 493.443C115.956 493.161 116.507 494.414 116.738 495.073C116.989 495.795 117.136 496.593 117.279 497.373C117.343 497.718 117.405 498.059 117.476 498.389C117.808 499.932 118.15 501.538 117.844 503.111C117.714 503.782 117.474 504.435 117.233 505.089C116.921 505.938 116.609 506.787 116.538 507.675C116.428 509.042 117.158 510.317 117.818 511.458C118.855 513.251 120.924 516.109 122.956 513.707C124.87 511.445 125.484 507.754 125.542 504.911C125.614 501.406 125.188 497.892 124.622 494.439C124.539 493.935 124.459 493.427 124.378 492.916C123.917 490.007 123.443 487.013 122.491 484.255C121.713 482 119.819 478.83 116.975 479.194C114.53 479.506 113.133 482.495 112.184 484.526C112.142 484.616 112.1 484.705 112.06 484.791C112.038 484.837 111.951 485.064 111.822 485.4C111.267 486.843 109.937 490.306 109.67 490.174C109.097 489.89 110.1 486.953 110.429 485.99C110.467 485.878 110.497 485.792 110.513 485.741C111.887 481.451 115.458 475.181 120.652 479.123C119.138 474.542 119.406 469.541 120.386 464.88C120.423 464.704 120.494 464.496 120.568 464.282C120.682 463.95 120.802 463.602 120.811 463.327C120.824 462.907 120.654 462.738 120.386 462.475C120.312 462.401 120.23 462.32 120.142 462.225C119.473 461.494 118.887 460.715 118.321 459.904C118.3 459.875 118.271 459.836 118.236 459.788C117.917 459.357 117.095 458.247 117.819 458.066C118.248 457.959 118.91 458.743 119.29 459.193C119.371 459.289 119.44 459.37 119.49 459.424C121.765 461.845 124.389 464.305 127.5 465.61C130.249 466.762 134.52 466.123 134.278 462.296C134.186 460.841 133.657 459.336 133.161 457.927C133.067 457.659 132.974 457.394 132.885 457.134C132.181 455.066 131.329 453.05 130.386 451.079C129.654 452.361 128.814 453.752 127.145 453.094C125.945 452.621 125.109 451.409 124.773 450.199C124.617 449.639 124.57 449.07 124.524 448.504C124.455 447.668 124.387 446.839 123.97 446.052C123.251 444.692 122.008 444.138 120.494 444.23C120.275 444.243 120.026 444.315 119.774 444.388C119.389 444.5 118.995 444.614 118.682 444.527C118.417 444.454 118.154 444.144 117.921 443.869C117.813 443.742 117.712 443.622 117.619 443.537C116.619 442.615 115.291 441.546 113.956 441.177C110.707 440.279 113.767 446.928 114.299 447.965C112.674 448.454 112.246 450.793 111.938 452.479C111.881 452.788 111.828 453.076 111.773 453.326C111.145 456.17 110.515 459.02 109.636 461.8C108.762 464.565 107.658 467.275 105.976 469.654C105.943 469.701 105.909 469.749 105.875 469.798C105.149 470.827 104.316 472.006 103.341 472.785C103.018 473.043 102.69 473.282 102.365 473.52ZM119.819 454.136C119.581 452.972 120.139 451.611 121.526 451.592C122.186 451.589 123.86 452.348 123.878 452.971C123.89 453.375 123.331 453.162 122.789 452.955C122.494 452.843 122.204 452.732 122.014 452.724C121.761 452.713 121.572 452.71 121.362 452.846C120.861 453.171 120.834 453.983 120.812 454.621C120.796 455.087 120.784 455.46 120.592 455.48C120.136 455.527 119.913 454.598 119.819 454.136Z" fill="white"/>
<path d="M129.584 448.383C130.21 448.279 130.868 447.577 131.328 447.181C131.806 446.771 132.261 446.335 132.719 445.904C133.686 444.989 134.643 444.065 135.579 443.121C137.443 441.24 139.4 439.319 141.012 437.22C141.147 437.04 141.973 436.142 141.772 435.862C141.541 435.543 140.328 436.208 140.089 436.324C138.83 436.95 137.628 437.74 136.422 438.462C133.841 440.002 131.263 441.611 128.846 443.397C127.803 444.166 126.398 444.954 127.052 446.398C127.458 447.292 128.451 448.551 129.584 448.383" fill="white"/>
<path d="M28.1842 359.887C30.5682 360.331 32.528 361.523 34.0635 363.463C35.599 365.402 36.3667 367.625 36.3667 370.13C36.3667 372.393 35.801 374.393 34.6696 376.13C33.5786 377.828 31.9825 379.161 29.8813 380.131C27.7801 381.101 25.2951 381.585 22.4261 381.585H4.18217V339.279H21.6382C24.5071 339.279 26.972 339.744 29.0328 340.673C31.1339 341.602 32.7098 342.895 33.7604 344.552C34.8514 346.209 35.3969 348.088 35.3969 350.189C35.3969 352.654 34.7302 354.714 33.3968 356.371C32.1037 358.028 30.3662 359.2 28.1842 359.887ZM12.6677 356.735H20.426C22.4463 356.735 24.002 356.29 25.093 355.401C26.184 354.472 26.7295 353.159 26.7295 351.462C26.7295 349.765 26.184 348.451 25.093 347.522C24.002 346.593 22.4463 346.128 20.426 346.128H12.6677V356.735ZM21.2139 374.676C23.2747 374.676 24.8708 374.191 26.0022 373.221C27.174 372.251 27.7599 370.877 27.7599 369.1C27.7599 367.281 27.1538 365.867 25.9416 364.857C24.7294 363.806 23.0929 363.281 21.0321 363.281H12.6677V374.676H21.2139ZM51.6152 336.733V381.585H43.1296V336.733H51.6152ZM91.6986 348.007V381.585H83.1524V377.343C82.0614 378.797 80.6269 379.949 78.849 380.798C77.1115 381.606 75.2123 382.01 73.1515 382.01C70.5251 382.01 68.2016 381.464 66.1813 380.373C64.1609 379.242 62.5648 377.605 61.393 375.464C60.2616 373.282 59.6959 370.696 59.6959 367.705V348.007H68.1814V366.493C68.1814 369.16 68.8482 371.221 70.1816 372.676C71.515 374.09 73.3334 374.797 75.6366 374.797C77.9802 374.797 79.8188 374.09 81.1522 372.676C82.4857 371.221 83.1524 369.16 83.1524 366.493V348.007H91.6986ZM112.921 382.131C110.173 382.131 107.708 381.646 105.526 380.676C103.344 379.666 101.606 378.312 100.313 376.615C99.0608 374.918 98.3739 373.039 98.2526 370.978H106.799C106.96 372.272 107.587 373.342 108.678 374.191C109.809 375.039 111.203 375.464 112.86 375.464C114.476 375.464 115.729 375.14 116.618 374.494C117.547 373.847 118.012 373.019 118.012 372.009C118.012 370.918 117.446 370.11 116.315 369.584C115.224 369.019 113.466 368.413 111.042 367.766C108.536 367.16 106.476 366.534 104.859 365.887C103.283 365.241 101.91 364.251 100.738 362.917C99.6063 361.584 99.0406 359.786 99.0406 357.523C99.0406 355.664 99.5659 353.967 100.616 352.431C101.707 350.896 103.243 349.684 105.223 348.795C107.243 347.906 109.607 347.461 112.314 347.461C116.315 347.461 119.507 348.472 121.891 350.492C124.275 352.472 125.588 355.159 125.831 358.553H117.709C117.588 357.22 117.022 356.169 116.012 355.401C115.042 354.593 113.729 354.189 112.072 354.189C110.536 354.189 109.344 354.472 108.496 355.038C107.688 355.603 107.284 356.391 107.284 357.402C107.284 358.533 107.849 359.402 108.981 360.008C110.112 360.574 111.87 361.159 114.254 361.766C116.678 362.372 118.679 362.998 120.254 363.645C121.83 364.291 123.184 365.301 124.315 366.675C125.487 368.009 126.093 369.786 126.134 372.009C126.134 373.948 125.588 375.686 124.497 377.221C123.447 378.757 121.911 379.969 119.891 380.858C117.911 381.707 115.587 382.131 112.921 382.131ZM152.01 347.522C154.556 347.522 156.818 348.088 158.798 349.219C160.778 350.31 162.314 351.947 163.405 354.129C164.536 356.27 165.102 358.856 165.102 361.887V381.585H156.616V363.038C156.616 360.372 155.95 358.331 154.616 356.917C153.283 355.462 151.465 354.735 149.161 354.735C146.818 354.735 144.959 355.462 143.585 356.917C142.252 358.331 141.585 360.372 141.585 363.038V381.585H133.099V336.733H141.585V352.189C142.676 350.734 144.131 349.603 145.949 348.795C147.767 347.946 149.788 347.522 152.01 347.522ZM192.082 347.522C194.628 347.522 196.891 348.088 198.871 349.219C200.85 350.31 202.386 351.947 203.477 354.129C204.608 356.27 205.174 358.856 205.174 361.887V381.585H196.689V363.038C196.689 360.372 196.022 358.331 194.688 356.917C193.355 355.462 191.537 354.735 189.233 354.735C186.89 354.735 185.031 355.462 183.657 356.917C182.324 358.331 181.657 360.372 181.657 363.038V381.585H173.171V336.733H181.657V352.189C182.748 350.734 184.203 349.603 186.021 348.795C187.839 347.946 189.86 347.522 192.082 347.522Z" fill="white"/>
<path d="M421.602 629.433L420.959 629.696C417.117 630.977 411.361 632.893 406.358 635.327C406.095 635.452 405.848 635.835 405.848 635.835C405.713 636.089 405.576 636.352 405.468 636.608C404.932 637.886 404.06 639.812 403.797 640.702L403.553 641.355V641.601L403.662 641.737H403.797L404.415 641.483C405.848 640.829 407.629 639.812 409.435 638.921H409.554C412.86 637.38 416.147 635.801 419.416 634.182C419.416 634.182 419.795 633.929 420.06 633.547L421.849 629.951V629.697C421.849 629.433 421.712 629.316 421.603 629.433H421.602ZM407.257 623.804C407.52 623.287 408.655 621.108 408.927 620.598V620.471C416.735 605.745 426.225 591.91 437.084 579.226L437.356 578.839C437.494 578.708 437.494 578.582 437.356 578.457C437.221 578.327 437.084 578.196 436.975 578.327H436.467C429.275 579.357 421.984 580.636 414.82 582.426C414.039 582.684 413.659 583.072 413.522 583.189C408.146 589.6 403.144 596.386 398.393 603.31C398.549 603.692 398.549 604.462 398.549 604.462C398.549 604.462 399.684 613.426 401.364 620.09C397.259 632.258 393.418 648.393 393.418 648.393V648.656C393.418 648.783 393.555 648.783 393.663 648.783H396.098C396.226 648.783 396.361 648.657 396.497 648.529L396.606 648.012C399.04 641.355 401.873 634.691 404.933 628.28C405.713 626.864 407.257 623.804 407.257 623.804" fill="white"/>
<path d="M440.818 581.918V581.405C440.818 581.273 440.679 581.141 440.571 581.022C440.436 581.022 440.299 581.022 440.171 581.141L439.918 581.527C427.088 596.26 416.472 612.653 408.038 630.207L407.765 630.586V630.977C407.873 631.095 407.873 631.095 408.038 631.095H408.146L408.528 630.977C415.692 628.027 423.011 625.466 430.302 623.287C430.683 623.159 431.082 622.905 431.328 622.524C434.543 616.376 441.951 604.332 441.951 604.332C442.224 603.945 442.106 603.561 442.106 603.561C442.106 603.561 440.818 589.212 440.818 581.918" fill="white"/>
<path d="M457.216 561.165C455.435 559.621 452.71 558.854 448.626 558.732C445.058 558.6 440.68 559.499 435.686 561.033C434.923 561.297 434.406 561.678 433.763 562.182C428.649 566.927 423.791 572.053 419.17 577.177L418.771 577.559C418.653 577.691 418.653 577.813 418.771 577.944C418.897 578.073 419.033 578.195 419.17 578.073L419.679 577.944C427.251 576.279 434.787 575.125 442.224 574.35C442.733 574.35 443.25 574.481 443.622 574.735C444.032 575.125 444.139 575.512 444.139 576.016C444.032 583.452 444.276 590.879 444.903 598.052V598.564C444.903 598.689 445.058 598.821 445.165 598.821H445.303C445.438 598.821 445.547 598.821 445.547 598.689L445.811 598.307C450.032 592.292 454.52 586.521 459.385 581.022C459.893 580.378 460.03 579.992 460.166 579.475C461.683 570.123 459.385 562.959 457.216 561.165V561.165ZM510.888 598.584C508.453 596.157 505.931 595.378 502.653 595.378C498.674 595.378 494.907 597.127 493.036 599.982V595.795H488.016V630.105H493.036V609.047C493.036 603.815 496.223 599.843 501.244 599.843C503.895 599.843 505.304 600.467 507.182 602.352L510.888 598.584ZM537.838 612.953C537.838 607.651 537.147 602.838 533.643 599.284C531.281 596.914 528.002 595.379 523.808 595.379C519.632 595.379 516.354 596.914 513.984 599.283C510.505 602.837 509.816 607.65 509.816 612.952C509.816 618.255 510.505 623.058 513.983 626.618C516.354 628.987 519.633 630.523 523.807 630.523C528.002 630.523 531.281 628.988 533.643 626.618C537.147 623.059 537.838 618.255 537.838 612.953ZM532.816 612.953C532.816 616.786 532.597 621.034 530.1 623.551C528.494 625.156 526.259 626.064 523.808 626.064C521.376 626.064 519.205 625.156 517.625 623.551C515.1 621.034 514.838 616.786 514.838 612.953C514.838 609.113 515.1 604.864 517.625 602.352C519.204 600.744 521.376 599.842 523.808 599.842C526.259 599.842 528.494 600.744 530.1 602.352C532.597 604.864 532.817 609.113 532.817 612.953H532.816ZM572.45 612.953C572.45 607.578 571.761 601.862 568.282 598.385C566.474 596.573 563.389 595.379 559.911 595.379C556.143 595.379 552.993 596.214 550.203 599.77V580.465H545.182V630.105H550.203V625.992C552.993 629.614 556.143 630.523 559.911 630.523C563.389 630.523 566.474 629.333 568.282 627.518C571.761 624.04 572.45 618.318 572.45 612.953V612.953ZM567.429 612.953C567.429 619.645 566.312 626.064 558.858 626.064C551.412 626.064 550.203 619.645 550.203 612.953C550.203 606.258 551.412 599.843 558.858 599.843C566.312 599.843 567.429 606.258 567.429 612.953V612.953ZM584.835 630.105V595.795H579.814V630.105H584.835ZM585.173 586.036V580.392H579.552V586.036H585.173ZM621.075 630.105V608.14C621.075 604.163 619.956 600.955 617.504 598.584C615.408 596.49 612.421 595.378 608.716 595.378C604.903 595.378 601.551 596.773 599.099 599.562V595.795H594.079V630.105H599.099V608.975C599.099 602.979 602.442 599.843 607.599 599.843C612.775 599.843 616.054 602.906 616.054 608.975V630.105H621.075ZM656.868 630.105V608.067C656.868 600.327 652.273 595.379 644.527 595.379C640.695 595.379 637.408 596.71 634.912 599.561V580.465H629.889V630.105H634.912V608.904C634.912 602.979 638.324 599.842 643.484 599.842C648.632 599.842 651.845 602.906 651.845 608.904V630.105H656.868ZM691.926 612.953C691.926 607.651 691.218 602.838 687.732 599.284C685.342 596.914 682.082 595.379 677.888 595.379C673.721 595.379 670.435 596.914 668.054 599.283C664.595 602.837 663.877 607.65 663.877 612.952C663.877 618.255 664.595 623.058 668.054 626.618C670.435 628.987 673.721 630.523 677.888 630.523C682.082 630.523 685.342 628.988 687.732 626.618C691.218 623.059 691.926 618.255 691.926 612.953ZM686.905 612.953C686.905 616.786 686.687 621.034 684.181 623.551C682.555 625.156 680.321 626.064 677.888 626.064C675.453 626.064 673.294 625.156 671.685 623.551C669.162 621.034 668.899 616.786 668.899 612.953C668.899 609.113 669.162 604.864 671.685 602.352C673.294 600.744 675.453 599.842 677.888 599.842C680.321 599.842 682.555 600.744 684.181 602.352C686.687 604.864 686.905 609.113 686.905 612.953ZM725.485 612.953C725.485 607.651 724.795 602.838 721.292 599.284C718.947 596.914 715.671 595.379 711.476 595.379C707.298 595.379 704.002 596.914 701.661 599.283C698.154 602.837 697.465 607.65 697.465 612.952C697.465 618.255 698.154 623.058 701.661 626.618C704.003 628.987 707.298 630.523 711.476 630.523C715.672 630.523 718.947 628.988 721.292 626.618C724.795 623.059 725.484 618.255 725.484 612.953H725.485ZM720.464 612.953C720.464 616.786 720.265 621.034 717.749 623.551C716.161 625.156 713.925 626.064 711.476 626.064C709.024 626.064 706.879 625.156 705.274 623.551C702.777 621.034 702.484 616.786 702.484 612.953C702.484 609.113 702.777 604.864 705.274 602.352C706.88 600.744 709.024 599.842 711.476 599.842C713.925 599.842 716.161 600.744 717.749 602.352C720.265 604.864 720.464 609.113 720.464 612.953ZM758.319 630.105V580.465H753.298V599.77C750.5 596.214 747.358 595.379 743.59 595.379C740.105 595.379 737.027 596.573 735.219 598.385C731.731 601.863 731.042 607.579 731.042 612.953C731.042 618.318 731.732 624.04 735.219 627.518C737.027 629.333 740.105 630.523 743.59 630.523C747.358 630.523 750.573 629.614 753.362 625.992V630.105H758.319ZM753.298 612.953C753.298 619.645 752.182 626.064 744.699 626.064C737.225 626.064 736.064 619.645 736.064 612.953C736.064 606.258 737.226 599.843 744.699 599.843C752.182 599.843 753.298 606.258 753.298 612.953Z" fill="white"/>
<path d="M381.235 76.6292C382.487 76.8269 383.624 77.3376 384.646 78.1614C385.7 78.9851 386.524 80.0066 387.117 81.2257C387.743 82.4449 388.056 83.7464 388.056 85.1303C388.056 86.8767 387.611 88.4583 386.721 89.8751C385.832 91.259 384.53 92.3629 382.817 93.1866C381.136 93.9774 379.143 94.3728 376.836 94.3728H363.986V59.9236H376.342C378.682 59.9236 380.675 60.319 382.323 61.1098C383.97 61.8676 385.206 62.9055 386.029 64.2235C386.853 65.5415 387.265 67.0243 387.265 68.6718C387.265 70.7147 386.705 72.4116 385.585 73.7626C384.497 75.0806 383.047 76.0361 381.235 76.6292ZM368.484 74.8005H376.046C378.154 74.8005 379.785 74.3062 380.939 73.3177C382.092 72.3292 382.669 70.9618 382.669 69.2155C382.669 67.4691 382.092 66.1017 380.939 65.1132C379.785 64.1247 378.121 63.6304 375.947 63.6304H368.484V74.8005ZM376.441 90.6659C378.682 90.6659 380.428 90.1387 381.68 89.0843C382.932 88.0299 383.558 86.5636 383.558 84.6855C383.558 82.7744 382.899 81.2752 381.581 80.1878C380.263 79.0675 378.5 78.5074 376.293 78.5074H368.484V90.6659H376.441ZM418.318 67.2879V94.3728H413.82V90.3694C412.964 91.7533 411.761 92.8406 410.212 93.6314C408.697 94.3893 407.016 94.7682 405.171 94.7682C403.062 94.7682 401.167 94.3399 399.487 93.4832C397.807 92.5935 396.472 91.2755 395.484 89.5291C394.528 87.7828 394.05 85.6575 394.05 83.1533V67.2879H398.498V82.5602C398.498 85.2292 399.174 87.2885 400.525 88.7383C401.876 90.1552 403.721 90.8636 406.061 90.8636C408.466 90.8636 410.36 90.1223 411.744 88.6395C413.128 87.1567 413.82 84.9985 413.82 82.1648V67.2879H418.318ZM458.483 66.7936C460.592 66.7936 462.47 67.2385 464.118 68.1281C465.765 68.9848 467.067 70.2863 468.022 72.0327C468.978 73.779 469.455 75.9043 469.455 78.4085V94.3728H465.007V79.051C465.007 76.3491 464.332 74.2898 462.981 72.8729C461.663 71.4231 459.867 70.6982 457.593 70.6982C455.254 70.6982 453.392 71.4561 452.008 72.9718C450.625 74.4545 449.933 76.6127 449.933 79.4464V94.3728H445.484V79.051C445.484 76.3491 444.809 74.2898 443.458 72.8729C442.14 71.4231 440.344 70.6982 438.071 70.6982C435.731 70.6982 433.869 71.4561 432.486 72.9718C431.102 74.4545 430.41 76.6127 430.41 79.4464V94.3728H425.912V67.2879H430.41V71.1925C431.299 69.7756 432.486 68.6883 433.968 67.9304C435.484 67.1726 437.148 66.7936 438.96 66.7936C441.234 66.7936 443.244 67.3044 444.99 68.3258C446.736 69.3473 448.038 70.8465 448.895 72.8235C449.652 70.9124 450.905 69.4296 452.651 68.3752C454.397 67.3208 456.341 66.7936 458.483 66.7936ZM481.331 72.3292C482.254 70.7147 483.605 69.3967 485.384 68.3752C487.163 67.3538 489.19 66.8431 491.463 66.8431C493.901 66.8431 496.093 67.4197 498.037 68.5729C499.981 69.7262 501.513 71.3572 502.633 73.466C503.753 75.5419 504.314 77.9637 504.314 80.7315C504.314 83.4663 503.753 85.9046 502.633 88.0464C501.513 90.1882 499.964 91.8521 497.987 93.0383C496.043 94.2245 493.868 94.8176 491.463 94.8176C489.124 94.8176 487.064 94.3069 485.285 93.2855C483.539 92.264 482.221 90.9625 481.331 89.3809V94.3728H476.833V57.7983H481.331V72.3292ZM499.717 80.7315C499.717 78.6886 499.305 76.9093 498.481 75.3936C497.658 73.8779 496.537 72.7246 495.121 71.9338C493.737 71.143 492.204 70.7476 490.524 70.7476C488.877 70.7476 487.344 71.1595 485.927 71.9833C484.544 72.7741 483.423 73.9438 482.567 75.4924C481.743 77.0081 481.331 78.771 481.331 80.7809C481.331 82.8238 481.743 84.6196 482.567 86.1682C483.423 87.6839 484.544 88.8537 485.927 89.6774C487.344 90.4682 488.877 90.8636 490.524 90.8636C492.204 90.8636 493.737 90.4682 495.121 89.6774C496.537 88.8537 497.658 87.6839 498.481 86.1682C499.305 84.6196 499.717 82.8073 499.717 80.7315ZM514.731 57.7983V94.3728H510.234V57.7983H514.731ZM547.11 79.7924C547.11 80.6491 547.06 81.5552 546.961 82.5108H525.313C525.478 85.1797 526.384 87.2721 528.031 88.7878C529.712 90.2705 531.738 91.0119 534.111 91.0119C536.055 91.0119 537.669 90.5671 538.954 89.6774C540.272 88.7548 541.195 87.5357 541.722 86.02H546.566C545.841 88.623 544.391 90.7483 542.216 92.3958C540.042 94.0104 537.34 94.8176 534.111 94.8176C531.541 94.8176 529.234 94.241 527.191 93.0878C525.181 91.9345 523.6 90.3035 522.446 88.1947C521.293 86.0529 520.717 83.5817 520.717 80.7809C520.717 77.9802 521.277 75.5254 522.397 73.4166C523.517 71.3078 525.082 69.6932 527.092 68.5729C529.135 67.4197 531.475 66.8431 534.111 66.8431C536.681 66.8431 538.954 67.4032 540.931 68.5235C542.908 69.6438 544.424 71.1925 545.478 73.1695C546.566 75.1135 547.11 77.3212 547.11 79.7924ZM542.464 78.8533C542.464 77.1399 542.085 75.6737 541.327 74.4545C540.569 73.2024 539.531 72.2633 538.213 71.6373C536.928 70.9783 535.495 70.6488 533.913 70.6488C531.639 70.6488 529.695 71.3737 528.081 72.8235C526.499 74.2733 525.593 76.2832 525.362 78.8533H542.464ZM557.544 72.3292C558.467 70.7147 559.818 69.3967 561.597 68.3752C563.376 67.3538 565.403 66.8431 567.676 66.8431C570.114 66.8431 572.306 67.4197 574.25 68.5729C576.194 69.7262 577.726 71.3572 578.846 73.466C579.966 75.5419 580.527 77.9637 580.527 80.7315C580.527 83.4663 579.966 85.9046 578.846 88.0464C577.726 90.1882 576.177 91.8521 574.2 93.0383C572.256 94.2245 570.081 94.8176 567.676 94.8176C565.337 94.8176 563.277 94.3069 561.498 93.2855C559.752 92.264 558.434 90.9625 557.544 89.3809V94.3728H553.046V57.7983H557.544V72.3292ZM575.93 80.7315C575.93 78.6886 575.518 76.9093 574.694 75.3936C573.871 73.8779 572.75 72.7246 571.334 71.9338C569.95 71.143 568.417 70.7476 566.737 70.7476C565.09 70.7476 563.557 71.1595 562.141 71.9833C560.757 72.7741 559.636 73.9438 558.78 75.4924C557.956 77.0081 557.544 78.771 557.544 80.7809C557.544 82.8238 557.956 84.6196 558.78 86.1682C559.636 87.6839 560.757 88.8537 562.141 89.6774C563.557 90.4682 565.09 90.8636 566.737 90.8636C568.417 90.8636 569.95 90.4682 571.334 89.6774C572.75 88.8537 573.871 87.6839 574.694 86.1682C575.518 84.6196 575.93 82.8073 575.93 80.7315ZM611.159 79.7924C611.159 80.6491 611.11 81.5552 611.011 82.5108H589.363C589.528 85.1797 590.434 87.2721 592.081 88.7878C593.762 90.2705 595.788 91.0119 598.161 91.0119C600.105 91.0119 601.719 90.5671 603.004 89.6774C604.322 88.7548 605.245 87.5357 605.772 86.02H610.616C609.891 88.623 608.441 90.7483 606.266 92.3958C604.092 94.0104 601.39 94.8176 598.161 94.8176C595.59 94.8176 593.284 94.241 591.241 93.0878C589.231 91.9345 587.649 90.3035 586.496 88.1947C585.343 86.0529 584.766 83.5817 584.766 80.7809C584.766 77.9802 585.327 75.5254 586.447 73.4166C587.567 71.3078 589.132 69.6932 591.142 68.5729C593.185 67.4197 595.525 66.8431 598.161 66.8431C600.731 66.8431 603.004 67.4032 604.981 68.5235C606.958 69.6438 608.474 71.1925 609.528 73.1695C610.616 75.1135 611.159 77.3212 611.159 79.7924ZM606.513 78.8533C606.513 77.1399 606.134 75.6737 605.377 74.4545C604.619 73.2024 603.581 72.2633 602.263 71.6373C600.978 70.9783 599.544 70.6488 597.963 70.6488C595.689 70.6488 593.745 71.3737 592.131 72.8235C590.549 74.2733 589.643 76.2832 589.412 78.8533H606.513ZM641.809 79.7924C641.809 80.6491 641.759 81.5552 641.66 82.5108H620.012C620.177 85.1797 621.083 87.2721 622.731 88.7878C624.411 90.2705 626.437 91.0119 628.81 91.0119C630.754 91.0119 632.368 90.5671 633.654 89.6774C634.972 88.7548 635.894 87.5357 636.421 86.02H641.265C640.54 88.623 639.09 90.7483 636.916 92.3958C634.741 94.0104 632.039 94.8176 628.81 94.8176C626.24 94.8176 623.933 94.241 621.89 93.0878C619.88 91.9345 618.299 90.3035 617.146 88.1947C615.992 86.0529 615.416 83.5817 615.416 80.7809C615.416 77.9802 615.976 75.5254 617.096 73.4166C618.216 71.3078 619.782 69.6932 621.791 68.5729C623.834 67.4197 626.174 66.8431 628.81 66.8431C631.38 66.8431 633.654 67.4032 635.631 68.5235C637.608 69.6438 639.123 71.1925 640.178 73.1695C641.265 75.1135 641.809 77.3212 641.809 79.7924ZM637.163 78.8533C637.163 77.1399 636.784 75.6737 636.026 74.4545C635.268 73.2024 634.23 72.2633 632.912 71.6373C631.627 70.9783 630.194 70.6488 628.612 70.6488C626.339 70.6488 624.395 71.3737 622.78 72.8235C621.198 74.2733 620.292 76.2832 620.062 78.8533H637.163ZM670.511 94.8176C668.435 94.8176 666.573 94.4717 664.926 93.7797C663.278 93.0548 661.977 92.0663 661.021 90.8142C660.066 89.5291 659.538 88.0629 659.439 86.4154H664.085C664.217 87.7663 664.843 88.8701 665.964 89.7268C667.117 90.5836 668.616 91.0119 670.461 91.0119C672.175 91.0119 673.526 90.633 674.514 89.8751C675.503 89.1173 675.997 88.1617 675.997 87.0085C675.997 85.8223 675.47 84.9491 674.415 84.3889C673.361 83.7958 671.73 83.2192 669.522 82.6591C667.512 82.1319 665.865 81.6047 664.58 81.0775C663.328 80.5173 662.24 79.71 661.318 78.6556C660.428 77.5683 659.983 76.1514 659.983 74.4051C659.983 73.0212 660.395 71.7526 661.219 70.5994C662.043 69.4461 663.212 68.54 664.728 67.881C666.244 67.189 667.974 66.8431 669.918 66.8431C672.916 66.8431 675.338 67.6009 677.183 69.1166C679.028 70.6323 680.017 72.7082 680.149 75.3442H675.651C675.552 73.9273 674.975 72.7905 673.921 71.9338C672.9 71.0771 671.516 70.6488 669.769 70.6488C668.155 70.6488 666.87 70.9948 665.914 71.6867C664.959 72.3787 664.481 73.2848 664.481 74.4051C664.481 75.2947 664.761 76.0361 665.321 76.6292C665.914 77.1894 666.639 77.6507 667.496 78.0131C668.385 78.3426 669.605 78.7215 671.153 79.1499C673.097 79.6771 674.679 80.2043 675.898 80.7315C677.117 81.2257 678.155 81.9836 679.012 83.005C679.901 84.0265 680.363 85.361 680.396 87.0085C680.396 88.4912 679.984 89.8257 679.16 91.0119C678.336 92.1981 677.167 93.1372 675.651 93.8291C674.168 94.4881 672.455 94.8176 670.511 94.8176ZM691.243 72.2798C692.132 70.7312 693.45 69.4461 695.197 68.4247C696.976 67.3703 699.035 66.8431 701.375 66.8431C703.78 66.8431 705.955 67.4197 707.899 68.5729C709.876 69.7262 711.424 71.3572 712.545 73.466C713.665 75.5419 714.225 77.9637 714.225 80.7315C714.225 83.4663 713.665 85.9046 712.545 88.0464C711.424 90.1882 709.876 91.8521 707.899 93.0383C705.955 94.2245 703.78 94.8176 701.375 94.8176C699.068 94.8176 697.025 94.3069 695.246 93.2855C693.5 92.2311 692.165 90.9295 691.243 89.3809V107.223H686.745V67.2879H691.243V72.2798ZM709.629 80.7315C709.629 78.6886 709.217 76.9093 708.393 75.3936C707.569 73.8779 706.449 72.7246 705.032 71.9338C703.648 71.143 702.116 70.7476 700.436 70.7476C698.788 70.7476 697.256 71.1595 695.839 71.9833C694.455 72.7741 693.335 73.9438 692.478 75.4924C691.654 77.0081 691.243 78.771 691.243 80.7809C691.243 82.8238 691.654 84.6196 692.478 86.1682C693.335 87.6839 694.455 88.8537 695.839 89.6774C697.256 90.4682 698.788 90.8636 700.436 90.8636C702.116 90.8636 703.648 90.4682 705.032 89.6774C706.449 88.8537 707.569 87.6839 708.393 86.1682C709.217 84.6196 709.629 82.8073 709.629 80.7315ZM718.465 80.7315C718.465 77.9637 719.025 75.5419 720.145 73.466C721.266 71.3572 722.798 69.7262 724.742 68.5729C726.719 67.4197 728.91 66.8431 731.315 66.8431C733.688 66.8431 735.747 67.3538 737.494 68.3752C739.24 69.3967 740.541 70.6817 741.398 72.2304V67.2879H745.945V94.3728H741.398V89.3314C740.509 90.9131 739.174 92.2311 737.395 93.2855C735.648 94.3069 733.605 94.8176 731.266 94.8176C728.861 94.8176 726.686 94.2245 724.742 93.0383C722.798 91.8521 721.266 90.1882 720.145 88.0464C719.025 85.9046 718.465 83.4663 718.465 80.7315ZM741.398 80.7809C741.398 78.738 740.986 76.9587 740.163 75.443C739.339 73.9273 738.218 72.7741 736.802 71.9833C735.418 71.1595 733.886 70.7476 732.205 70.7476C730.525 70.7476 728.992 71.143 727.609 71.9338C726.225 72.7246 725.121 73.8779 724.297 75.3936C723.473 76.9093 723.061 78.6886 723.061 80.7315C723.061 82.8073 723.473 84.6196 724.297 86.1682C725.121 87.6839 726.225 88.8537 727.609 89.6774C728.992 90.4682 730.525 90.8636 732.205 90.8636C733.886 90.8636 735.418 90.4682 736.802 89.6774C738.218 88.8537 739.339 87.6839 740.163 86.1682C740.986 84.6196 741.398 82.8238 741.398 80.7809ZM751.865 80.7809C751.865 77.9802 752.426 75.5419 753.546 73.466C754.666 71.3572 756.215 69.7262 758.192 68.5729C760.202 67.4197 762.492 66.8431 765.062 66.8431C768.39 66.8431 771.125 67.6503 773.266 69.2649C775.441 70.8794 776.874 73.12 777.566 75.9867H772.723C772.261 74.3392 771.355 73.0377 770.004 72.0821C768.686 71.1266 767.039 70.6488 765.062 70.6488C762.492 70.6488 760.416 71.5384 758.834 73.3177C757.253 75.0641 756.462 77.5518 756.462 80.7809C756.462 84.043 757.253 86.5636 758.834 88.3429C760.416 90.1222 762.492 91.0119 765.062 91.0119C767.039 91.0119 768.686 90.5506 770.004 89.628C771.322 88.7054 772.229 87.3874 772.723 85.674H777.566C776.842 88.4418 775.392 90.6659 773.217 92.3464C771.042 93.9939 768.324 94.8176 765.062 94.8176C762.492 94.8176 760.202 94.241 758.192 93.0878C756.215 91.9345 754.666 90.3035 753.546 88.1947C752.426 86.0859 751.865 83.6146 751.865 80.7809ZM808.28 79.7924C808.28 80.6491 808.231 81.5552 808.132 82.5108H786.484C786.649 85.1797 787.555 87.2721 789.202 88.7878C790.883 90.2705 792.909 91.0119 795.281 91.0119C797.226 91.0119 798.84 90.5671 800.125 89.6774C801.443 88.7548 802.366 87.5357 802.893 86.02H807.737C807.012 88.623 805.562 90.7483 803.387 92.3958C801.212 94.0104 798.511 94.8176 795.281 94.8176C792.711 94.8176 790.405 94.241 788.362 93.0878C786.352 91.9345 784.77 90.3035 783.617 88.1947C782.464 86.0529 781.887 83.5817 781.887 80.7809C781.887 77.9802 782.447 75.5254 783.568 73.4166C784.688 71.3078 786.253 69.6932 788.263 68.5729C790.306 67.4197 792.645 66.8431 795.281 66.8431C797.852 66.8431 800.125 67.4032 802.102 68.5235C804.079 69.6438 805.595 71.1925 806.649 73.1695C807.737 75.1135 808.28 77.3212 808.28 79.7924ZM803.634 78.8533C803.634 77.1399 803.255 75.6737 802.498 74.4545C801.74 73.2024 800.702 72.2633 799.384 71.6373C798.099 70.9783 796.665 70.6488 795.084 70.6488C792.81 70.6488 790.866 71.3737 789.252 72.8235C787.67 74.2733 786.764 76.2832 786.533 78.8533H803.634ZM823.806 94.8176C821.73 94.8176 819.868 94.4717 818.22 93.7797C816.573 93.0548 815.271 92.0663 814.316 90.8142C813.36 89.5291 812.833 88.0629 812.734 86.4154H817.38C817.512 87.7663 818.138 88.8701 819.258 89.7268C820.412 90.5836 821.911 91.0119 823.756 91.0119C825.469 91.0119 826.82 90.633 827.809 89.8751C828.797 89.1173 829.292 88.1617 829.292 87.0085C829.292 85.8223 828.764 84.9491 827.71 84.3889C826.656 83.7958 825.025 83.2192 822.817 82.6591C820.807 82.1319 819.16 81.6047 817.874 81.0775C816.622 80.5173 815.535 79.71 814.612 78.6556C813.723 77.5683 813.278 76.1514 813.278 74.4051C813.278 73.0212 813.69 71.7526 814.514 70.5994C815.337 69.4461 816.507 68.54 818.023 67.881C819.538 67.189 821.268 66.8431 823.212 66.8431C826.211 66.8431 828.633 67.6009 830.478 69.1166C832.323 70.6323 833.312 72.7082 833.443 75.3442H828.946C828.847 73.9273 828.27 72.7905 827.216 71.9338C826.194 71.0771 824.81 70.6488 823.064 70.6488C821.45 70.6488 820.165 70.9948 819.209 71.6867C818.253 72.3787 817.776 73.2848 817.776 74.4051C817.776 75.2947 818.056 76.0361 818.616 76.6292C819.209 77.1894 819.934 77.6507 820.791 78.0131C821.68 78.3426 822.899 78.7215 824.448 79.1499C826.392 79.6771 827.974 80.2043 829.193 80.7315C830.412 81.2257 831.45 81.9836 832.307 83.005C833.196 84.0265 833.658 85.361 833.691 87.0085C833.691 88.4912 833.279 89.8257 832.455 91.0119C831.631 92.1981 830.461 93.1372 828.946 93.8291C827.463 94.4881 825.75 94.8176 823.806 94.8176Z" fill="white"/>
<rect x="222.196" y="16.6292" width="61.4133" height="116.401" rx="30.7066" stroke="white" stroke-width="5.24603"/>
<rect x="209.536" y="47.1356" width="61.4133" height="116.401" rx="30.7066" transform="rotate(-45 209.536 47.1356)" stroke="white" stroke-width="5.24603"/>
<rect x="252.937" y="3.7095" width="61.4133" height="116.401" rx="30.7066" transform="rotate(45 252.937 3.7095)" stroke="white" stroke-width="5.24603"/>
<defs>
<clipPath id="clip0">
<rect width="405.886" height="88.3784" fill="white" transform="translate(101 179.275)"/>
</clipPath>
<clipPath id="clip1">
<rect width="568.079" height="56.2026" fill="white" transform="translate(426.275 455.825)"/>
</clipPath>
</defs>
</svg>
