<svg width="721" height="93" viewBox="0 0 721 93" fill="none" xmlns="http://www.w3.org/2000/svg">
<rect width="721" height="93" rx="46.5" fill="#34A1F4"/>
<path d="M154.716 62.4501C151.475 62.4501 149.09 61.835 147.559 60.6047C146.059 59.3745 145.309 57.8742 145.309 56.1039C145.309 55.0237 145.654 54.1985 146.344 53.6284C147.034 53.0583 147.935 52.7732 149.045 52.7732C149.135 54.8436 149.66 56.584 150.62 57.9942C151.61 59.4045 153.126 60.1096 155.166 60.1096C157.086 60.1096 158.602 59.6295 159.712 58.6694C160.822 57.7092 161.377 56.3739 161.377 54.6636C161.377 53.5834 161.137 52.6682 160.657 51.9181C160.207 51.1379 159.457 50.4328 158.407 49.8026C157.356 49.1425 155.961 48.4524 154.221 47.7322C151.34 46.562 149.24 45.2268 147.92 43.7265C146.599 42.1962 145.939 40.2308 145.939 37.8303C145.939 36.06 146.374 34.5597 147.244 33.3295C148.115 32.0692 149.315 31.109 150.845 30.4489C152.405 29.7588 154.161 29.4137 156.111 29.4137C158.962 29.4137 161.122 29.9238 162.592 30.944C164.093 31.9642 164.843 33.1494 164.843 34.4997C164.843 35.4899 164.483 36.27 163.763 36.8401C163.042 37.3803 162.037 37.6503 160.747 37.6503C160.747 36.7501 160.582 35.85 160.252 34.9498C159.952 34.0496 159.427 33.2995 158.677 32.6993C157.956 32.0992 156.981 31.7992 155.751 31.7992C154.161 31.7992 152.9 32.2343 151.97 33.1044C151.04 33.9746 150.575 35.1598 150.575 36.6601C150.575 37.7703 150.785 38.7305 151.205 39.5407C151.625 40.3208 152.345 41.041 153.366 41.7011C154.416 42.3612 155.841 43.0663 157.641 43.8165C160.402 44.9267 162.502 46.202 163.943 47.6422C165.383 49.0525 166.103 50.8979 166.103 53.1783C166.103 56.0589 165.068 58.3243 162.997 59.9746C160.957 61.6249 158.197 62.4501 154.716 62.4501ZM175.765 33.5095C174.925 33.5095 174.219 33.2845 173.649 32.8344C173.109 32.3843 172.839 31.6341 172.839 30.5839C172.839 29.5037 173.109 28.7536 173.649 28.3335C174.219 27.8834 174.925 27.6584 175.765 27.6584C176.545 27.6584 177.22 27.8834 177.79 28.3335C178.39 28.7536 178.69 29.5037 178.69 30.5839C178.69 31.6341 178.39 32.3843 177.79 32.8344C177.22 33.2845 176.545 33.5095 175.765 33.5095ZM169.329 62V59.9746H169.914C170.514 59.9746 171.084 59.9146 171.624 59.7946C172.164 59.6445 172.599 59.3595 172.929 58.9394C173.289 58.5193 173.469 57.8742 173.469 57.004V42.8713C173.469 42.0011 173.289 41.356 172.929 40.9359C172.599 40.5159 172.164 40.2458 171.624 40.1258C171.084 39.9758 170.514 39.9007 169.914 39.9007H169.689V37.8753H178.42V56.824C178.42 57.7542 178.585 58.4443 178.915 58.8944C179.275 59.3145 179.726 59.5995 180.266 59.7496C180.806 59.8996 181.376 59.9746 181.976 59.9746H182.561V62H169.329ZM193.638 72.8021C190.397 72.8021 187.967 72.232 186.346 71.0918C184.756 69.9815 183.961 68.3912 183.961 66.3208C183.961 64.6105 184.516 63.3053 185.626 62.4051C186.736 61.5049 188.102 60.9348 189.722 60.6947C189.062 60.4247 188.447 59.9746 187.877 59.3445C187.307 58.7144 187.022 57.9042 187.022 56.914C187.022 55.9838 187.292 55.1887 187.832 54.5286C188.372 53.8384 189.182 53.1783 190.262 52.5482C188.942 52.0381 187.907 51.1679 187.157 49.9377C186.406 48.7074 186.031 47.2972 186.031 45.7069C186.031 43.1264 186.751 41.101 188.192 39.6307C189.632 38.1304 191.822 37.3803 194.763 37.3803C195.843 37.3803 196.848 37.5303 197.779 37.8303C198.739 38.1304 199.459 38.4755 199.939 38.8655C200.479 38.2654 201.109 37.7103 201.829 37.2002C202.58 36.6601 203.435 36.3901 204.395 36.3901C205.355 36.3901 206.06 36.6301 206.51 37.1102C206.99 37.5903 207.23 38.1454 207.23 38.7755C207.23 39.4356 207.035 40.0058 206.645 40.4859C206.255 40.9659 205.58 41.206 204.62 41.206C204.62 40.7859 204.5 40.4108 204.26 40.0808C204.02 39.7507 203.63 39.5857 203.09 39.5857C202.399 39.5857 201.784 39.7507 201.244 40.0808C201.784 40.7409 202.234 41.521 202.595 42.4212C202.955 43.3214 203.135 44.3866 203.135 45.6168C203.135 47.8673 202.444 49.7276 201.064 51.1979C199.714 52.6682 197.614 53.4033 194.763 53.4033C194.403 53.4033 193.968 53.3883 193.458 53.3583C192.978 53.2983 192.603 53.2383 192.333 53.1783C191.792 53.4484 191.327 53.8084 190.937 54.2585C190.547 54.7086 190.352 55.2487 190.352 55.8788C190.352 56.4189 190.532 56.824 190.892 57.0941C191.252 57.3641 191.942 57.4991 192.963 57.4991H198.139C200.899 57.4991 202.88 58.1293 204.08 59.3895C205.28 60.6497 205.88 62.2851 205.88 64.2954C205.88 66.9059 204.875 68.9763 202.865 70.5066C200.884 72.0369 197.809 72.8021 193.638 72.8021ZM194.628 51.1079C196.008 51.1079 196.968 50.6578 197.509 49.7576C198.079 48.8275 198.364 47.4322 198.364 45.5718C198.364 43.6515 198.079 42.1962 197.509 41.206C196.938 40.2158 195.963 39.7207 194.583 39.7207C193.233 39.7207 192.258 40.2308 191.657 41.251C191.087 42.2712 190.802 43.7265 190.802 45.6168C190.802 47.4472 191.102 48.8275 191.702 49.7576C192.303 50.6578 193.278 51.1079 194.628 51.1079ZM193.728 70.4616C195.768 70.4616 197.374 70.2366 198.544 69.7865C199.714 69.3664 200.539 68.7663 201.019 67.9862C201.499 67.206 201.739 66.3058 201.739 65.2856C201.739 64.0254 201.364 63.1702 200.614 62.7201C199.894 62.2701 198.829 62.045 197.419 62.045H192.783C192.002 62.045 191.252 62.15 190.532 62.3601C189.812 62.5701 189.212 62.9602 188.732 63.5303C188.282 64.1004 188.057 64.9556 188.057 66.0958C188.057 67.386 188.462 68.4362 189.272 69.2464C190.112 70.0566 191.597 70.4616 193.728 70.4616ZM208.848 62V59.9746H209.118C210.139 59.9746 210.994 59.7946 211.684 59.4345C212.404 59.0444 212.764 58.1593 212.764 56.779V42.9163C212.764 41.6261 212.419 40.8009 211.729 40.4408C211.069 40.0808 210.244 39.9007 209.253 39.9007H209.073V37.8753H216.95L217.535 41.386H217.76C218.69 39.7057 219.725 38.6255 220.866 38.1454C222.006 37.6353 223.296 37.3803 224.736 37.3803C227.107 37.3803 228.952 38.0854 230.272 39.4957C231.593 40.8759 232.253 43.0964 232.253 46.1569V56.734C232.253 58.1443 232.538 59.0444 233.108 59.4345C233.708 59.7946 234.518 59.9746 235.538 59.9746H235.763V62H227.302V46.652C227.302 44.7017 226.957 43.2014 226.267 42.1512C225.606 41.071 224.436 40.5309 222.756 40.5309C221.496 40.5309 220.491 40.8759 219.74 41.5661C219.02 42.2262 218.495 43.1114 218.165 44.2216C217.865 45.3018 217.715 46.472 217.715 47.7322V57.004C217.715 58.2943 218.045 59.1194 218.705 59.4795C219.395 59.8096 220.235 59.9746 221.226 59.9746H221.406V62H208.848ZM260.794 62.4501C258.424 62.4501 256.593 61.745 255.303 60.3347C254.043 58.9244 253.413 56.674 253.413 53.5834V43.0063C253.413 41.6861 253.068 40.8459 252.378 40.4859C251.718 40.0958 250.892 39.9007 249.902 39.9007H249.767V37.8753H258.364V53.0883C258.364 55.0387 258.664 56.569 259.264 57.6792C259.864 58.7594 261.019 59.2995 262.73 59.2995C264.56 59.2995 265.88 58.6544 266.69 57.3641C267.531 56.0439 267.951 54.3035 267.951 52.1431V43.0513C267.951 41.6711 267.591 40.8009 266.87 40.4408C266.18 40.0808 265.355 39.9007 264.395 39.9007H264.26V37.8753H272.902V57.004C272.902 58.3243 273.247 59.1495 273.937 59.4795C274.627 59.8096 275.452 59.9746 276.412 59.9746H276.592V62H268.941L268.266 58.4893H268.041C267.11 60.1396 266.03 61.2198 264.8 61.7299C263.57 62.21 262.235 62.4501 260.794 62.4501ZM278.418 72.8021V70.7767H278.823C279.423 70.7767 279.993 70.7017 280.533 70.5516C281.073 70.4016 281.508 70.1016 281.838 69.6515C282.198 69.2314 282.378 68.5563 282.378 67.6261V43.0063C282.378 41.6561 282.033 40.8009 281.343 40.4408C280.653 40.0808 279.828 39.9007 278.868 39.9007H278.328V37.8753H286.474L287.014 41.7911H287.194C287.884 40.4708 288.77 39.4206 289.85 38.6405C290.93 37.8303 292.34 37.4253 294.081 37.4253C297.081 37.4253 299.362 38.4305 300.922 40.4408C302.512 42.4212 303.307 45.5868 303.307 49.9377C303.307 54.2885 302.512 57.4691 300.922 59.4795C299.362 61.4899 297.111 62.4951 294.171 62.4951C292.43 62.4951 291.005 62.135 289.895 61.4149C288.815 60.6947 287.944 59.7646 287.284 58.6243H287.104C287.164 59.4345 287.209 60.3497 287.239 61.3699C287.299 62.3901 287.329 63.2002 287.329 63.8003V67.8061C287.329 68.6763 287.494 69.3214 287.824 69.7415C288.185 70.1616 288.635 70.4316 289.175 70.5516C289.715 70.7017 290.285 70.7767 290.885 70.7767H291.245V72.8021H278.418ZM293.045 59.4795C294.906 59.4795 296.226 58.6694 297.006 57.049C297.816 55.4287 298.221 53.0433 298.221 49.8927C298.221 46.7721 297.816 44.4166 297.006 42.8263C296.226 41.236 294.906 40.4408 293.045 40.4408C290.855 40.4408 289.355 41.236 288.545 42.8263C287.734 44.3866 287.329 46.7571 287.329 49.9377C287.329 53.0583 287.734 55.4287 288.545 57.049C289.355 58.6694 290.855 59.4795 293.045 59.4795ZM318.512 62V59.9746H319.187C319.817 59.9746 320.402 59.8996 320.942 59.7496C321.483 59.5995 321.918 59.3145 322.248 58.8944C322.578 58.4443 322.743 57.7542 322.743 56.824V40.2608H318.692V37.8753H322.743V35.8049C322.743 33.0744 323.463 30.989 324.903 29.5487C326.343 28.0785 328.399 27.3433 331.069 27.3433C333.56 27.3433 335.285 27.6434 336.245 28.2435C337.206 28.8436 337.686 29.6088 337.686 30.5389C337.686 31.4091 337.311 32.0692 336.56 32.5193C335.81 32.9694 334.79 33.1944 333.5 33.1944C333.5 32.3243 333.305 31.4991 332.915 30.719C332.525 29.9388 331.789 29.5487 330.709 29.5487C329.569 29.5487 328.774 30.0288 328.324 30.989C327.904 31.9192 327.694 33.3445 327.694 35.2648V37.8753H333.995V40.2608H327.694V56.824C327.694 57.7542 327.859 58.4443 328.189 58.8944C328.549 59.3145 328.999 59.5995 329.539 59.7496C330.079 59.8996 330.649 59.9746 331.249 59.9746H333.095V62H318.512ZM347.583 62.4501C344.253 62.4501 341.627 61.4149 339.707 59.3445C337.786 57.2741 336.826 54.1235 336.826 49.8927C336.826 45.6618 337.741 42.5262 339.572 40.4859C341.402 38.4155 344.118 37.3803 347.718 37.3803C351.049 37.3803 353.674 38.4155 355.595 40.4859C357.515 42.5262 358.475 45.6618 358.475 49.8927C358.475 54.1235 357.545 57.2741 355.685 59.3445C353.855 61.4149 351.154 62.4501 347.583 62.4501ZM347.673 59.9746C349.774 59.9746 351.244 59.1194 352.084 57.4091C352.954 55.6988 353.389 53.1933 353.389 49.8927C353.389 46.562 352.954 44.0715 352.084 42.4212C351.214 40.7409 349.729 39.9007 347.628 39.9007C345.528 39.9007 344.043 40.7409 343.172 42.4212C342.332 44.0715 341.912 46.562 341.912 49.8927C341.912 53.1933 342.347 55.6988 343.217 57.4091C344.088 59.1194 345.573 59.9746 347.673 59.9746ZM362.162 62V59.9746H362.297C363.317 59.9746 364.173 59.7946 364.863 59.4345C365.583 59.0444 365.943 58.1443 365.943 56.734V42.9613C365.943 41.6411 365.598 40.8009 364.908 40.4408C364.218 40.0808 363.377 39.9007 362.387 39.9007H362.252V37.8753H369.769L370.624 42.0612H370.849C371.239 41.161 371.659 40.3658 372.109 39.6757C372.589 38.9556 373.204 38.4004 373.955 38.0104C374.735 37.5903 375.77 37.3803 377.06 37.3803C378.74 37.3803 379.986 37.6803 380.796 38.2804C381.606 38.8805 382.011 39.7207 382.011 40.8009C382.011 41.8511 381.636 42.7063 380.886 43.3664C380.166 43.9965 379.01 44.3116 377.42 44.3116C377.42 43.0814 377.24 42.1812 376.88 41.6111C376.55 41.011 375.95 40.7109 375.08 40.7109C374.24 40.7109 373.549 41.026 373.009 41.6561C372.469 42.2862 372.049 43.0814 371.749 44.0415C371.449 45.0017 371.224 45.9919 371.074 47.0121C370.954 48.0323 370.894 48.9325 370.894 49.7126V56.959C370.894 58.2793 371.239 59.1194 371.929 59.4795C372.649 59.8096 373.489 59.9746 374.45 59.9746H375.755V62H362.162ZM405.241 62.4501C403.02 62.4501 401.37 61.94 400.29 60.9198C399.21 59.8696 398.67 58.0392 398.67 55.4287V40.5759H395.294V38.6405C395.924 38.6405 396.584 38.5055 397.274 38.2354C397.964 37.9654 398.55 37.5753 399.03 37.0652C399.96 36.105 400.65 34.5297 401.1 32.3393H403.621V37.8753H409.472V40.5759H403.621V55.4287C403.621 56.899 403.906 57.9792 404.476 58.6694C405.076 59.3595 405.901 59.7046 406.951 59.7046C407.491 59.7046 408.001 59.6746 408.481 59.6145C408.962 59.5545 409.427 59.4795 409.877 59.3895V61.6399C409.487 61.82 408.857 62 407.986 62.18C407.116 62.3601 406.201 62.4501 405.241 62.4501ZM411.776 62V59.9746H412.046C413.066 59.9746 413.921 59.7946 414.611 59.4345C415.331 59.0444 415.691 58.1593 415.691 56.779V32.7894C415.691 31.9192 415.511 31.2741 415.151 30.854C414.821 30.4339 414.386 30.1639 413.846 30.0438C413.306 29.8938 412.736 29.8188 412.136 29.8188H411.731V27.7934H420.642V37.0202C420.642 37.6203 420.612 38.2654 420.552 38.9556C420.522 39.6157 420.492 40.1858 420.462 40.6659C420.432 41.116 420.417 41.341 420.417 41.341H420.687C421.407 39.9007 422.323 38.8805 423.433 38.2804C424.543 37.6803 425.848 37.3803 427.349 37.3803C429.869 37.3803 431.804 38.0854 433.155 39.4957C434.505 40.8759 435.18 43.0964 435.18 46.1569V56.734C435.18 58.1443 435.48 59.0444 436.08 59.4345C436.71 59.7946 437.52 59.9746 438.511 59.9746H438.646V62H430.229V46.652C430.229 44.7017 429.884 43.2014 429.194 42.1512C428.534 41.071 427.349 40.5309 425.638 40.5309C423.898 40.5309 422.623 41.206 421.812 42.5563C421.032 43.9065 420.642 45.6318 420.642 47.7322V57.004C420.642 58.2943 420.987 59.1194 421.677 59.4795C422.368 59.8096 423.208 59.9746 424.198 59.9746H424.333V62H411.776ZM453.028 62.4501C449.608 62.4501 446.952 61.3699 445.062 59.2095C443.202 57.049 442.271 54.0185 442.271 50.1177C442.271 45.8869 443.157 42.7063 444.927 40.5759C446.727 38.4455 449.278 37.3803 452.578 37.3803C455.579 37.3803 457.934 38.2954 459.645 40.1258C461.385 41.9261 462.255 44.6116 462.255 48.1823V50.2977H447.357C447.417 53.5084 447.987 55.8488 449.068 57.3191C450.178 58.7594 451.768 59.4795 453.839 59.4795C455.399 59.4795 456.719 59.1495 457.799 58.4893C458.91 57.8292 459.735 57.064 460.275 56.1939C460.515 56.3139 460.725 56.5239 460.905 56.824C461.115 57.1241 461.22 57.4841 461.22 57.9042C461.22 58.5643 460.92 59.2545 460.32 59.9746C459.75 60.6647 458.85 61.2499 457.619 61.7299C456.419 62.21 454.889 62.4501 453.028 62.4501ZM457.079 47.7322C457.079 45.3918 456.734 43.5164 456.044 42.1062C455.354 40.6659 454.184 39.9457 452.533 39.9457C450.973 39.9457 449.758 40.6209 448.888 41.9711C448.047 43.2914 447.567 45.2118 447.447 47.7322H457.079ZM477.679 62V59.9746H478.624C479.524 59.9746 480.305 59.7946 480.965 59.4345C481.625 59.0744 481.955 58.2043 481.955 56.824V34.9048C481.955 33.6145 481.625 32.7894 480.965 32.4293C480.305 32.0692 479.524 31.8892 478.624 31.8892H477.679V29.8638H490.057C494.047 29.8638 497.033 30.5239 499.013 31.8442C500.994 33.1344 501.984 35.1748 501.984 37.9654C501.984 39.9457 501.444 41.476 500.364 42.5563C499.313 43.6365 497.978 44.4316 496.358 44.9417V45.1668C498.428 45.5568 500.108 46.427 501.399 47.7773C502.689 49.1275 503.334 50.9579 503.334 53.2683C503.334 59.0894 499.358 62 491.407 62H477.679ZM489.921 43.9965C492.412 43.9965 494.107 43.5314 495.007 42.6013C495.938 41.6411 496.403 40.0958 496.403 37.9654C496.403 35.8049 495.908 34.3197 494.917 33.5095C493.927 32.6693 492.232 32.2493 489.831 32.2493H487.176V43.9965H489.921ZM491.182 59.6145C493.582 59.6145 495.278 59.1344 496.268 58.1743C497.258 57.1841 497.753 55.5037 497.753 53.1333C497.753 50.8228 497.288 49.1275 496.358 48.0473C495.428 46.9371 493.732 46.382 491.272 46.382H487.176V59.6145H491.182ZM518.915 62.4501C515.495 62.4501 512.839 61.3699 510.949 59.2095C509.088 57.049 508.158 54.0185 508.158 50.1177C508.158 45.8869 509.043 42.7063 510.814 40.5759C512.614 38.4455 515.164 37.3803 518.465 37.3803C521.466 37.3803 523.821 38.2954 525.531 40.1258C527.272 41.9261 528.142 44.6116 528.142 48.1823V50.2977H513.244C513.304 53.5084 513.874 55.8488 514.954 57.3191C516.065 58.7594 517.655 59.4795 519.725 59.4795C521.286 59.4795 522.606 59.1495 523.686 58.4893C524.796 57.8292 525.621 57.064 526.162 56.1939C526.402 56.3139 526.612 56.5239 526.792 56.824C527.002 57.1241 527.107 57.4841 527.107 57.9042C527.107 58.5643 526.807 59.2545 526.207 59.9746C525.636 60.6647 524.736 61.2499 523.506 61.7299C522.306 62.21 520.776 62.4501 518.915 62.4501ZM522.966 47.7322C522.966 45.3918 522.621 43.5164 521.931 42.1062C521.241 40.6659 520.07 39.9457 518.42 39.9457C516.86 39.9457 515.645 40.6209 514.774 41.9711C513.934 43.2914 513.454 45.2118 513.334 47.7322H522.966ZM541.146 62.4501C538.926 62.4501 537.275 61.94 536.195 60.9198C535.115 59.8696 534.575 58.0392 534.575 55.4287V40.5759H531.199V38.6405C531.829 38.6405 532.489 38.5055 533.179 38.2354C533.87 37.9654 534.455 37.5753 534.935 37.0652C535.865 36.105 536.555 34.5297 537.005 32.3393H539.526V37.8753H545.377V40.5759H539.526V55.4287C539.526 56.899 539.811 57.9792 540.381 58.6694C540.981 59.3595 541.806 59.7046 542.856 59.7046C543.396 59.7046 543.906 59.6746 544.387 59.6145C544.867 59.5545 545.332 59.4795 545.782 59.3895V61.6399C545.392 61.82 544.762 62 543.891 62.18C543.021 62.3601 542.106 62.4501 541.146 62.4501ZM556.007 62.4501C554.027 62.4501 552.362 61.865 551.011 60.6947C549.691 59.4945 549.031 57.6642 549.031 55.2037C549.031 52.8032 549.871 51.0329 551.551 49.8927C553.232 48.7224 555.797 48.0773 559.248 47.9573L562.939 47.8223V45.2118C562.939 44.1316 562.849 43.1864 562.669 42.3762C562.518 41.5661 562.173 40.9359 561.633 40.4859C561.093 40.0058 560.268 39.7657 559.158 39.7657C557.568 39.7657 556.532 40.2308 556.052 41.161C555.572 42.0912 555.332 43.2614 555.332 44.6717C553.892 44.6717 552.797 44.4616 552.046 44.0415C551.296 43.5914 550.921 42.8413 550.921 41.7911C550.921 40.7409 551.296 39.9007 552.046 39.2706C552.797 38.6105 553.802 38.1304 555.062 37.8303C556.352 37.5303 557.778 37.3803 559.338 37.3803C562.188 37.3803 564.319 37.9654 565.729 39.1356C567.169 40.3058 567.89 42.3012 567.89 45.1217V56.734C567.89 57.9942 568.1 58.8494 568.52 59.2995C568.94 59.7496 569.66 59.9746 570.68 59.9746H570.815V62H564.109L563.344 58.3543H562.939C562.308 59.1645 561.693 59.8846 561.093 60.5147C560.493 61.1148 559.803 61.5949 559.023 61.955C558.243 62.2851 557.237 62.4501 556.007 62.4501ZM557.448 59.5245C559.128 59.5245 560.463 58.9694 561.453 57.8592C562.443 56.749 562.939 55.2637 562.939 53.4033V49.8477L560.283 49.9827C557.973 50.0727 556.367 50.5828 555.467 51.513C554.567 52.4132 554.117 53.7184 554.117 55.4287C554.117 58.1593 555.227 59.5245 557.448 59.5245Z" fill="white"/>
</svg>
