<svg width="1149" height="493" viewBox="0 0 1149 493" fill="none" xmlns="http://www.w3.org/2000/svg">
<path d="M1126.78 286.072C1126.78 449.073 631.375 493 468.2 493C305.024 493 44.8238 430.112 44.8238 267.11C44.8238 104.109 -78.7375 0 84.4379 0C160.173 0 279.863 76.0333 338.628 122.838C427.005 142.624 312.627 220.009 369.164 229.187C432.075 239.4 431.659 -2.67362 516.892 7.41973C757.053 -9.06856 730.428 163.274 803.269 174.776C853.163 182.654 828.08 41.8523 886.624 59.3579C967.813 83.6347 1147.42 78.3194 1126.78 286.072Z" fill="#5EC1BB" fill-opacity="0.7"/>
<path d="M93.851 204.469H32.638C30.1843 204.469 28.3764 203.952 27.2141 202.919C26.181 201.757 25.6644 199.949 25.6644 197.495V174.831C25.6644 172.377 26.181 170.633 27.2141 169.6C28.3764 168.438 30.1843 167.857 32.638 167.857H84.7465C86.4254 167.857 87.6522 167.34 88.4271 166.307C89.331 165.145 89.783 163.789 89.783 162.239C89.783 160.044 89.331 158.43 88.4271 157.397C87.6522 156.363 86.4254 155.782 84.7465 155.653L55.6897 151.585C46.6499 150.294 39.3534 147.324 33.8003 142.674C28.3764 138.025 25.6644 130.277 25.6644 119.429V99.0892C25.6644 88.1122 29.2158 79.7181 36.3186 73.9067C43.4213 67.9662 53.2361 64.996 65.7628 64.996H120.002C122.456 64.996 124.199 65.5771 125.232 66.7394C126.395 67.7725 126.976 69.5159 126.976 71.9696V95.0213C126.976 97.475 126.395 99.283 125.232 100.445C124.199 101.478 122.456 101.995 120.002 101.995H74.8672C73.1884 101.995 71.897 102.576 70.993 103.738C70.089 104.771 69.637 106.127 69.637 107.806C69.637 109.485 70.089 110.906 70.993 112.068C71.897 113.23 73.1884 113.876 74.8672 114.005L103.73 117.879C112.77 119.171 120.067 122.141 125.62 126.79C131.173 131.439 133.949 139.188 133.949 150.035V170.375C133.949 181.352 130.333 189.811 123.101 195.751C115.999 201.563 106.249 204.469 93.851 204.469ZM273.885 167.857C273.885 173.797 272.981 179.221 271.173 184.129C269.494 188.907 266.395 193.04 261.875 196.526C257.484 199.884 251.414 202.531 243.666 204.469C235.917 206.406 226.038 207.374 214.028 207.374C202.018 207.374 192.139 206.406 184.39 204.469C176.642 202.531 170.507 199.884 165.987 196.526C161.597 193.04 158.497 188.907 156.689 184.129C155.01 179.221 154.171 173.797 154.171 167.857V71.9696C154.171 69.5159 154.688 67.7725 155.721 66.7394C156.883 65.5771 158.691 64.996 161.145 64.996H191.557C194.011 64.996 195.755 65.5771 196.788 66.7394C197.95 67.7725 198.531 69.5159 198.531 71.9696V160.302C198.531 162.885 199.5 165.08 201.437 166.888C203.374 168.567 207.7 169.407 214.415 169.407C221.26 169.407 225.651 168.567 227.588 166.888C229.525 165.08 230.494 162.885 230.494 160.302V71.9696C230.494 69.5159 231.01 67.7725 232.043 66.7394C233.205 65.5771 235.013 64.996 237.467 64.996H266.911C269.365 64.996 271.108 65.5771 272.142 66.7394C273.304 67.7725 273.885 69.5159 273.885 71.9696V167.857ZM343.446 99.8641V124.659H357.974C361.332 124.659 363.592 123.82 364.754 122.141C365.916 120.333 366.497 118.138 366.497 115.555V108.969C366.497 106.386 365.916 104.255 364.754 102.576C363.592 100.768 361.332 99.8641 357.974 99.8641H343.446ZM336.472 204.469H306.64C304.187 204.469 302.379 203.952 301.217 202.919C300.183 201.757 299.667 199.949 299.667 197.495V71.9696C299.667 69.5159 300.183 67.7725 301.217 66.7394C302.379 65.5771 304.187 64.996 306.64 64.996H371.146C385.61 64.996 395.554 68.0308 400.978 74.1004C406.531 80.0409 409.308 87.7894 409.308 97.3458V106.257C409.308 111.681 408.468 116.33 406.789 120.204C405.24 123.949 402.463 126.661 398.46 128.34C405.433 129.115 411.051 131.956 415.313 136.863C419.704 141.77 421.899 148.292 421.899 156.428V197.495C421.899 199.949 421.318 201.757 420.156 202.919C419.122 203.952 417.379 204.469 414.925 204.469H384.9C382.446 204.469 380.638 203.952 379.476 202.919C378.443 201.757 377.926 199.949 377.926 197.495V167.857C377.926 165.016 377.345 162.95 376.183 161.658C375.15 160.238 373.277 159.527 370.565 159.527H343.446V197.495C343.446 199.949 342.865 201.757 341.702 202.919C340.669 203.952 338.926 204.469 336.472 204.469ZM480.625 204.469H450.6C448.146 204.469 446.338 203.952 445.176 202.919C444.143 201.757 443.627 199.949 443.627 197.495V71.9696C443.627 69.5159 444.143 67.7725 445.176 66.7394C446.338 65.5771 448.146 64.996 450.6 64.996H536.996C539.449 64.996 541.193 65.5771 542.226 66.7394C543.388 67.7725 543.969 69.5159 543.969 71.9696V95.0213C543.969 97.475 543.388 99.283 542.226 100.445C541.193 101.478 539.449 101.995 536.996 101.995H487.599V122.141H521.305C523.759 122.141 525.502 122.722 526.535 123.884C527.697 124.917 528.279 126.661 528.279 129.115V152.36C528.279 154.814 527.697 156.622 526.535 157.784C525.502 158.817 523.759 159.334 521.305 159.334H487.599V197.495C487.599 199.949 487.018 201.757 485.856 202.919C484.823 203.952 483.079 204.469 480.625 204.469ZM697.778 204.469H650.512C634.37 204.469 622.36 201.24 614.482 194.783C606.733 188.326 602.859 178.382 602.859 164.951V104.707C602.859 91.2762 606.733 81.3323 614.482 74.8753C622.36 68.2891 634.37 64.996 650.512 64.996H697.778C700.232 64.996 701.975 65.5771 703.008 66.7394C704.171 67.7725 704.752 69.5159 704.752 71.9696V95.4087C704.752 97.8624 704.171 99.6704 703.008 100.833C701.975 101.866 700.232 102.382 697.778 102.382H658.842C654.839 102.382 651.868 103.222 649.931 104.901C647.994 106.45 647.025 108.839 647.025 112.068V158.171C647.025 161.4 647.994 163.789 649.931 165.339C651.868 166.759 654.839 167.47 658.842 167.47H697.778C700.232 167.47 701.975 168.051 703.008 169.213C704.171 170.246 704.752 171.989 704.752 174.443V197.495C704.752 199.949 704.171 201.757 703.008 202.919C701.975 203.952 700.232 204.469 697.778 204.469ZM832.2 204.469H733.601C731.147 204.469 729.339 203.952 728.177 202.919C727.144 201.757 726.627 199.949 726.627 197.495V71.9696C726.627 69.5159 727.144 67.7725 728.177 66.7394C729.339 65.5771 731.147 64.996 733.601 64.996H763.626C766.08 64.996 767.824 65.5771 768.857 66.7394C770.019 67.7725 770.6 69.5159 770.6 71.9696V167.857H797.139V136.476C797.139 134.022 797.655 132.279 798.688 131.245C799.851 130.083 801.659 129.502 804.112 129.502H832.2C834.654 129.502 836.398 130.083 837.431 131.245C838.593 132.279 839.174 134.022 839.174 136.476V197.495C839.174 199.949 838.593 201.757 837.431 202.919C836.398 203.952 834.654 204.469 832.2 204.469ZM980.063 167.857C980.063 173.797 979.159 179.221 977.351 184.129C975.672 188.907 972.573 193.04 968.053 196.526C963.662 199.884 957.593 202.531 949.844 204.469C942.096 206.406 932.216 207.374 920.206 207.374C908.196 207.374 898.317 206.406 890.568 204.469C882.82 202.531 876.686 199.884 872.166 196.526C867.775 193.04 864.675 188.907 862.867 184.129C861.189 179.221 860.349 173.797 860.349 167.857V71.9696C860.349 69.5159 860.866 67.7725 861.899 66.7394C863.061 65.5771 864.869 64.996 867.323 64.996H897.736C900.189 64.996 901.933 65.5771 902.966 66.7394C904.128 67.7725 904.709 69.5159 904.709 71.9696V160.302C904.709 162.885 905.678 165.08 907.615 166.888C909.552 168.567 913.878 169.407 920.594 169.407C927.438 169.407 931.829 168.567 933.766 166.888C935.703 165.08 936.672 162.885 936.672 160.302V71.9696C936.672 69.5159 937.188 67.7725 938.221 66.7394C939.384 65.5771 941.192 64.996 943.645 64.996H973.089C975.543 64.996 977.287 65.5771 978.32 66.7394C979.482 67.7725 980.063 69.5159 980.063 71.9696V167.857ZM1087.2 204.469H1012.82C1010.36 204.469 1008.56 203.952 1007.39 202.919C1006.36 201.757 1005.84 199.949 1005.84 197.495V71.9696C1005.84 69.5159 1006.36 67.7725 1007.39 66.7394C1008.56 65.5771 1010.36 64.996 1012.82 64.996H1074.61C1087.27 64.996 1096.63 67.4496 1102.7 72.357C1108.77 77.1352 1111.81 84.5609 1111.81 94.6339V103.932C1111.81 109.356 1110.84 113.811 1108.9 117.298C1107.09 120.656 1104.25 123.174 1100.38 124.853C1108.64 125.628 1114.78 128.469 1118.78 133.376C1122.78 138.284 1124.78 145.451 1124.78 154.878V172.7C1124.78 183.548 1121.68 191.554 1115.49 196.72C1109.42 201.886 1099.99 204.469 1087.2 204.469ZM1049.43 97.927V118.848H1065.9C1068.35 118.848 1070.16 118.202 1071.32 116.911C1072.61 115.619 1073.26 113.682 1073.26 111.099V105.675C1073.26 103.093 1072.61 101.156 1071.32 99.8641C1070.16 98.5727 1068.35 97.927 1065.9 97.927H1049.43ZM1049.43 148.679V171.537H1074.61C1077.07 171.537 1078.87 170.892 1080.04 169.6C1081.33 168.309 1081.97 166.372 1081.97 163.789V156.234C1081.97 153.651 1081.33 151.779 1080.04 150.617C1078.87 149.325 1077.07 148.679 1074.61 148.679H1049.43ZM128.982 403.469H78.6166C76.1629 403.469 74.0966 403.017 72.4178 402.113C70.8681 401.209 69.6413 399.53 68.7373 397.076L49.7535 349.617C48.5912 346.775 47.6227 344.322 46.8478 342.256C46.073 340.06 45.4273 337.994 44.9107 336.057C44.3942 334.12 44.0067 332.118 43.7485 330.052C43.6193 327.856 43.5547 325.209 43.5547 322.11V270.97C43.5547 268.516 44.0713 266.772 45.1044 265.739C46.2667 264.577 48.0747 263.996 50.5284 263.996H81.3286C83.7822 263.996 85.6548 264.577 86.9462 265.739C88.2376 266.772 88.8833 268.516 88.8833 270.97V324.434C88.8833 325.725 89.0125 327.017 89.2707 328.308C89.529 329.6 89.9165 330.956 90.433 332.376L99.5375 359.496C99.9249 360.787 100.377 361.691 100.893 362.208C101.41 362.595 102.185 362.789 103.218 362.789H105.349C106.382 362.789 107.157 362.595 107.673 362.208C108.19 361.691 108.642 360.787 109.029 359.496L118.134 332.183C118.65 330.762 119.038 329.406 119.296 328.115C119.554 326.823 119.684 325.532 119.684 324.24V270.97C119.684 268.516 120.2 266.772 121.233 265.739C122.395 264.577 124.203 263.996 126.657 263.996H157.07C159.524 263.996 161.267 264.577 162.3 265.739C163.462 266.772 164.044 268.516 164.044 270.97V322.11C164.044 325.209 163.914 327.856 163.656 330.052C163.527 332.118 163.204 334.12 162.688 336.057C162.171 337.994 161.525 340.06 160.75 342.256C159.976 344.322 159.007 346.775 157.845 349.617L138.861 397.076C137.957 399.53 136.666 401.209 134.987 402.113C133.437 403.017 131.435 403.469 128.982 403.469ZM284.817 403.469H194.935C192.481 403.469 190.673 402.952 189.511 401.919C188.477 400.757 187.961 398.949 187.961 396.495V270.97C187.961 268.516 188.477 266.772 189.511 265.739C190.673 264.577 192.481 263.996 194.935 263.996H284.817C287.271 263.996 289.014 264.577 290.047 265.739C291.209 266.772 291.79 268.516 291.79 270.97V293.634C291.79 296.088 291.209 297.896 290.047 299.058C289.014 300.091 287.271 300.608 284.817 300.608H231.352V315.523H269.126C271.58 315.523 273.323 316.104 274.356 317.267C275.519 318.3 276.1 320.043 276.1 322.497V343.224C276.1 345.678 275.519 347.486 274.356 348.648C273.323 349.681 271.58 350.198 269.126 350.198H231.352V366.857H284.817C287.271 366.857 289.014 367.438 290.047 368.6C291.209 369.633 291.79 371.377 291.79 373.831V396.495C291.79 398.949 291.209 400.757 290.047 401.919C289.014 402.952 287.271 403.469 284.817 403.469ZM350.736 403.469H321.68C319.226 403.469 317.418 402.952 316.256 401.919C315.223 400.757 314.706 398.949 314.706 396.495V270.97C314.706 268.516 315.223 266.772 316.256 265.739C317.418 264.577 319.226 263.996 321.68 263.996H341.826C344.279 263.996 346.346 264.383 348.024 265.158C349.832 265.933 351.576 267.289 353.255 269.226L390.835 312.23V270.97C390.835 268.516 391.351 266.772 392.384 265.739C393.547 264.577 395.355 263.996 397.808 263.996H426.865C429.319 263.996 431.062 264.577 432.095 265.739C433.258 266.772 433.839 268.516 433.839 270.97V396.495C433.839 398.949 433.258 400.757 432.095 401.919C431.062 402.952 429.319 403.469 426.865 403.469H397.808C395.355 403.469 393.547 402.952 392.384 401.919C391.351 400.757 390.835 398.949 390.835 396.495V372.668L357.71 332.57V396.495C357.71 398.949 357.129 400.757 355.967 401.919C354.933 402.952 353.19 403.469 350.736 403.469ZM526.419 403.469H495.038C492.584 403.469 490.776 402.952 489.614 401.919C488.581 400.757 488.064 398.949 488.064 396.495V301.382H459.589C457.135 301.382 455.327 300.866 454.165 299.833C453.132 298.67 452.615 296.862 452.615 294.409V270.97C452.615 268.516 453.132 266.772 454.165 265.739C455.327 264.577 457.135 263.996 459.589 263.996H561.869C564.322 263.996 566.066 264.577 567.099 265.739C568.261 266.772 568.842 268.516 568.842 270.97V294.409C568.842 296.862 568.261 298.67 567.099 299.833C566.066 300.866 564.322 301.382 561.869 301.382H533.393V396.495C533.393 398.949 532.812 400.757 531.65 401.919C530.617 402.952 528.873 403.469 526.419 403.469ZM706.426 366.857C706.426 372.797 705.522 378.221 703.714 383.129C702.035 387.907 698.936 392.04 694.416 395.526C690.025 398.884 683.956 401.531 676.207 403.469C668.459 405.406 658.579 406.374 646.569 406.374C634.559 406.374 624.68 405.406 616.931 403.469C609.183 401.531 603.049 398.884 598.529 395.526C594.138 392.04 591.038 387.907 589.23 383.129C587.552 378.221 586.712 372.797 586.712 366.857V270.97C586.712 268.516 587.229 266.772 588.262 265.739C589.424 264.577 591.232 263.996 593.686 263.996H624.099C626.552 263.996 628.296 264.577 629.329 265.739C630.491 266.772 631.072 268.516 631.072 270.97V359.302C631.072 361.885 632.041 364.08 633.978 365.888C635.915 367.567 640.241 368.407 646.957 368.407C653.801 368.407 658.192 367.567 660.129 365.888C662.066 364.08 663.035 361.885 663.035 359.302V270.97C663.035 268.516 663.551 266.772 664.584 265.739C665.747 264.577 667.555 263.996 670.008 263.996H699.453C701.906 263.996 703.65 264.577 704.683 265.739C705.845 266.772 706.426 268.516 706.426 270.97V366.857ZM775.987 298.864V323.659H790.515C793.873 323.659 796.133 322.82 797.295 321.141C798.457 319.333 799.039 317.138 799.039 314.555V307.969C799.039 305.386 798.457 303.255 797.295 301.576C796.133 299.768 793.873 298.864 790.515 298.864H775.987ZM769.013 403.469H739.182C736.728 403.469 734.92 402.952 733.758 401.919C732.725 400.757 732.208 398.949 732.208 396.495V270.97C732.208 268.516 732.725 266.772 733.758 265.739C734.92 264.577 736.728 263.996 739.182 263.996H803.688C818.151 263.996 828.095 267.031 833.519 273.1C839.072 279.041 841.849 286.789 841.849 296.346V305.257C841.849 310.681 841.009 315.33 839.331 319.204C837.781 322.949 835.004 325.661 831.001 327.34C837.975 328.115 843.592 330.956 847.854 335.863C852.245 340.77 854.44 347.292 854.44 355.428V396.495C854.44 398.949 853.859 400.757 852.697 401.919C851.664 402.952 849.92 403.469 847.467 403.469H817.441C814.988 403.469 813.18 402.952 812.017 401.919C810.984 400.757 810.468 398.949 810.468 396.495V366.857C810.468 364.016 809.886 361.95 808.724 360.658C807.691 359.238 805.818 358.527 803.107 358.527H775.987V396.495C775.987 398.949 775.406 400.757 774.243 401.919C773.21 402.952 771.467 403.469 769.013 403.469ZM973.024 403.469H883.141C880.688 403.469 878.88 402.952 877.717 401.919C876.684 400.757 876.168 398.949 876.168 396.495V270.97C876.168 268.516 876.684 266.772 877.717 265.739C878.88 264.577 880.688 263.996 883.141 263.996H973.024C975.477 263.996 977.221 264.577 978.254 265.739C979.416 266.772 979.997 268.516 979.997 270.97V293.634C979.997 296.088 979.416 297.896 978.254 299.058C977.221 300.091 975.477 300.608 973.024 300.608H919.559V315.523H957.333C959.787 315.523 961.53 316.104 962.563 317.267C963.725 318.3 964.307 320.043 964.307 322.497V343.224C964.307 345.678 963.725 347.486 962.563 348.648C961.53 349.681 959.787 350.198 957.333 350.198H919.559V366.857H973.024C975.477 366.857 977.221 367.438 978.254 368.6C979.416 369.633 979.997 371.377 979.997 373.831V396.495C979.997 398.949 979.416 400.757 978.254 401.919C977.221 402.952 975.477 403.469 973.024 403.469ZM1067.61 403.469H1006.4C1003.95 403.469 1002.14 402.952 1000.98 401.919C999.943 400.757 999.426 398.949 999.426 396.495V373.831C999.426 371.377 999.943 369.633 1000.98 368.6C1002.14 367.438 1003.95 366.857 1006.4 366.857H1058.51C1060.19 366.857 1061.41 366.34 1062.19 365.307C1063.09 364.145 1063.54 362.789 1063.54 361.239C1063.54 359.044 1063.09 357.43 1062.19 356.397C1061.41 355.363 1060.19 354.782 1058.51 354.653L1029.45 350.585C1020.41 349.294 1013.11 346.324 1007.56 341.674C1002.14 337.025 999.426 329.277 999.426 318.429V298.089C999.426 287.112 1002.98 278.718 1010.08 272.907C1017.18 266.966 1027 263.996 1039.52 263.996H1093.76C1096.22 263.996 1097.96 264.577 1098.99 265.739C1100.16 266.772 1100.74 268.516 1100.74 270.97V294.021C1100.74 296.475 1100.16 298.283 1098.99 299.445C1097.96 300.478 1096.22 300.995 1093.76 300.995H1048.63C1046.95 300.995 1045.66 301.576 1044.75 302.738C1043.85 303.771 1043.4 305.127 1043.4 306.806C1043.4 308.485 1043.85 309.906 1044.75 311.068C1045.66 312.23 1046.95 312.876 1048.63 313.005L1077.49 316.879C1086.53 318.171 1093.83 321.141 1099.38 325.79C1104.93 330.439 1107.71 338.188 1107.71 349.035V369.375C1107.71 380.352 1104.09 388.811 1096.86 394.751C1089.76 400.563 1080.01 403.469 1067.61 403.469Z" fill="white"/>
</svg>
