<svg width="999" height="454" viewBox="0 0 999 454" fill="none" xmlns="http://www.w3.org/2000/svg">
<path opacity="0.8" d="M989.071 262.492L989.037 262.849V263.207C989.037 296.496 964.754 325.15 922.136 349.606C879.789 373.908 821.393 392.8 757.912 407.149C631.056 435.821 486.089 445.877 414.404 445.877C343.071 445.877 250.587 431.551 176.218 398.885C101.54 366.082 47.6823 316.085 47.6823 245.78C47.6823 207.419 40.6897 172.647 32.6178 142.285C29.1273 129.156 25.4157 116.784 21.9849 105.348C21.4543 103.58 20.9304 101.833 20.4151 100.11C16.5435 87.1638 13.1789 75.592 10.9296 65.2498C6.30437 43.9831 7.12106 30.8498 14.4807 22.5614C22.1443 13.9306 39.2118 7.7959 75.1803 7.7959C106.601 7.7959 148.337 24.4029 189.512 47.1752C230.368 69.7714 269.42 97.7225 295.075 118.969L296.44 120.099L298.166 120.501C316.494 124.767 321.409 131.389 322.714 136.722C324.323 143.305 321.753 151.938 317.036 162.686C315.973 165.107 314.86 167.518 313.731 169.964L313.536 170.387C312.353 172.95 311.152 175.559 310.053 178.11C307.901 183.105 305.881 188.446 305.113 193.526C304.333 198.684 304.699 204.624 308.626 209.668C312.446 214.573 318.492 217.136 325.611 218.338C335.435 219.996 343.789 216.31 350.518 209.941C357.01 203.796 362.333 194.889 366.956 184.886C374.861 167.781 381.651 145.295 388.475 122.696C389.629 118.875 390.784 115.05 391.945 111.248C400.12 84.4846 408.649 58.6872 419.556 40.1665C430.541 21.514 442.312 12.8088 456.527 14.559L457.252 14.6484L457.981 14.5963C510.141 10.8728 547.169 17.8543 574.42 30.1081C601.606 42.3329 619.63 60.0589 633.422 78.8128C640.35 88.2337 646.206 97.909 651.657 107.36C653.157 109.962 654.64 112.571 656.112 115.16C659.908 121.839 663.626 128.381 667.365 134.303C677.692 150.659 689.835 165.127 709.368 168.334C716.839 169.56 723.414 167.873 728.832 163.769C733.964 159.882 737.564 154.209 740.274 148.24C745.094 137.624 748.134 123.57 750.975 110.442C751.286 109.003 751.596 107.574 751.904 106.162C755.188 91.1521 758.437 78.0173 763.562 69.5238C766.032 65.4307 768.564 63.0779 771.125 61.9312C773.546 60.8473 776.921 60.423 782.035 62.0129C794.06 65.7515 808.702 68.8005 824.141 72.0154C832.163 73.686 840.4 75.4013 848.598 77.2815C873.089 82.8991 898.281 90.1637 920.548 102.375C942.699 114.523 961.836 131.501 974.454 156.607C987.101 181.772 993.534 215.768 989.071 262.492Z" stroke="white" stroke-width="15.0371"/>
<path d="M424.461 360.448H397.614C396.538 360.448 395.745 360.221 395.235 359.768C394.782 359.258 394.555 358.465 394.555 357.389V347.449C394.555 346.373 394.782 345.608 395.235 345.155C395.745 344.645 396.538 344.39 397.614 344.39H420.468C421.204 344.39 421.742 344.164 422.082 343.711C422.479 343.201 422.677 342.606 422.677 341.926C422.677 340.963 422.479 340.255 422.082 339.802C421.742 339.349 421.204 339.094 420.468 339.038L407.724 337.254C403.759 336.687 400.559 335.384 398.123 333.345C395.745 331.306 394.555 327.908 394.555 323.15V314.23C394.555 309.415 396.113 305.734 399.228 303.185C402.343 300.579 406.648 299.277 412.142 299.277H435.931C437.007 299.277 437.771 299.531 438.224 300.041C438.734 300.494 438.989 301.259 438.989 302.335V312.445C438.989 313.522 438.734 314.314 438.224 314.824C437.771 315.277 437.007 315.504 435.931 315.504H416.135C415.399 315.504 414.832 315.759 414.436 316.269C414.039 316.722 413.841 317.316 413.841 318.053C413.841 318.789 414.039 319.412 414.436 319.922C414.832 320.432 415.399 320.715 416.135 320.771L428.794 322.471C432.759 323.037 435.959 324.34 438.394 326.379C440.83 328.418 442.048 331.816 442.048 336.574V345.495C442.048 350.309 440.462 354.019 437.29 356.624C434.175 359.173 429.898 360.448 424.461 360.448Z" fill="white"/>
<path d="M508.18 317.033C508.18 319.639 507.783 322.017 506.99 324.17C506.254 326.265 504.895 328.078 502.912 329.607C500.986 331.08 498.324 332.241 494.926 333.091C491.528 333.94 487.195 334.365 481.927 334.365C476.66 334.365 472.327 333.94 468.928 333.091C465.53 332.241 462.839 331.08 460.857 329.607C458.931 328.078 457.572 326.265 456.779 324.17C456.043 322.017 455.675 319.639 455.675 317.033V274.978C455.675 273.902 455.901 273.137 456.354 272.684C456.864 272.174 457.657 271.92 458.733 271.92H472.072C473.148 271.92 473.913 272.174 474.366 272.684C474.875 273.137 475.13 273.902 475.13 274.978V313.72C475.13 314.853 475.555 315.815 476.405 316.608C477.254 317.345 479.152 317.713 482.097 317.713C485.099 317.713 487.025 317.345 487.874 316.608C488.724 315.815 489.149 314.853 489.149 313.72V274.978C489.149 273.902 489.375 273.137 489.828 272.684C490.338 272.174 491.131 271.92 492.207 271.92H505.121C506.197 271.92 506.962 272.174 507.415 272.684C507.925 273.137 508.18 273.902 508.18 274.978V317.033Z" fill="white"/>
<path d="M538.688 306.328V317.203H545.06C546.533 317.203 547.524 316.835 548.034 316.099C548.543 315.306 548.798 314.343 548.798 313.21V310.321C548.798 309.189 548.543 308.254 548.034 307.518C547.524 306.725 546.533 306.328 545.06 306.328H538.688ZM535.63 352.206H522.546C521.47 352.206 520.677 351.98 520.167 351.527C519.714 351.017 519.487 350.224 519.487 349.148V294.094C519.487 293.018 519.714 292.253 520.167 291.8C520.677 291.29 521.47 291.036 522.546 291.036H550.837C557.181 291.036 561.542 292.367 563.921 295.029C566.357 297.634 567.574 301.032 567.574 305.224V309.132C567.574 311.511 567.206 313.55 566.47 315.249C565.79 316.892 564.573 318.081 562.817 318.817C565.875 319.157 568.339 320.403 570.208 322.556C572.134 324.708 573.097 327.568 573.097 331.136V349.148C573.097 350.224 572.842 351.017 572.332 351.527C571.879 351.98 571.114 352.206 570.038 352.206H556.87C555.793 352.206 555 351.98 554.491 351.527C554.038 351.017 553.811 350.224 553.811 349.148V336.149C553.811 334.903 553.556 333.997 553.046 333.43C552.593 332.807 551.772 332.496 550.582 332.496H538.688V349.148C538.688 350.224 538.433 351.017 537.924 351.527C537.47 351.98 536.706 352.206 535.63 352.206Z" fill="white"/>
<path d="M601.912 331.221H588.743C587.667 331.221 586.874 330.995 586.364 330.542C585.911 330.032 585.685 329.239 585.685 328.163V273.109C585.685 272.033 585.911 271.268 586.364 270.815C586.874 270.305 587.667 270.05 588.743 270.05H626.635C627.711 270.05 628.476 270.305 628.929 270.815C629.439 271.268 629.694 272.033 629.694 273.109V283.219C629.694 284.295 629.439 285.088 628.929 285.598C628.476 286.051 627.711 286.278 626.635 286.278H604.971V295.114H619.754C620.83 295.114 621.594 295.368 622.048 295.878C622.557 296.331 622.812 297.096 622.812 298.172V308.367C622.812 309.443 622.557 310.236 622.048 310.746C621.594 311.199 620.83 311.426 619.754 311.426H604.971V328.163C604.971 329.239 604.716 330.032 604.206 330.542C603.753 330.995 602.988 331.221 601.912 331.221Z" fill="white"/>
<path d="M694.094 342.521H673.364C666.284 342.521 661.016 341.105 657.561 338.273C654.163 335.441 652.464 331.08 652.464 325.189V298.767C652.464 292.876 654.163 288.515 657.561 285.683C661.016 282.794 666.284 281.35 673.364 281.35H694.094C695.17 281.35 695.935 281.605 696.388 282.115C696.898 282.568 697.153 283.333 697.153 284.409V294.689C697.153 295.765 696.898 296.558 696.388 297.068C695.935 297.521 695.17 297.747 694.094 297.747H677.017C675.261 297.747 673.959 298.115 673.109 298.852C672.259 299.531 671.835 300.579 671.835 301.995V322.216C671.835 323.632 672.259 324.68 673.109 325.359C673.959 325.982 675.261 326.294 677.017 326.294H694.094C695.17 326.294 695.935 326.549 696.388 327.058C696.898 327.512 697.153 328.276 697.153 329.352V339.463C697.153 340.539 696.898 341.332 696.388 341.841C695.935 342.295 695.17 342.521 694.094 342.521Z" fill="white"/>
<path d="M753.05 325.869H709.806C708.729 325.869 707.936 325.642 707.427 325.189C706.974 324.68 706.747 323.887 706.747 322.81V267.757C706.747 266.68 706.974 265.916 707.427 265.463C707.936 264.953 708.729 264.698 709.806 264.698H722.974C724.05 264.698 724.815 264.953 725.268 265.463C725.778 265.916 726.033 266.68 726.033 267.757V309.812H737.672V296.048C737.672 294.972 737.899 294.207 738.352 293.754C738.862 293.244 739.655 292.99 740.731 292.99H753.05C754.126 292.99 754.891 293.244 755.344 293.754C755.854 294.207 756.109 294.972 756.109 296.048V322.81C756.109 323.887 755.854 324.68 755.344 325.189C754.891 325.642 754.126 325.869 753.05 325.869Z" fill="white"/>
<path d="M823.083 295.114C823.083 297.719 822.687 300.098 821.894 302.25C821.158 304.346 819.798 306.158 817.816 307.688C815.89 309.16 813.228 310.321 809.83 311.171C806.431 312.021 802.098 312.445 796.831 312.445C791.563 312.445 787.23 312.021 783.832 311.171C780.434 310.321 777.743 309.16 775.761 307.688C773.835 306.158 772.476 304.346 771.683 302.25C770.946 300.098 770.578 297.719 770.578 295.114V253.059C770.578 251.982 770.805 251.218 771.258 250.765C771.768 250.255 772.561 250 773.637 250H786.975C788.052 250 788.816 250.255 789.269 250.765C789.779 251.218 790.034 251.982 790.034 253.059V291.8C790.034 292.933 790.459 293.896 791.308 294.689C792.158 295.425 794.055 295.793 797.001 295.793C800.003 295.793 801.928 295.425 802.778 294.689C803.628 293.896 804.052 292.933 804.052 291.8V253.059C804.052 251.982 804.279 251.218 804.732 250.765C805.242 250.255 806.035 250 807.111 250H820.025C821.101 250 821.866 250.255 822.319 250.765C822.828 251.218 823.083 251.982 823.083 253.059V295.114Z" fill="white"/>
<path d="M876.506 317.713H843.882C842.806 317.713 842.013 317.486 841.503 317.033C841.05 316.523 840.823 315.73 840.823 314.654V259.6C840.823 258.524 841.05 257.76 841.503 257.306C842.013 256.797 842.806 256.542 843.882 256.542H870.984C876.535 256.542 880.641 257.618 883.303 259.77C885.965 261.866 887.296 265.123 887.296 269.541V273.619C887.296 275.998 886.871 277.952 886.022 279.481C885.229 280.954 883.983 282.058 882.284 282.794C885.909 283.134 888.599 284.38 890.355 286.533C892.111 288.685 892.988 291.828 892.988 295.963V303.779C892.988 308.537 891.629 312.049 888.91 314.314C886.248 316.58 882.114 317.713 876.506 317.713ZM859.939 270.985V280.161H867.161C868.237 280.161 869.03 279.877 869.54 279.311C870.106 278.745 870.389 277.895 870.389 276.762V274.383C870.389 273.251 870.106 272.401 869.54 271.835C869.03 271.268 868.237 270.985 867.161 270.985H859.939ZM859.939 293.244V303.27H870.984C872.06 303.27 872.853 302.986 873.363 302.42C873.929 301.854 874.212 301.004 874.212 299.871V296.558C874.212 295.425 873.929 294.604 873.363 294.094C872.853 293.528 872.06 293.244 870.984 293.244H859.939Z" fill="white"/>
</svg>
