<svg width="108" height="102" viewBox="0 0 108 102" fill="none" xmlns="http://www.w3.org/2000/svg">
<g clip-path="url(#clip0)">
<path d="M107.867 53.1027C106.355 86.5759 101.047 101.627 37.7063 101.627C7.11881 101.627 0 77.5755 0 46.988C0 16.4005 12.7297 -11.7185 42.8024 4.98857C68.0038 18.9894 110.689 -9.37537 107.867 53.1027Z" fill="#5EC1BB"/>
<path d="M105.129 73.4892C105.129 88.5687 59.3471 92.6324 44.2676 92.6324C29.1881 92.6324 5.14229 86.8146 5.14229 71.7351C5.14229 56.6556 -6.27635 47.0244 8.80314 47.0244C15.802 47.0244 26.8629 54.0583 32.2936 58.3883C40.4607 60.2187 29.8907 67.3777 35.1155 68.2268C40.9292 69.1716 40.8907 46.777 48.7674 47.7108C70.9613 46.1854 68.5008 62.129 75.2323 63.1931C79.8431 63.922 77.5251 50.8962 82.9353 52.5157C90.4382 54.7615 107.036 54.2698 105.129 73.4892Z" fill="#C9E5E7" fill-opacity="0.7"/>
<path d="M8.93336 47.9758C10.2767 48.611 11.764 48.8782 13.101 49.4967C13.4583 49.6619 13.6898 50.0571 13.9556 50.3217C14.4263 50.7903 15.1416 51.1072 15.7726 51.3249C16.1686 51.4615 16.5955 51.5643 17.0021 51.6728C17.4577 51.7945 17.9474 51.8991 18.4279 51.8901C18.6472 51.8861 18.7383 51.8356 18.9116 51.9432C19.2378 52.1457 19.6338 52.2789 19.9764 52.4724C20.3682 52.6938 20.629 53.0839 21.012 53.3276C21.5311 53.6578 22.0847 53.9292 22.6065 54.253C22.7059 54.3148 23.7119 55.2931 23.7039 55.1697C23.6855 54.8836 22.7849 53.4755 23.648 53.5666C23.9722 53.6008 24.1721 53.7805 24.4731 53.8572C24.9097 53.9685 25.514 53.9208 25.8695 54.154C26.0957 54.3023 26.2681 54.5149 26.4977 54.661C26.9094 54.9229 27.3711 54.95 27.7379 55.237C27.9567 55.4082 28.231 55.4926 28.4179 55.703C28.646 55.9596 28.7983 56.2472 29.045 56.487C29.4422 56.8732 29.8841 57.2986 30.3407 57.6298C30.5384 57.7733 31.3255 58.7466 31.448 58.5787C31.5933 58.3798 32.1112 58.7427 32.2202 58.6441C32.3281 58.5465 32.2324 58.2277 32.2324 58.2277C32.2324 58.2277 32.786 58.8109 33.1163 59.0438C33.6693 59.4336 34.4973 59.7389 34.8418 60.3266C35.0055 60.6059 34.9644 61.0878 34.9006 61.3955C34.8077 61.8443 34.6004 62.322 34.4741 62.7741C34.3676 63.1555 34.2644 63.5473 34.126 63.9173C33.9561 64.3713 33.5426 64.6051 33.233 64.9658C32.4122 65.9221 33.0166 67.3413 33.8615 68.1044C34.1498 68.3648 34.4743 68.5659 34.7566 68.8164C34.9752 69.0103 35.8376 67.9804 35.9648 67.8675C36.4015 67.48 36.8764 67.0398 37.4467 66.865C37.9614 66.7074 38.4683 67.0244 38.9779 67.0752C39.5817 67.1355 40.3583 67.0318 40.9119 67.3029C41.3724 67.5284 41.7572 67.6572 42.2693 67.7877C42.6318 67.8801 42.957 68.0255 43.331 68.0965C43.694 68.1654 43.9271 68.5028 44.235 68.6799C44.5422 68.8567 44.6453 69.6425 44.7777 69.9427C44.9229 70.272 44.7085 69.4186 44.8048 69.7331C45.0811 70.6348 45.2591 71.555 45.4462 72.4753C45.5267 72.8715 45.4909 73.235 45.6153 73.6412C45.758 74.1069 46.052 74.4342 46.3194 74.8344C47.0197 75.8826 48.1258 76.4693 48.5121 77.7302C48.6022 78.024 48.1987 78.1371 47.9119 78.1908C47.4552 78.2765 46.9997 78.3811 46.5342 78.3764C45.5895 78.3669 44.7044 77.8638 43.8954 77.4791C43.202 77.1493 42.2498 76.8739 41.6522 76.4002C41.3201 76.1369 41.2586 75.519 41.1446 75.1468C40.8588 74.2141 40.8758 73.3878 41.0437 72.4152C41.1635 71.7213 41.4023 71.0313 41.6105 70.3545C41.8011 69.7348 42.1422 69.1494 42.2435 68.5101C42.4109 67.4541 42.4166 66.3637 42.5337 65.3015C42.6273 64.4527 42.7596 63.6875 42.9449 62.8558C43.151 61.9307 43.1531 60.9727 43.2904 60.0377C43.5358 58.3658 43.8084 56.6605 44.5233 55.1011C44.9713 54.1239 46.0425 53.5912 47.1609 53.7496C48.1266 53.8863 49.7616 54.2845 50.3828 55.0419C51.0516 55.8572 50.9778 54.1996 50.9288 53.8078C50.8026 52.7983 49.8551 52.0527 49.1276 51.4009C48.59 50.9193 47.2628 49.4005 48.0251 48.6793C48.3353 48.386 48.6069 48.4654 49.0426 48.4582C50.7454 48.4297 52.3841 48.8082 54.0326 49.1031C54.8721 49.2533 55.6067 49.5645 56.4031 49.826C56.8834 49.9838 57.3851 50.054 57.8118 50.3203C59.0956 51.1217 57.683 49.2245 58.6068 49.5132C59.6389 49.8357 60.3431 50.822 61.3898 51.1966C62.1605 51.4725 62.9084 51.7295 63.6468 52.0751C64.0372 52.2578 64.5049 52.3436 64.8645 52.5775C64.9096 52.6069 65.0359 52.7512 65.0317 52.7376C64.9636 52.5153 64.8955 52.2929 64.8274 52.0706C64.7579 51.8437 64.0935 50.5695 64.4562 50.403C64.5562 50.3571 64.827 51.1047 64.8445 51.1445C65.3276 52.2446 66.038 53.2153 66.7265 54.2009C67.8118 55.7547 68.6859 57.3977 69.6656 59.0066C70.307 60.06 71.4441 60.7937 72.1137 61.8242C72.6053 62.5806 73.1318 63.2278 73.7608 63.8858C74.0541 64.1926 74.25 64.5294 74.6147 64.7614C74.8076 64.8842 75.316 64.9025 75.5351 64.9424C76.4247 65.1043 77.3441 65.0351 78.2357 65.1817C78.7206 65.2615 79.194 65.5171 79.5434 65.8378C81.0992 67.2655 82.43 68.865 83.1467 70.8475C83.6236 72.1664 84.2058 73.6782 84.1184 75.1238C84.0937 75.5331 84.1186 75.8423 83.7328 76.0923C83.0158 76.557 82.4488 76.5325 81.6946 76.2086C79.7954 75.3929 79.1272 73.4677 78.2464 71.7753C77.8506 71.0146 77.6176 70.2033 77.404 69.3765C77.2283 68.6964 76.9767 67.948 77.1123 67.2317C77.2832 66.3282 77.1662 65.3554 77.224 64.44C77.287 63.4436 77.1459 62.4574 77.2022 61.4578C77.2328 60.9143 77.2907 59.9478 77.7473 59.5195C77.908 59.3688 78.5828 58.8101 78.6436 58.9027C78.8411 59.2037 79.1138 59.4367 79.3339 59.7178C79.4251 59.8343 79.3857 59.6053 79.3912 59.5191C79.4334 58.8628 79.289 58.189 79.2667 57.5344C79.2331 56.5466 79.2719 55.3573 79.9383 54.5007C80.3134 54.0185 81.3932 53.734 81.9447 53.6143C82.6379 53.4638 83.3099 53.7469 83.9707 53.8791C84.8627 54.0577 85.7818 54.0476 86.6749 54.218C87.8025 54.4332 88.8975 54.7487 90.0421 54.8973C90.5965 54.9692 91.1822 54.9476 91.6471 55.2609C94.1842 56.9709 96.7343 58.6563 99.3937 60.2039C100.019 60.5681 100.715 60.8575 101.324 61.2429C101.585 61.4085 101.684 61.7621 101.819 62.0171C102.259 62.8503 102.874 63.6018 103.161 64.5042C103.439 65.3762 103.768 66.3349 103.791 67.2601C103.822 68.5597 103.564 69.9929 103.196 71.2464C102.73 72.8359 102.374 74.3526 102.107 75.9679C101.902 77.2035 101.59 78.4887 100.779 79.5247C99.1182 81.6458 96.3046 82.9206 93.8084 83.8844C90.7632 85.06 87.587 85.9676 84.4738 86.9456C80.9456 88.0539 77.3843 89.0614 73.752 89.7575C71.42 90.2044 69.0603 90.5187 66.7046 90.7794C63.7755 91.1036 60.8589 91.0517 57.9296 91.0023C53.9139 90.9345 49.868 90.9723 45.8731 90.6505C40.9063 90.2504 35.9974 89.3331 31.1051 88.533C29.3596 88.2475 27.6118 87.9662 25.872 87.6556C24.6822 87.4431 23.4953 87.221 22.4048 86.7202C19.7606 85.5056 17.6883 83.4064 15.8887 81.2694C12.4692 77.2086 9.10629 73.0143 7.24909 68.0458C6.39487 65.7605 5.57872 63.4862 5.18689 61.0694C4.94271 59.5632 4.60889 58.0758 4.80519 56.5268C4.97309 55.2018 5.63778 53.6293 6.44286 52.543C6.945 51.8654 7.12911 51.0732 7.53239 50.3473C7.76874 49.922 8.02105 49.5097 8.26367 49.0867C8.40953 48.8325 8.50602 48.4152 8.71887 48.2227" stroke="#256D69" stroke-width="0.831683" stroke-linecap="round" stroke-linejoin="round"/>
<path d="M23.1286 48.9999H13.6183C13.2371 48.9999 12.9562 48.9197 12.7757 48.7592C12.6151 48.5786 12.5349 48.2977 12.5349 47.9165V44.3953C12.5349 44.0141 12.6151 43.7432 12.7757 43.5827C12.9562 43.4021 13.2371 43.3119 13.6183 43.3119H21.7141C21.9749 43.3119 22.1655 43.2316 22.2859 43.0711C22.4263 42.8905 22.4966 42.6798 22.4966 42.4391C22.4966 42.098 22.4263 41.8472 22.2859 41.6867C22.1655 41.5262 21.9749 41.4359 21.7141 41.4158L17.1997 40.7838C15.7953 40.5832 14.6617 40.1217 13.7989 39.3994C12.9562 38.6771 12.5349 37.4733 12.5349 35.7879V32.6279C12.5349 30.9225 13.0866 29.6183 14.1902 28.7155C15.2937 27.7925 16.8185 27.3311 18.7647 27.3311H27.1915C27.5727 27.3311 27.8436 27.4213 28.0041 27.6019C28.1846 27.7624 28.2749 28.0333 28.2749 28.4145V31.9959C28.2749 32.3771 28.1846 32.658 28.0041 32.8386C27.8436 32.9991 27.5727 33.0793 27.1915 33.0793H20.1792C19.9184 33.0793 19.7177 33.1696 19.5773 33.3502C19.4368 33.5107 19.3666 33.7214 19.3666 33.9822C19.3666 34.243 19.4368 34.4637 19.5773 34.6443C19.7177 34.8249 19.9184 34.9252 20.1792 34.9453L24.6634 35.5472C26.0679 35.7478 27.2015 36.2093 28.0643 36.9316C28.927 37.6539 29.3584 38.8577 29.3584 40.5431V43.7031C29.3584 45.4085 28.7966 46.7227 27.673 47.6456C26.5695 48.5485 25.0547 48.9999 23.1286 48.9999ZM51.0992 43.3119C51.0992 44.2348 50.9587 45.0775 50.6779 45.8399C50.417 46.5823 49.9355 47.2243 49.2333 47.766C48.5511 48.2877 47.6081 48.699 46.4043 48.9999C45.2004 49.3009 43.6656 49.4514 41.7996 49.4514C39.9337 49.4514 38.3988 49.3009 37.195 48.9999C35.9912 48.699 35.0381 48.2877 34.3359 47.766C33.6537 47.2243 33.1722 46.5823 32.8913 45.8399C32.6305 45.0775 32.5001 44.2348 32.5001 43.3119V28.4145C32.5001 28.0333 32.5803 27.7624 32.7408 27.6019C32.9214 27.4213 33.2023 27.3311 33.5835 27.3311H38.3085C38.6897 27.3311 38.9606 27.4213 39.1211 27.6019C39.3017 27.7624 39.392 28.0333 39.392 28.4145V42.1381C39.392 42.5394 39.5425 42.8805 39.8434 43.1614C40.1444 43.4222 40.8165 43.5526 41.8598 43.5526C42.9232 43.5526 43.6054 43.4222 43.9063 43.1614C44.2073 42.8805 44.3578 42.5394 44.3578 42.1381V28.4145C44.3578 28.0333 44.438 27.7624 44.5985 27.6019C44.7791 27.4213 45.06 27.3311 45.4412 27.3311H50.0158C50.397 27.3311 50.6678 27.4213 50.8283 27.6019C51.0089 27.7624 51.0992 28.0333 51.0992 28.4145V43.3119ZM61.9064 32.7483V36.6005H64.1635C64.6852 36.6005 65.0363 36.4701 65.2169 36.2093C65.3975 35.9284 65.4877 35.5873 65.4877 35.186V34.1628C65.4877 33.7615 65.3975 33.4304 65.2169 33.1696C65.0363 32.8887 64.6852 32.7483 64.1635 32.7483H61.9064ZM60.8229 48.9999H56.1882C55.807 48.9999 55.5261 48.9197 55.3455 48.7592C55.185 48.5786 55.1047 48.2977 55.1047 47.9165V28.4145C55.1047 28.0333 55.185 27.7624 55.3455 27.6019C55.5261 27.4213 55.807 27.3311 56.1882 27.3311H66.21C68.4572 27.3311 70.0021 27.8026 70.8448 28.7456C71.7075 29.6685 72.1389 30.8723 72.1389 32.357V33.7414C72.1389 34.5841 72.0085 35.3064 71.7476 35.9083C71.5069 36.4902 71.0755 36.9115 70.4535 37.1723C71.537 37.2927 72.4097 37.7341 73.0718 38.4966C73.754 39.259 74.0951 40.2722 74.0951 41.5362V47.9165C74.0951 48.2977 74.0048 48.5786 73.8242 48.7592C73.6637 48.9197 73.3929 48.9999 73.0117 48.9999H68.3468C67.9656 48.9999 67.6847 48.9197 67.5042 48.7592C67.3436 48.5786 67.2634 48.2977 67.2634 47.9165V43.3119C67.2634 42.8705 67.1731 42.5494 66.9925 42.3488C66.832 42.1281 66.5411 42.0177 66.1198 42.0177H61.9064V47.9165C61.9064 48.2977 61.8161 48.5786 61.6355 48.7592C61.475 48.9197 61.2041 48.9999 60.8229 48.9999ZM83.219 48.9999H78.5542C78.173 48.9999 77.8921 48.9197 77.7115 48.7592C77.551 48.5786 77.4708 48.2977 77.4708 47.9165V28.4145C77.4708 28.0333 77.551 27.7624 77.7115 27.6019C77.8921 27.4213 78.173 27.3311 78.5542 27.3311H91.9769C92.3581 27.3311 92.6289 27.4213 92.7894 27.6019C92.97 27.7624 93.0603 28.0333 93.0603 28.4145V31.9959C93.0603 32.3771 92.97 32.658 92.7894 32.8386C92.6289 32.9991 92.3581 33.0793 91.9769 33.0793H84.3025V36.2093H89.5391C89.9203 36.2093 90.1912 36.2996 90.3517 36.4801C90.5323 36.6407 90.6226 36.9115 90.6226 37.2927V40.9042C90.6226 41.2854 90.5323 41.5663 90.3517 41.7469C90.1912 41.9074 89.9203 41.9876 89.5391 41.9876H84.3025V47.9165C84.3025 48.2977 84.2122 48.5786 84.0316 48.7592C83.8711 48.9197 83.6002 48.9999 83.219 48.9999ZM27.4924 79.9999H20.1491C17.6411 79.9999 15.7752 79.4983 14.5513 78.4952C13.3475 77.492 12.7456 75.9471 12.7456 73.8604V64.5007C12.7456 62.414 13.3475 60.8691 14.5513 59.8659C15.7752 58.8427 17.6411 58.3311 20.1491 58.3311H27.4924C27.8737 58.3311 28.1445 58.4213 28.305 58.6019C28.4856 58.7624 28.5759 59.0333 28.5759 59.4145V63.0561C28.5759 63.4373 28.4856 63.7182 28.305 63.8988C28.1445 64.0593 27.8737 64.1395 27.4924 64.1395H21.4432C20.8212 64.1395 20.3598 64.2699 20.0588 64.5308C19.7579 64.7715 19.6074 65.1427 19.6074 65.6443V72.8071C19.6074 73.3087 19.7579 73.6798 20.0588 73.9206C20.3598 74.1413 20.8212 74.2517 21.4432 74.2517H27.4924C27.8737 74.2517 28.1445 74.342 28.305 74.5225C28.4856 74.683 28.5759 74.9539 28.5759 75.3351V78.9165C28.5759 79.2977 28.4856 79.5786 28.305 79.7592C28.1445 79.9197 27.8737 79.9999 27.4924 79.9999ZM48.3767 79.9999H33.058C32.6768 79.9999 32.3959 79.9197 32.2153 79.7592C32.0548 79.5786 31.9746 79.2977 31.9746 78.9165V59.4145C31.9746 59.0333 32.0548 58.7624 32.2153 58.6019C32.3959 58.4213 32.6768 58.3311 33.058 58.3311H37.7228C38.1041 58.3311 38.3749 58.4213 38.5354 58.6019C38.716 58.7624 38.8063 59.0333 38.8063 59.4145V74.3119H42.9294V69.4364C42.9294 69.0551 43.0097 68.7843 43.1702 68.6238C43.3507 68.4432 43.6316 68.3529 44.0128 68.3529H48.3767C48.7579 68.3529 49.0288 68.4432 49.1893 68.6238C49.3699 68.7843 49.4602 69.0551 49.4602 69.4364V78.9165C49.4602 79.2977 49.3699 79.5786 49.1893 79.7592C49.0288 79.9197 48.7579 79.9999 48.3767 79.9999ZM71.3491 74.3119C71.3491 75.2348 71.2087 76.0775 70.9278 76.8399C70.6669 77.5823 70.1854 78.2243 69.4832 78.766C68.801 79.2877 67.858 79.699 66.6542 79.9999C65.4504 80.3009 63.9155 80.4514 62.0496 80.4514C60.1836 80.4514 58.6487 80.3009 57.4449 79.9999C56.2411 79.699 55.2881 79.2877 54.5858 78.766C53.9037 78.2243 53.4221 77.5823 53.1412 76.8399C52.8804 76.0775 52.75 75.2348 52.75 74.3119V59.4145C52.75 59.0333 52.8302 58.7624 52.9908 58.6019C53.1713 58.4213 53.4522 58.3311 53.8334 58.3311H58.5585C58.9397 58.3311 59.2105 58.4213 59.371 58.6019C59.5516 58.7624 59.6419 59.0333 59.6419 59.4145V73.1381C59.6419 73.5394 59.7924 73.8805 60.0933 74.1614C60.3943 74.4222 61.0664 74.5526 62.1097 74.5526C63.1731 74.5526 63.8553 74.4222 64.1562 74.1614C64.4572 73.8805 64.6077 73.5394 64.6077 73.1381V59.4145C64.6077 59.0333 64.6879 58.7624 64.8484 58.6019C65.029 58.4213 65.3099 58.3311 65.6911 58.3311H70.2657C70.6469 58.3311 70.9177 58.4213 71.0783 58.6019C71.2588 58.7624 71.3491 59.0333 71.3491 59.4145V74.3119ZM87.9948 79.9999H76.4381C76.0569 79.9999 75.776 79.9197 75.5954 79.7592C75.4349 79.5786 75.3547 79.2977 75.3547 78.9165V59.4145C75.3547 59.0333 75.4349 58.7624 75.5954 58.6019C75.776 58.4213 76.0569 58.3311 76.4381 58.3311H86.0386C88.0049 58.3311 89.4595 58.7123 90.4025 59.4747C91.3455 60.2171 91.817 61.3707 91.817 62.9357V64.3803C91.817 65.223 91.6665 65.9152 91.3655 66.4569C91.0847 66.9785 90.6433 67.3698 90.0413 67.6306C91.3254 67.751 92.2784 68.1924 92.9004 68.9548C93.5224 69.7173 93.8334 70.8308 93.8334 72.2954V75.0643C93.8334 76.7496 93.3519 77.9936 92.3888 78.7961C91.4458 79.5987 89.9811 79.9999 87.9948 79.9999ZM82.1262 63.4473V66.6977H84.6843C85.0655 66.6977 85.3464 66.5973 85.527 66.3967C85.7276 66.1961 85.8279 65.8951 85.8279 65.4938V64.6511C85.8279 64.2499 85.7276 63.9489 85.527 63.7483C85.3464 63.5476 85.0655 63.4473 84.6843 63.4473H82.1262ZM82.1262 71.3324V74.8837H86.0386C86.4198 74.8837 86.7007 74.7834 86.8813 74.5827C87.0819 74.3821 87.1822 74.0811 87.1822 73.6798V72.5061C87.1822 72.1048 87.0819 71.8139 86.8813 71.6333C86.7007 71.4327 86.4198 71.3324 86.0386 71.3324H82.1262Z" fill="white"/>
</g>
<defs>
<clipPath id="clip0">
<rect width="108" height="102" fill="white"/>
</clipPath>
</defs>
</svg>
