<svg width="118" height="159" viewBox="0 0 118 159" fill="none" xmlns="http://www.w3.org/2000/svg">
<g clip-path="url(#clip0)">
<path d="M57.8182 1.05194C32.3183 -1.44794 -7.18169 87.0518 3.81819 101.052C25.8181 103.052 69.8181 15.5521 57.8182 1.05194Z" stroke="black" stroke-width="2" stroke-linecap="round" stroke-linejoin="round"/>
<path d="M3.81836 101.052C20.1517 73.5518 53.8184 15.1518 57.8184 1.55176" stroke="black" stroke-width="2"/>
<path d="M55.8905 8.1037C30.3906 5.60382 -9.10942 94.1035 1.89046 108.104C23.8904 110.104 67.8904 22.6038 55.8905 8.1037Z" fill="#0D8973" fill-opacity="0.5"/>
<path d="M65.3976 30.6169C47.4191 48.8724 91.3942 135.236 109.197 135.486C124.586 119.638 84.218 30.4042 65.3976 30.6169Z" stroke="black" stroke-width="2" stroke-linecap="round" stroke-linejoin="round"/>
<path d="M109.197 135.486C98.0846 105.494 73.8456 42.5933 65.7861 30.9312" stroke="black" stroke-width="2"/>
<path d="M69.6681 36.5501C51.6896 54.8056 95.6647 141.169 113.467 141.42C128.857 125.571 88.4885 36.3374 69.6681 36.5501Z" fill="#1CA663" fill-opacity="0.5"/>
<path d="M53.282 72.7489C36.8492 80.2034 43.9212 148.089 55.56 152.754C69.6821 146.227 65.7067 77.3671 53.282 72.7489Z" stroke="black" stroke-width="2" stroke-linecap="round" stroke-linejoin="round"/>
<path d="M55.5598 152.754C55.838 130.231 55.8072 82.7571 53.4578 73.0538" stroke="black" stroke-width="2"/>
<path d="M54.5891 77.7286C38.1563 85.1831 45.2283 153.069 56.8671 157.734C70.9893 151.207 67.0138 82.3467 54.5891 77.7286Z" fill="#24CF87" fill-opacity="0.5"/>
</g>
<defs>
<clipPath id="clip0">
<rect width="118" height="159" fill="white"/>
</clipPath>
</defs>
</svg>
