<svg width="187" height="172" viewBox="0 0 187 172" fill="none" xmlns="http://www.w3.org/2000/svg">
<path d="M186.102 86.5692C186.102 138.735 172.332 172 64.3069 172C12.1409 172 0 130.981 0 78.815C0 26.6489 12.1409 0.737551 64.3069 0.737551C116.473 0.737551 175.273 -13.8349 186.102 86.5692Z" fill="#5EC1BB"/>
<path d="M171.801 91.9268C171.801 116.167 98.2056 122.7 73.9652 122.7C49.7247 122.7 11.0707 113.347 11.0707 89.107C11.0707 64.8665 -7.28497 49.3842 16.9555 49.3842C28.2063 49.3842 45.9868 60.6913 54.7167 67.6518C67.8455 70.5942 50.8541 82.1024 59.253 83.4673C68.5987 84.9861 68.5368 48.9866 81.1986 50.4876C116.876 48.0355 112.92 73.6651 123.741 75.3756C131.153 76.5473 127.427 55.6081 136.124 58.2115C148.185 61.8217 174.866 61.0313 171.801 91.9268Z" fill="#C9E5E7" fill-opacity="0.8"/>
<path d="M17.1648 50.9129C19.3242 51.9341 21.715 52.3636 23.8644 53.3577C24.4386 53.6233 24.8108 54.2587 25.2381 54.6841C25.9948 55.4374 27.1446 55.9467 28.159 56.2967C28.7955 56.5163 29.4818 56.6815 30.1354 56.856C30.8679 57.0515 31.655 57.2196 32.4275 57.2053C32.78 57.1987 32.9264 57.1177 33.205 57.2906C33.7293 57.6161 34.366 57.8303 34.9166 58.1413C35.5464 58.4971 35.9657 59.1243 36.5814 59.516C37.4158 60.0468 38.3058 60.4831 39.1445 61.0036C39.3044 61.1029 40.9215 62.6756 40.9087 62.4772C40.8791 62.0172 39.4313 59.7537 40.8187 59.9002C41.34 59.9552 41.6613 60.2441 42.1451 60.3674C42.847 60.5463 43.8184 60.4696 44.3899 60.8445C44.7536 61.0829 45.0306 61.4247 45.3996 61.6594C46.0615 62.0805 46.8037 62.124 47.3934 62.5855C47.7451 62.8607 48.1861 62.9963 48.4865 63.3345C48.8531 63.747 49.0979 64.2093 49.4945 64.5949C50.133 65.2157 50.8434 65.8994 51.5774 66.4319C51.8952 66.6625 53.1605 68.2272 53.3575 67.9573C53.5909 67.6374 54.4235 68.2209 54.5988 68.0623C54.7722 67.9054 54.6183 67.3931 54.6183 67.3931C54.6183 67.3931 55.5083 68.3305 56.0393 68.7049C56.9282 69.3316 58.2591 69.8223 58.813 70.7671C59.0761 71.216 59.01 71.9906 58.9076 72.4853C58.7581 73.2068 58.425 73.9747 58.2219 74.7014C58.0506 75.3145 57.8848 75.9444 57.6623 76.5391C57.3892 77.2689 56.7245 77.6447 56.2268 78.2246C54.9074 79.7618 55.879 82.0432 57.2371 83.2699C57.7006 83.6885 58.2222 84.0119 58.676 84.4145C59.0274 84.7263 60.4138 83.0706 60.6182 82.8892C61.3202 82.2662 62.0836 81.5585 63.0005 81.2776C63.8278 81.0242 64.6426 81.5338 65.4618 81.6155C66.4324 81.7124 67.6808 81.5457 68.5708 81.9815C69.311 82.344 69.9295 82.5511 70.7528 82.7609C71.3355 82.9094 71.8582 83.1431 72.4594 83.2572C73.0431 83.368 73.4177 83.9103 73.9127 84.1951C74.4066 84.4792 74.5723 85.7425 74.7851 86.2251C75.0186 86.7544 74.6738 85.3825 74.8287 85.8882C75.2728 87.3376 75.559 88.8169 75.8597 90.2962C75.9891 90.9331 75.9316 91.5174 76.1316 92.1704C76.361 92.919 76.8336 93.4453 77.2634 94.0885C78.3892 95.7735 80.1673 96.7166 80.7883 98.7435C80.933 99.2158 80.2843 99.3976 79.8233 99.484C79.0892 99.6217 78.357 99.7899 77.6087 99.7824C76.0901 99.767 74.6672 98.9584 73.3667 98.3399C72.2521 97.8098 70.7214 97.3671 69.7607 96.6055C69.2269 96.1823 69.1281 95.1891 68.9448 94.5906C68.4855 93.0915 68.5127 91.7631 68.7826 90.1995C68.9752 89.0842 69.359 87.975 69.6937 86.8871C70.0002 85.8909 70.5484 84.9499 70.7113 83.9222C70.9804 82.2247 70.9896 80.4717 71.1779 78.7642C71.3283 77.3997 71.541 76.1697 71.8388 74.8327C72.1701 73.3457 72.1735 71.8057 72.3942 70.3027C72.7888 67.6151 73.2269 64.8738 74.3761 62.367C75.0963 60.796 76.8182 59.9398 78.616 60.1944C80.1685 60.4142 82.7967 61.0543 83.7953 62.2718C84.8704 63.5825 84.7518 60.9178 84.6731 60.288C84.4702 58.6652 82.947 57.4665 81.7776 56.4189C80.9134 55.6447 78.7798 53.2031 80.0054 52.0439C80.5039 51.5723 80.9405 51.7 81.641 51.6883C84.3782 51.6426 87.0124 52.2511 89.6625 52.7251C91.0119 52.9665 92.1929 53.4667 93.4731 53.8872C94.2452 54.1408 95.0517 54.2537 95.7375 54.6818C97.8014 55.9701 95.5305 52.9202 97.0155 53.3843C98.6746 53.9028 99.8067 55.4882 101.489 56.0904C102.728 56.5339 103.93 56.9471 105.117 57.5025C105.745 57.7963 106.497 57.9343 107.075 58.3103C107.147 58.3574 107.35 58.5895 107.344 58.5676C107.234 58.2102 107.125 57.8528 107.015 57.4954C106.903 57.1306 105.835 55.0824 106.418 54.8148C106.579 54.741 107.015 55.9426 107.043 56.0067C107.819 57.7751 108.961 59.3355 110.068 60.9199C111.813 63.4176 113.218 66.0587 114.793 68.6452C115.824 70.3384 117.652 71.5179 118.728 73.1744C119.518 74.3904 120.365 75.4308 121.376 76.4885C121.847 76.9816 122.162 77.5231 122.748 77.8961C123.059 78.0934 123.876 78.1228 124.228 78.1869C125.658 78.4472 127.136 78.336 128.569 78.5717C129.349 78.6999 130.11 79.1109 130.671 79.6263C133.172 81.9214 135.312 84.4926 136.464 87.6796C137.23 89.7997 138.166 92.2298 138.026 94.5538C137.986 95.2117 138.026 95.7088 137.406 96.1107C136.253 96.8576 135.342 96.8183 134.13 96.2975C131.077 94.9863 130.002 91.8915 128.587 89.1709C127.95 87.9481 127.576 86.6439 127.232 85.3149C126.95 84.2215 126.545 83.0185 126.763 81.8671C127.038 80.4146 126.85 78.8509 126.943 77.3794C127.044 75.7776 126.817 74.1923 126.908 72.5854C126.957 71.7117 127.05 70.1581 127.784 69.4696C128.043 69.2273 129.127 68.3292 129.225 68.4781C129.542 68.9619 129.981 69.3364 130.335 69.7883C130.481 69.9756 130.418 69.6075 130.427 69.4689C130.495 68.4139 130.262 67.3308 130.227 66.2785C130.173 64.6907 130.235 62.7789 131.306 61.4018C131.909 60.6267 133.645 60.1692 134.532 59.9768C135.646 59.735 136.726 60.19 137.788 60.4026C139.222 60.6896 140.7 60.6735 142.135 60.9474C143.948 61.2933 145.708 61.8004 147.548 62.0393C148.439 62.155 149.381 62.1202 150.128 62.6239C154.207 65.3727 158.306 68.0819 162.581 70.5698C163.587 71.1552 164.705 71.6204 165.684 72.24C166.104 72.5061 166.263 73.0746 166.48 73.4845C167.187 74.8238 168.176 76.032 168.637 77.4826C169.084 78.8843 169.614 80.4254 169.649 81.9127C169.699 84.0018 169.284 86.3058 168.693 88.3207C167.944 90.876 167.371 93.3139 166.942 95.9106C166.614 97.8969 166.111 99.9628 164.808 101.628C162.138 105.038 157.615 107.087 153.603 108.636C148.707 110.526 143.602 111.985 138.597 113.557C132.925 115.339 127.201 116.959 121.362 118.078C117.613 118.796 113.82 119.301 110.033 119.72C105.324 120.242 100.636 120.158 95.9269 120.079C89.4716 119.97 82.9678 120.03 76.5459 119.513C68.5618 118.87 60.6707 117.395 52.8062 116.109C50.0002 115.65 47.1907 115.198 44.3939 114.699C42.4813 114.357 40.5733 114 38.8204 113.195C34.5697 111.243 31.2385 107.868 28.3456 104.433C22.8488 97.9051 17.4428 91.1627 14.4573 83.1757C13.0841 79.5021 11.7722 75.8462 11.1423 71.961C10.7498 69.5399 10.2132 67.1488 10.5287 64.6587C10.7986 62.5289 11.8671 60.001 13.1613 58.2547C13.9685 57.1655 14.2644 55.892 14.9127 54.7252C15.2926 54.0415 15.6982 53.3786 16.0883 52.6988C16.3227 52.2901 16.4778 51.6193 16.82 51.3098" stroke="#256D69" stroke-width="1.33694" stroke-linecap="round" stroke-linejoin="round"/>
<path d="M42.3123 64.6691H27.6897C27.1036 64.6691 26.6717 64.5457 26.394 64.2989C26.1473 64.0212 26.0239 63.5893 26.0239 63.0032V57.5891C26.0239 57.003 26.1473 56.5865 26.394 56.3397C26.6717 56.0621 27.1036 55.9233 27.6897 55.9233H40.1374C40.5385 55.9233 40.8316 55.7999 41.0167 55.5531C41.2326 55.2754 41.3406 54.9515 41.3406 54.5813C41.3406 54.0569 41.2326 53.6713 41.0167 53.4245C40.8316 53.1777 40.5385 53.0389 40.1374 53.008L33.1963 52.0362C31.0369 51.7278 29.2939 51.0182 27.9674 49.9076C26.6717 48.7971 26.0239 46.9461 26.0239 44.3548V39.496C26.0239 36.8738 26.8722 34.8686 28.5689 33.4803C30.2656 32.0613 32.6102 31.3517 35.6026 31.3517H48.5593C49.1455 31.3517 49.5619 31.4906 49.8087 31.7682C50.0864 32.015 50.2252 32.4315 50.2252 33.0176V38.5242C50.2252 39.1104 50.0864 39.5422 49.8087 39.8199C49.5619 40.0667 49.1455 40.1901 48.5593 40.1901H37.7775C37.3764 40.1901 37.0679 40.3289 36.852 40.6066C36.636 40.8533 36.5281 41.1773 36.5281 41.5783C36.5281 41.9793 36.636 42.3187 36.852 42.5963C37.0679 42.874 37.3764 43.0282 37.7775 43.0591L44.6723 43.9846C46.8318 44.2931 48.5748 45.0026 49.9013 46.1132C51.2278 47.2237 51.8911 49.0747 51.8911 51.6661V56.5248C51.8911 59.147 51.0273 61.1677 49.2997 62.5867C47.603 63.975 45.2739 64.6691 42.3123 64.6691ZM85.319 55.9233C85.319 57.3423 85.1031 58.638 84.6712 59.8103C84.2701 60.9517 83.5298 61.9389 82.45 62.7718C81.4011 63.5739 79.9512 64.2063 78.1003 64.6691C76.2493 65.1318 73.8893 65.3632 71.0203 65.3632C68.1513 65.3632 65.7914 65.1318 63.9404 64.6691C62.0894 64.2063 60.6241 63.5739 59.5444 62.7718C58.4955 61.9389 57.7551 60.9517 57.3232 59.8103C56.9222 58.638 56.7216 57.3423 56.7216 55.9233V33.0176C56.7216 32.4315 56.845 32.015 57.0918 31.7682C57.3695 31.4906 57.8014 31.3517 58.3875 31.3517H65.6525C66.2387 31.3517 66.6551 31.4906 66.9019 31.7682C67.1796 32.015 67.3184 32.4315 67.3184 33.0176V54.1186C67.3184 54.7356 67.5498 55.26 68.0125 55.6919C68.4753 56.0929 69.5087 56.2935 71.1129 56.2935C72.7479 56.2935 73.7968 56.0929 74.2595 55.6919C74.7223 55.26 74.9536 54.7356 74.9536 54.1186V33.0176C74.9536 32.4315 75.077 32.015 75.3238 31.7682C75.6015 31.4906 76.0334 31.3517 76.6195 31.3517H83.6531C84.2393 31.3517 84.6558 31.4906 84.9025 31.7682C85.1802 32.015 85.319 32.4315 85.319 33.0176V55.9233ZM101.936 39.6811V45.6042H105.406C106.208 45.6042 106.748 45.4036 107.026 45.0026C107.304 44.5707 107.442 44.0463 107.442 43.4293V41.856C107.442 41.239 107.304 40.7299 107.026 40.3289C106.748 39.897 106.208 39.6811 105.406 39.6811H101.936ZM100.27 64.6691H93.1437C92.5575 64.6691 92.1256 64.5457 91.848 64.2989C91.6012 64.0212 91.4778 63.5893 91.4778 63.0032V33.0176C91.4778 32.4315 91.6012 32.015 91.848 31.7682C92.1256 31.4906 92.5575 31.3517 93.1437 31.3517H108.553C112.008 31.3517 114.383 32.0767 115.679 33.5266C117.006 34.9457 117.669 36.7967 117.669 39.0795V41.2081C117.669 42.5038 117.468 43.6144 117.067 44.5398C116.697 45.4345 116.034 46.0823 115.078 46.4834C116.743 46.6685 118.085 47.3471 119.103 48.5194C120.152 49.6917 120.677 51.2496 120.677 53.1931V63.0032C120.677 63.5893 120.538 64.0212 120.26 64.2989C120.013 64.5457 119.597 64.6691 119.011 64.6691H111.838C111.252 64.6691 110.82 64.5457 110.543 64.2989C110.296 64.0212 110.173 63.5893 110.173 63.0032V55.9233C110.173 55.2446 110.034 54.751 109.756 54.4425C109.509 54.1032 109.062 53.9335 108.414 53.9335H101.936V63.0032C101.936 63.5893 101.797 64.0212 101.519 64.2989C101.272 64.5457 100.856 64.6691 100.27 64.6691ZM134.705 64.6691H127.533C126.947 64.6691 126.515 64.5457 126.237 64.2989C125.99 64.0212 125.867 63.5893 125.867 63.0032V33.0176C125.867 32.4315 125.99 32.015 126.237 31.7682C126.515 31.4906 126.947 31.3517 127.533 31.3517H148.171C148.757 31.3517 149.174 31.4906 149.421 31.7682C149.698 32.015 149.837 32.4315 149.837 33.0176V38.5242C149.837 39.1104 149.698 39.5422 149.421 39.8199C149.174 40.0667 148.757 40.1901 148.171 40.1901H136.371V45.0026H144.423C145.009 45.0026 145.426 45.1414 145.672 45.4191C145.95 45.6658 146.089 46.0823 146.089 46.6685V52.2213C146.089 52.8075 145.95 53.2394 145.672 53.517C145.426 53.7638 145.009 53.8872 144.423 53.8872H136.371V63.0032C136.371 63.5893 136.232 64.0212 135.955 64.2989C135.708 64.5457 135.292 64.6691 134.705 64.6691ZM49.0221 111.669H37.7312C33.875 111.669 31.006 110.898 29.1242 109.355C27.2733 107.813 26.3478 105.437 26.3478 102.229V87.8379C26.3478 84.6296 27.2733 82.2542 29.1242 80.7117C31.006 79.1384 33.875 78.3517 37.7312 78.3517H49.0221C49.6082 78.3517 50.0247 78.4906 50.2715 78.7682C50.5491 79.015 50.6879 79.4315 50.6879 80.0176V85.6168C50.6879 86.2029 50.5491 86.6348 50.2715 86.9124C50.0247 87.1592 49.6082 87.2826 49.0221 87.2826H39.721C38.7647 87.2826 38.0551 87.4832 37.5924 87.8842C37.1296 88.2544 36.8983 88.8251 36.8983 89.5963V100.61C36.8983 101.381 37.1296 101.952 37.5924 102.322C38.0551 102.661 38.7647 102.831 39.721 102.831H49.0221C49.6082 102.831 50.0247 102.97 50.2715 103.247C50.5491 103.494 50.6879 103.91 50.6879 104.497V110.003C50.6879 110.589 50.5491 111.021 50.2715 111.299C50.0247 111.546 49.6082 111.669 49.0221 111.669ZM81.133 111.669H57.5795C56.9934 111.669 56.5615 111.546 56.2838 111.299C56.037 111.021 55.9137 110.589 55.9137 110.003V80.0176C55.9137 79.4315 56.037 79.015 56.2838 78.7682C56.5615 78.4906 56.9934 78.3517 57.5795 78.3517H64.752C65.3381 78.3517 65.7546 78.4906 66.0014 78.7682C66.279 79.015 66.4179 79.4315 66.4179 80.0176V102.923H72.7574V95.4269C72.7574 94.8407 72.8808 94.4243 73.1276 94.1775C73.4052 93.8998 73.8371 93.761 74.4233 93.761H81.133C81.7192 93.761 82.1356 93.8998 82.3824 94.1775C82.6601 94.4243 82.7989 94.8407 82.7989 95.4269V110.003C82.7989 110.589 82.6601 111.021 82.3824 111.299C82.1356 111.546 81.7192 111.669 81.133 111.669ZM116.455 102.923C116.455 104.342 116.239 105.638 115.807 106.81C115.406 107.952 114.665 108.939 113.586 109.772C112.537 110.574 111.087 111.206 109.236 111.669C107.385 112.132 105.025 112.363 102.156 112.363C99.2869 112.363 96.9269 112.132 95.076 111.669C93.225 111.206 91.7597 110.574 90.6799 109.772C89.6311 108.939 88.8907 107.952 88.4588 106.81C88.0577 105.638 87.8572 104.342 87.8572 102.923V80.0176C87.8572 79.4315 87.9806 79.015 88.2274 78.7682C88.5051 78.4906 88.9369 78.3517 89.5231 78.3517H96.7881C97.3742 78.3517 97.7907 78.4906 98.0375 78.7682C98.3152 79.015 98.454 79.4315 98.454 80.0176V101.119C98.454 101.736 98.6853 102.26 99.1481 102.692C99.6108 103.093 100.644 103.293 102.248 103.293C103.883 103.293 104.932 103.093 105.395 102.692C105.858 102.26 106.089 101.736 106.089 101.119V80.0176C106.089 79.4315 106.213 79.015 106.459 78.7682C106.737 78.4906 107.169 78.3517 107.755 78.3517H114.789C115.375 78.3517 115.791 78.4906 116.038 78.7682C116.316 79.015 116.455 79.4315 116.455 80.0176V102.923ZM142.048 111.669H124.279C123.693 111.669 123.261 111.546 122.984 111.299C122.737 111.021 122.613 110.589 122.613 110.003V80.0176C122.613 79.4315 122.737 79.015 122.984 78.7682C123.261 78.4906 123.693 78.3517 124.279 78.3517H139.041C142.064 78.3517 144.3 78.9379 145.75 80.1102C147.2 81.2516 147.925 83.0254 147.925 85.4317V87.6528C147.925 88.9485 147.694 90.0128 147.231 90.8457C146.799 91.6478 146.121 92.2494 145.195 92.6504C147.169 92.8355 148.635 93.5142 149.591 94.6865C150.547 95.8588 151.026 97.5709 151.026 99.8229V104.08C151.026 106.671 150.285 108.584 148.805 109.818C147.355 111.052 145.103 111.669 142.048 111.669ZM133.025 86.2183V91.2159H136.958C137.544 91.2159 137.976 91.0617 138.254 90.7532C138.563 90.4447 138.717 89.982 138.717 89.365V88.0693C138.717 87.4523 138.563 86.9896 138.254 86.6811C137.976 86.3726 137.544 86.2183 136.958 86.2183H133.025ZM133.025 98.3421V103.802H139.041C139.627 103.802 140.059 103.648 140.336 103.34C140.645 103.031 140.799 102.569 140.799 101.952V100.147C140.799 99.5298 140.645 99.0825 140.336 98.8049C140.059 98.4964 139.627 98.3421 139.041 98.3421H133.025Z" fill="white"/>
<path d="M33.1173 142.718H29.6752C29.3939 142.718 29.1866 142.659 29.0534 142.541C28.9349 142.407 28.8757 142.2 28.8757 141.919V127.528C28.8757 127.247 28.9349 127.047 29.0534 126.929C29.1866 126.796 29.3939 126.729 29.6752 126.729H36.4706C38.4841 126.729 39.8609 127.129 40.6012 127.928C41.3414 128.728 41.7116 129.771 41.7116 131.059V133.902C41.7116 135.19 41.3414 136.234 40.6012 137.033C39.8609 137.833 38.4841 138.232 36.4706 138.232H33.9168V141.919C33.9168 142.2 33.8501 142.407 33.7169 142.541C33.5985 142.659 33.3986 142.718 33.1173 142.718ZM33.8724 130.882V134.235H35.871C36.3004 134.235 36.5817 134.124 36.7149 133.902C36.8481 133.68 36.9148 133.428 36.9148 133.147V131.97C36.9148 131.689 36.8481 131.437 36.7149 131.215C36.5817 130.993 36.3004 130.882 35.871 130.882H33.8724ZM49.5924 131.392L48.5487 134.768H52.0352L50.9915 131.392C50.9322 131.259 50.8656 131.163 50.7916 131.104C50.7324 131.045 50.6584 131.015 50.5695 131.015H50.0143C49.9255 131.015 49.8441 131.045 49.7701 131.104C49.7108 131.163 49.6516 131.259 49.5924 131.392ZM48.3266 141.919C48.3266 142.2 48.26 142.407 48.1267 142.541C48.0083 142.659 47.8084 142.718 47.5271 142.718H44.2626C43.9813 142.718 43.7741 142.659 43.6408 142.541C43.5224 142.407 43.4632 142.2 43.4632 141.919V136.056C43.4632 135.612 43.5298 135.101 43.663 134.524C43.8111 133.946 44.0332 133.273 44.3293 132.503L46.2613 127.462C46.3501 127.21 46.4834 127.025 46.661 126.907C46.8535 126.788 47.0978 126.729 47.3939 126.729H53.3677C53.649 126.729 53.8784 126.788 54.0561 126.907C54.2486 127.025 54.3892 127.21 54.478 127.462L56.4101 132.503C56.7062 133.273 56.9208 133.946 57.0541 134.524C57.2021 135.101 57.2762 135.612 57.2762 136.056V141.919C57.2762 142.2 57.2095 142.407 57.0763 142.541C56.9579 142.659 56.758 142.718 56.4767 142.718H53.1234C52.8273 142.718 52.6052 142.659 52.4572 142.541C52.3239 142.407 52.2573 142.2 52.2573 141.919V138.81H48.3266V141.919ZM65.0369 130.726V133.569H66.7025C67.0874 133.569 67.3465 133.473 67.4798 133.28C67.613 133.073 67.6796 132.821 67.6796 132.525V131.77C67.6796 131.474 67.613 131.23 67.4798 131.037C67.3465 130.83 67.0874 130.726 66.7025 130.726H65.0369ZM64.2375 142.718H60.8175C60.5362 142.718 60.329 142.659 60.1957 142.541C60.0773 142.407 60.0181 142.2 60.0181 141.919V127.528C60.0181 127.247 60.0773 127.047 60.1957 126.929C60.329 126.796 60.5362 126.729 60.8175 126.729H68.2126C69.8707 126.729 71.0107 127.077 71.6325 127.773C72.2691 128.454 72.5875 129.342 72.5875 130.438V131.459C72.5875 132.081 72.4912 132.614 72.2988 133.058C72.1211 133.487 71.8028 133.798 71.3438 133.991C72.1433 134.08 72.7873 134.405 73.2759 134.968C73.7792 135.53 74.0309 136.278 74.0309 137.211V141.919C74.0309 142.2 73.9643 142.407 73.8311 142.541C73.7126 142.659 73.5128 142.718 73.2315 142.718H69.7893C69.508 142.718 69.3008 142.659 69.1675 142.541C69.0491 142.407 68.9899 142.2 68.9899 141.919V138.521C68.9899 138.195 68.9232 137.958 68.79 137.81C68.6716 137.648 68.4569 137.566 68.146 137.566H65.0369V141.919C65.0369 142.2 64.9703 142.407 64.8371 142.541C64.7186 142.659 64.5188 142.718 64.2375 142.718ZM83.4 142.718H79.8024C79.5211 142.718 79.3139 142.659 79.1806 142.541C79.0622 142.407 79.003 142.2 79.003 141.919V131.015H75.7385C75.4572 131.015 75.2499 130.956 75.1167 130.837C74.9982 130.704 74.939 130.497 74.939 130.216V127.528C74.939 127.247 74.9982 127.047 75.1167 126.929C75.2499 126.796 75.4572 126.729 75.7385 126.729H87.464C87.7453 126.729 87.9451 126.796 88.0636 126.929C88.1968 127.047 88.2634 127.247 88.2634 127.528V130.216C88.2634 130.497 88.1968 130.704 88.0636 130.837C87.9451 130.956 87.7453 131.015 87.464 131.015H84.1995V141.919C84.1995 142.2 84.1329 142.407 83.9996 142.541C83.8812 142.659 83.6813 142.718 83.4 142.718ZM94.5537 142.718H91.2226C90.9413 142.718 90.734 142.659 90.6008 142.541C90.4823 142.407 90.4231 142.2 90.4231 141.919V127.528C90.4231 127.247 90.4823 127.047 90.6008 126.929C90.734 126.796 90.9413 126.729 91.2226 126.729H93.5321C93.8134 126.729 94.0503 126.773 94.2428 126.862C94.45 126.951 94.6499 127.106 94.8424 127.329L99.1506 132.259V127.528C99.1506 127.247 99.2098 127.047 99.3283 126.929C99.4615 126.796 99.6688 126.729 99.9501 126.729H103.281C103.562 126.729 103.762 126.796 103.881 126.929C104.014 127.047 104.081 127.247 104.081 127.528V141.919C104.081 142.2 104.014 142.407 103.881 142.541C103.762 142.659 103.562 142.718 103.281 142.718H99.9501C99.6688 142.718 99.4615 142.659 99.3283 142.541C99.2098 142.407 99.1506 142.2 99.1506 141.919V139.187L95.3531 134.59V141.919C95.3531 142.2 95.2865 142.407 95.1533 142.541C95.0348 142.659 94.835 142.718 94.5537 142.718ZM118.247 142.718H107.943C107.662 142.718 107.455 142.659 107.321 142.541C107.203 142.407 107.144 142.2 107.144 141.919V127.528C107.144 127.247 107.203 127.047 107.321 126.929C107.455 126.796 107.662 126.729 107.943 126.729H118.247C118.529 126.729 118.729 126.796 118.847 126.929C118.98 127.047 119.047 127.247 119.047 127.528V130.127C119.047 130.408 118.98 130.615 118.847 130.748C118.729 130.867 118.529 130.926 118.247 130.926H112.118V132.636H116.449C116.73 132.636 116.93 132.703 117.048 132.836C117.181 132.954 117.248 133.154 117.248 133.436V135.812C117.248 136.093 117.181 136.3 117.048 136.434C116.93 136.552 116.73 136.611 116.449 136.611H112.118V138.521H118.247C118.529 138.521 118.729 138.588 118.847 138.721C118.98 138.839 119.047 139.039 119.047 139.321V141.919C119.047 142.2 118.98 142.407 118.847 142.541C118.729 142.659 118.529 142.718 118.247 142.718ZM126.693 130.726V133.569H128.358C128.743 133.569 129.002 133.473 129.136 133.28C129.269 133.073 129.335 132.821 129.335 132.525V131.77C129.335 131.474 129.269 131.23 129.136 131.037C129.002 130.83 128.743 130.726 128.358 130.726H126.693ZM125.893 142.718H122.473C122.192 142.718 121.985 142.659 121.852 142.541C121.733 142.407 121.674 142.2 121.674 141.919V127.528C121.674 127.247 121.733 127.047 121.852 126.929C121.985 126.796 122.192 126.729 122.473 126.729H129.868C131.527 126.729 132.667 127.077 133.288 127.773C133.925 128.454 134.243 129.342 134.243 130.438V131.459C134.243 132.081 134.147 132.614 133.955 133.058C133.777 133.487 133.459 133.798 133 133.991C133.799 134.08 134.443 134.405 134.932 134.968C135.435 135.53 135.687 136.278 135.687 137.211V141.919C135.687 142.2 135.62 142.407 135.487 142.541C135.368 142.659 135.169 142.718 134.887 142.718H131.445C131.164 142.718 130.957 142.659 130.823 142.541C130.705 142.407 130.646 142.2 130.646 141.919V138.521C130.646 138.195 130.579 137.958 130.446 137.81C130.327 137.648 130.113 137.566 129.802 137.566H126.693V141.919C126.693 142.2 126.626 142.407 126.493 142.541C126.374 142.659 126.175 142.718 125.893 142.718ZM145.595 142.718H138.577C138.296 142.718 138.089 142.659 137.956 142.541C137.837 142.407 137.778 142.2 137.778 141.919V139.321C137.778 139.039 137.837 138.839 137.956 138.721C138.089 138.588 138.296 138.521 138.577 138.521H144.551C144.744 138.521 144.884 138.462 144.973 138.343C145.077 138.21 145.129 138.055 145.129 137.877C145.129 137.625 145.077 137.44 144.973 137.322C144.884 137.203 144.744 137.137 144.551 137.122L141.22 136.656C140.184 136.508 139.347 136.167 138.711 135.634C138.089 135.101 137.778 134.213 137.778 132.969V130.637C137.778 129.379 138.185 128.417 138.999 127.75C139.814 127.069 140.939 126.729 142.375 126.729H148.593C148.874 126.729 149.074 126.796 149.193 126.929C149.326 127.047 149.392 127.247 149.392 127.528V130.171C149.392 130.452 149.326 130.66 149.193 130.793C149.074 130.911 148.874 130.971 148.593 130.971H143.419C143.226 130.971 143.078 131.037 142.974 131.17C142.871 131.289 142.819 131.444 142.819 131.637C142.819 131.829 142.871 131.992 142.974 132.125C143.078 132.259 143.226 132.333 143.419 132.347L146.727 132.792C147.764 132.94 148.6 133.28 149.237 133.813C149.874 134.346 150.192 135.234 150.192 136.478V138.81C150.192 140.068 149.777 141.038 148.948 141.719C148.134 142.385 147.016 142.718 145.595 142.718Z" fill="white"/>
</svg>
