<svg width="118" height="159" viewBox="0 0 118 159" fill="none" xmlns="http://www.w3.org/2000/svg">
<g clip-path="url(#clip0)">
<path d="M59.8905 3.05194C34.3906 0.552058 -5.10942 89.0518 5.89046 103.052C27.8904 105.052 71.8904 17.5521 59.8905 3.05194Z" stroke="white" stroke-width="4" stroke-linecap="round" stroke-linejoin="round"/>
<path d="M5.89062 103.05C22.224 75.5499 55.8906 17.1499 59.8906 3.54987" stroke="white" stroke-width="4"/>
<path d="M67.4694 32.6168C49.4909 50.8724 93.4659 137.236 111.269 137.486C126.658 121.638 86.2897 32.4042 67.4694 32.6168Z" stroke="white" stroke-width="4" stroke-linecap="round" stroke-linejoin="round"/>
<path d="M111.269 137.486C100.156 107.494 75.9174 44.5933 67.8579 32.9312" stroke="white" stroke-width="4"/>
<path d="M55.3542 74.7466C38.9214 82.2011 45.9935 150.087 57.6322 154.752C71.7544 148.225 67.7789 79.3648 55.3542 74.7466Z" stroke="white" stroke-width="4" stroke-linecap="round" stroke-linejoin="round"/>
<path d="M57.632 154.752C57.9103 132.228 57.8794 84.7548 55.5301 75.0516" stroke="white" stroke-width="4"/>
</g>
<defs>
<clipPath id="clip0">
<rect width="118" height="159" fill="white"/>
</clipPath>
</defs>
</svg>
