<svg width="130" height="94" viewBox="0 0 130 94" fill="none" xmlns="http://www.w3.org/2000/svg">
<path d="M108.201 45.431H4.24227C3.02144 45.431 2.04832 46.4513 2.10608 47.6707L3.0663 67.9448C3.09871 68.6293 3.45594 69.2561 4.03159 69.6279C5.04165 70.2802 6.71795 71.3517 8.16885 72.2268C9.0218 72.7412 9.44275 73.7625 9.16686 74.7196L8.11607 78.3649C7.54944 80.3305 9.80099 81.8935 11.4445 80.6753L19.8781 74.4241C20.2465 74.151 20.693 74.0036 21.1516 74.0036H41.7654C42.4209 74.0036 43.0402 74.3042 43.4457 74.8192L46.074 78.1572C46.4795 78.6722 47.0987 78.9728 47.7542 78.9728H82.5863C83.7674 78.9728 84.7403 78.0199 84.8707 76.846C85.4782 71.3738 88.6183 57.2327 104.847 57.2327C113.235 57.2327 117.885 62.9527 119.766 67.077C120.248 68.1356 121.398 68.7991 122.524 68.5048L128.402 66.9676C129.344 66.7215 130 65.8713 130 64.8986V61.5519C130 61.1643 129.893 60.7785 129.689 60.4485C121.7 47.4785 112.063 45.0222 108.201 45.431Z" fill="#93CBC3"/>
<path d="M108.871 8.13861C108.871 8.13861 108.754 -0.343696 23.3657 9.30943C79.9194 6.53873 100.067 7.76013 103.072 8.71716C103.072 8.71716 109.967 11.118 108.871 8.13861Z" fill="#93CBC3"/>
<path d="M12.1583 21.4759C24.9898 9.49984 75.9595 10.783 99.8404 12.9216C103.226 13.6344 110.747 16.1295 113.741 20.4066M12.1583 21.4759C42.9896 22.0106 106.47 22.5452 113.741 20.4066M12.1583 21.4759C5.61444 27.5835 2.96405 37.6587 2.29243 47.6736M113.741 20.4066C116.914 24.9387 125.849 44.4533 127.846 61.0398M47.445 81.3564H84.3356C84.3356 81.3564 87.5435 62.6437 103.048 62.6437C110.37 62.6437 115.345 69.7724 116.949 73.8713L118.018 80.8217C128.177 81.3564 128.177 69.5941 128.177 69.5941C128.34 66.9065 128.205 64.0205 127.846 61.0398M47.445 81.3564L43.1678 77.0792H39.4253M47.445 81.3564C46.0193 84.9207 41.0292 92.0493 32.4749 92.0493C23.9205 92.0493 19.2869 84.5643 18.0394 80.8217M18.0394 80.8217L21.7819 77.0792H26.0591M18.0394 80.8217H13.2276L10.5544 82.4257L2.53465 79.7524L4.13859 72.802C2.82866 66.8637 1.6471 57.2965 2.29243 47.6736M2.29243 47.6736H103.048C107.996 47.4954 119.882 49.9191 127.846 61.0398M23.3859 8.10977C25.8381 7.99299 28.5321 7.87185 31.4056 7.75063M108.929 8.10977C103.89 5.396 59.2302 6.57683 31.4056 7.75063M31.4056 7.75063C30.3363 5.37532 27.5561 0.945494 24.9898 2.22865M26.0591 77.0792C25.8809 79.2178 26.9145 83.495 32.4749 83.495C38.0352 83.495 39.4253 79.2178 39.4253 77.0792M26.0591 77.0792H39.4253M87.5435 53.5548C90.0385 53.0201 95.3493 52.2716 96.6325 53.5548M10.5544 29.4957H14.2969M10.0197 32.7036H13.2276M8.95041 35.9114H12.1583M20.7126 27.3571C18.0394 30.9214 12.2851 42.8618 18.0394 42.8618C24.4552 42.8618 29.0888 44.1093 31.9402 42.3272L37.2867 27.3571H20.7126ZM42.0985 27.8917L38.356 42.3272H55.4647C56.7122 42.149 59.3141 38.9055 59.7419 27.3571C55.4647 25.6462 46.1975 27.0007 42.0985 27.8917ZM64.019 27.8917C62.9497 32.7036 61.4527 42.3272 64.019 42.3272C66.5853 42.3272 74.712 42.3272 78.4545 42.3272C80.0584 39.1193 83.0525 31.7412 82.197 27.8917C81.3416 26.6086 69.7219 27.3571 64.019 27.8917ZM87.5435 27.8917C86.296 32.7036 84.3356 42.3272 86.4742 42.3272C88.6128 42.3272 108.395 42.3272 118.018 42.3272C118.553 39.2975 118.232 31.6343 112.672 25.2185C93.4246 25.2185 87.8999 27.0007 87.5435 27.8917Z" stroke="black" stroke-width="2.67323" stroke-linecap="round" stroke-linejoin="round"/>
<circle cx="101.979" cy="78.6831" r="4.5445" stroke="black" stroke-width="2.67323"/>
<circle cx="101.979" cy="79.7521" r="12.0296" stroke="black" stroke-width="2.67323"/>
</svg>
