<svg width="1207" height="547" viewBox="0 0 1207 547" fill="none" xmlns="http://www.w3.org/2000/svg">
<g clip-path="url(#clip0)">
<path opacity="0.6" d="M1169.15 339.232C1169.15 502.895 672.261 547 508.598 547C344.935 547 83.9577 483.857 83.9577 320.194C83.9577 156.531 -39.9727 52 123.69 52C199.651 52 319.699 128.342 378.64 175.336C467.281 195.202 352.561 272.902 409.267 282.117C472.366 292.371 471.948 49.3156 557.436 59.4499C798.314 42.8947 771.609 215.936 844.668 227.485C894.711 235.395 869.553 94.0221 928.272 111.599C1009.7 135.974 1189.84 130.637 1169.15 339.232Z" fill="#C9E5E7" fill-opacity="0.7"/>
<path opacity="0.6" d="M62.4903 16.9387C78.4076 24.4655 96.03 27.6312 111.873 34.9592C116.106 36.917 118.849 41.6005 121.999 44.7357C127.576 50.2882 136.052 54.0424 143.529 56.6224C148.22 58.2412 153.279 59.4587 158.097 60.7448C163.496 62.186 169.298 63.4253 174.992 63.3195C177.59 63.2713 178.669 62.6739 180.723 63.9486C184.588 66.3474 189.28 67.9265 193.339 70.2192C197.982 72.842 201.073 77.4648 205.61 80.3516C211.761 84.2646 218.321 87.4804 224.503 91.3174C225.682 92.049 237.602 103.641 237.507 102.179C237.289 98.7887 226.618 82.1043 236.844 83.1839C240.686 83.5896 243.054 85.7189 246.621 86.6279C251.794 87.9464 258.954 87.381 263.167 90.144C265.848 91.902 267.89 94.4209 270.61 96.1514C275.488 99.2549 280.959 99.5756 285.306 102.977C287.898 105.006 291.149 106.006 293.363 108.498C296.066 111.539 297.87 114.946 300.793 117.789C305.5 122.365 310.736 127.404 316.146 131.329C318.489 133.029 327.816 144.562 329.267 142.573C330.988 140.215 337.125 144.516 338.417 143.347C339.695 142.191 338.561 138.414 338.561 138.414C338.561 138.414 345.121 145.324 349.035 148.083C355.588 152.703 365.397 156.32 369.48 163.284C371.42 166.593 370.932 172.303 370.177 175.949C369.076 181.267 366.62 186.927 365.124 192.284C363.861 196.803 362.639 201.446 360.998 205.83C358.985 211.209 354.086 213.979 350.417 218.254C340.692 229.584 347.854 246.4 357.864 255.442C361.28 258.528 365.125 260.912 368.47 263.879C371.061 266.177 381.28 253.974 382.787 252.636C387.961 248.044 393.588 242.828 400.346 240.757C406.444 238.889 412.45 242.646 418.488 243.248C425.643 243.962 434.845 242.733 441.405 245.946C446.861 248.617 451.42 250.144 457.489 251.69C461.784 252.785 465.637 254.508 470.068 255.349C474.37 256.165 477.132 260.163 480.781 262.262C484.421 264.357 485.642 273.668 487.211 277.225C488.932 281.127 486.39 271.015 487.532 274.742C490.806 285.425 492.915 296.33 495.132 307.233C496.086 311.928 495.661 316.235 497.136 321.048C498.827 326.566 502.311 330.445 505.478 335.187C513.777 347.606 526.883 354.559 531.46 369.499C532.527 372.98 527.746 374.32 524.348 374.957C518.937 375.972 513.539 377.212 508.024 377.156C496.83 377.043 486.342 371.083 476.756 366.524C468.54 362.617 457.258 359.353 450.176 353.74C446.241 350.62 445.513 343.299 444.162 338.888C440.776 327.837 440.977 318.046 442.967 306.521C444.386 298.3 447.215 290.124 449.682 282.105C451.941 274.762 455.982 267.826 457.183 260.251C459.166 247.738 459.234 234.817 460.622 222.231C461.731 212.173 463.298 203.107 465.494 193.252C467.936 182.291 467.961 170.939 469.587 159.861C472.496 140.05 475.726 119.844 484.196 101.367C489.504 89.7872 502.197 83.4758 515.449 85.3522C526.892 86.9725 546.265 91.6908 553.626 100.665C561.55 110.326 560.675 90.6848 560.095 86.0426C558.6 74.0807 547.373 65.2453 538.753 57.5232C532.383 51.8166 516.656 33.8193 525.69 25.2746C529.364 21.7986 532.583 22.7404 537.746 22.654C557.922 22.3166 577.339 26.8022 596.872 30.2962C606.819 32.0754 615.524 35.7627 624.961 38.8619C630.652 40.7311 636.596 41.5633 641.652 44.7188C656.864 54.2149 640.126 31.7343 651.072 35.155C663.301 38.977 671.645 50.6632 684.047 55.1019C693.181 58.3707 702.042 61.4167 710.791 65.5107C715.417 67.6757 720.959 68.6931 725.22 71.4645C725.754 71.8122 727.251 73.5224 727.201 73.3615C726.394 70.727 725.587 68.0925 724.78 65.458C723.956 62.7694 716.084 47.6716 720.381 45.6991C721.567 45.155 724.776 54.0126 724.983 54.4848C730.707 67.5197 739.125 79.0216 747.283 90.7004C760.143 109.111 770.499 128.579 782.108 147.643C789.708 160.124 803.181 168.818 811.116 181.028C816.941 189.992 823.179 197.66 830.632 205.457C834.107 209.092 836.429 213.083 840.75 215.832C843.036 217.286 849.06 217.503 851.656 217.976C862.196 219.894 873.092 219.075 883.655 220.812C889.401 221.757 895.011 224.786 899.151 228.585C917.585 245.503 933.354 264.455 941.847 287.946C947.496 303.574 954.395 321.486 953.36 338.616C953.067 343.465 953.362 347.13 948.791 350.092C940.295 355.598 933.577 355.308 924.64 351.47C902.137 341.804 894.218 318.993 883.782 298.939C879.092 289.926 876.332 280.312 873.801 270.516C871.719 262.457 868.738 253.589 870.344 245.103C872.37 234.396 870.983 222.87 871.668 212.023C872.414 200.217 870.742 188.531 871.409 176.687C871.772 170.247 872.459 158.795 877.869 153.72C879.773 151.934 887.768 145.314 888.489 146.412C890.829 149.978 894.06 152.739 896.668 156.069C897.749 157.45 897.281 154.737 897.347 153.715C897.847 145.938 896.136 137.955 895.872 130.198C895.473 118.494 895.933 104.403 903.829 94.2523C908.274 88.5386 921.069 85.1671 927.603 83.7489C935.818 81.9659 943.78 85.3203 951.61 86.8874C962.178 89.0028 973.069 88.8837 983.652 90.9031C997.013 93.4527 1009.99 97.1904 1023.55 98.951C1030.12 99.8039 1037.06 99.5477 1042.57 103.26C1072.63 123.522 1102.85 143.492 1134.36 161.83C1141.77 166.145 1150.01 169.574 1157.23 174.141C1160.33 176.103 1161.5 180.292 1163.09 183.314C1168.31 193.186 1175.59 202.091 1179 212.784C1182.29 223.116 1186.19 234.476 1186.46 245.438C1186.82 260.838 1183.77 277.82 1179.41 292.672C1173.89 311.507 1169.67 329.477 1166.5 348.618C1164.08 363.259 1160.38 378.486 1150.77 390.763C1131.09 415.895 1097.75 431.001 1068.18 442.42C1032.09 456.35 994.459 467.104 957.571 478.692C915.765 491.825 873.567 503.762 830.528 512.011C802.896 517.306 774.936 521.031 747.023 524.12C712.316 527.961 677.758 527.346 643.047 526.761C595.465 525.958 547.526 526.405 500.19 522.592C441.338 517.851 383.173 506.982 325.204 497.502C304.521 494.119 283.812 490.786 263.197 487.105C249.099 484.588 235.035 481.957 222.114 476.022C190.782 461.63 166.228 436.757 144.904 411.435C104.387 363.319 64.5393 313.621 42.5333 254.748C32.4117 227.67 22.741 200.722 18.0982 172.084C15.2049 154.238 11.2496 136.613 13.5755 118.259C15.5649 102.56 23.4409 83.927 32.9803 71.0549C38.9301 63.0265 41.1116 53.6393 45.8902 45.0391C48.6906 39.999 51.6803 35.1132 54.5551 30.102C56.2834 27.0893 57.4267 22.1449 59.9488 19.8638" stroke="#0A3836" stroke-width="9.85464" stroke-linecap="round" stroke-linejoin="round"/>
</g>
<defs>
<clipPath id="clip0">
<rect width="1207" height="547" fill="white"/>
</clipPath>
</defs>
</svg>
