<svg width="2180" height="1463" viewBox="0 0 2180 1463" fill="none" xmlns="http://www.w3.org/2000/svg">
<g clip-path="url(#clip0)">
<path opacity="0.3" d="M2724.24 832.104C2724.24 1306.23 1285.11 1434 811.093 1434C337.078 1434 -418.79 1251.08 -418.79 776.95C-418.79 302.824 -777.728 0 -303.713 0C-83.7072 0 263.985 221.16 434.696 357.301C691.426 414.853 359.163 639.945 523.401 666.642C706.153 696.348 704.943 -7.77681 952.541 21.5819C1650.19 -26.3779 1572.85 474.918 1784.45 508.375C1929.39 531.291 1856.52 121.737 2026.59 172.656C2262.44 243.27 2784.18 227.809 2724.24 832.104Z" fill="#C9E5E7" fill-opacity="0.7"/>
</g>
<defs>
<clipPath id="clip0">
<rect width="2180" height="1463" fill="white"/>
</clipPath>
</defs>
</svg>
