<svg width="177" height="78" viewBox="0 0 177 78" fill="none" xmlns="http://www.w3.org/2000/svg">
<g clip-path="url(#clip0)">
<path d="M172.62 45.2138C172.62 70.067 97.1647 76.7646 72.3114 76.7646C47.4582 76.7646 7.82711 67.1759 7.82711 42.3227C7.82711 17.4694 -10.9925 1.59573 13.8607 1.59573C25.3959 1.59573 43.6259 13.1887 52.5764 20.3251C66.0371 23.3419 48.6162 35.141 57.2274 36.5404C66.8093 38.0976 66.7459 1.18808 79.7277 2.72704C116.307 0.21303 112.251 26.4905 123.346 28.2442C130.945 29.4455 127.125 7.97705 136.042 10.6462C148.407 14.3477 175.763 13.5373 172.62 45.2138Z" fill="#93CBC3"/>
<path d="M18.0304 2.16378C20.2445 3.21073 22.6957 3.65107 24.8994 4.67036C25.4881 4.94268 25.8697 5.59413 26.3078 6.03022C27.0836 6.80256 28.2625 7.32475 29.3025 7.68361C29.9551 7.90878 30.6587 8.07813 31.3289 8.25702C32.0799 8.45749 32.8869 8.62986 33.6789 8.61516C34.0403 8.60844 34.1904 8.52535 34.4761 8.70265C35.0137 9.03632 35.6664 9.25596 36.2309 9.57487C36.8767 9.93969 37.3066 10.5827 37.9378 10.9842C38.7934 11.5285 39.7058 11.9758 40.5657 12.5095C40.7297 12.6113 42.3876 14.2237 42.3745 14.0204C42.3442 13.5488 40.8598 11.228 42.2823 11.3782C42.8167 11.4346 43.1461 11.7308 43.6422 11.8572C44.3618 12.0407 45.3577 11.962 45.9437 12.3463C46.3166 12.5909 46.6006 12.9412 46.979 13.1819C47.6575 13.6136 48.4185 13.6582 49.0231 14.1314C49.3837 14.4135 49.8358 14.5526 50.1439 14.8993C50.5197 15.3223 50.7707 15.7962 51.1774 16.1916C51.832 16.8281 52.5603 17.5291 53.3129 18.075C53.6387 18.3114 54.936 19.9156 55.138 19.639C55.3773 19.311 56.2309 19.9092 56.4106 19.7466C56.5885 19.5858 56.4306 19.0605 56.4306 19.0605C56.4306 19.0605 57.3432 20.0216 57.8876 20.4054C58.799 21.048 60.1635 21.5512 60.7314 22.5198C61.0012 22.98 60.9334 23.7742 60.8283 24.2814C60.6751 25.0211 60.3336 25.8085 60.1254 26.5535C59.9498 27.1821 59.7798 27.828 59.5516 28.4377C59.2716 29.1859 58.5901 29.5712 58.0798 30.1658C56.7271 31.7419 57.7232 34.0809 59.1156 35.3386C59.5908 35.7679 60.1256 36.0994 60.5909 36.5121C60.9512 36.8318 62.3727 35.1343 62.5823 34.9483C63.302 34.3096 64.0847 33.584 65.0247 33.296C65.8729 33.0361 66.7084 33.5586 67.5482 33.6424C68.5434 33.7418 69.8233 33.5708 70.7358 34.0176C71.4948 34.3893 72.1289 34.6016 72.973 34.8167C73.5705 34.969 74.1064 35.2086 74.7228 35.3256C75.3212 35.4392 75.7052 35.9952 76.2128 36.2872C76.7191 36.5785 76.889 37.8737 77.1072 38.3685C77.3466 38.9112 76.9931 37.5046 77.1519 38.0231C77.6072 39.5091 77.9007 41.0258 78.209 42.5425C78.3417 43.1955 78.2827 43.7946 78.4878 44.4641C78.7229 45.2316 79.2075 45.7712 79.6481 46.4307C80.8024 48.1582 82.6254 49.1253 83.2621 51.2034C83.4105 51.6876 82.7454 51.874 82.2728 51.9626C81.5201 52.1038 80.7694 52.2763 80.0022 52.2685C78.4452 52.2527 76.9864 51.4237 75.653 50.7896C74.5102 50.2461 72.9408 49.7922 71.9559 49.0113C71.4085 48.5774 71.3072 47.5591 71.1193 46.9455C70.6483 45.4084 70.6763 44.0465 70.953 42.4434C71.1504 41.2999 71.544 40.1627 71.8872 39.0473C72.2014 38.0259 72.7634 37.061 72.9305 36.0074C73.2063 34.267 73.2158 32.4697 73.4088 30.719C73.563 29.3201 73.7811 28.059 74.0865 26.6882C74.4262 25.1635 74.4296 23.5846 74.6559 22.0436C75.0604 19.2881 75.5097 16.4775 76.6879 13.9073C77.4262 12.2967 79.1918 11.4188 81.035 11.6798C82.6267 11.9052 85.3214 12.5615 86.3452 13.8097C87.4475 15.1535 87.3258 12.4215 87.2451 11.7758C87.0372 10.112 85.4755 8.88302 84.2765 7.8089C83.3904 7.01515 81.203 4.5118 82.4594 3.32328C82.9706 2.83977 83.4182 2.97077 84.1364 2.95876C86.9428 2.91183 89.6436 3.53575 92.3606 4.02175C93.7442 4.26924 94.9551 4.78212 96.2676 5.21321C97.0593 5.47321 97.8861 5.58896 98.5893 6.02788C100.705 7.34874 98.3771 4.22179 99.8995 4.69759C101.601 5.22921 102.761 6.85471 104.486 7.47212C105.757 7.92679 106.989 8.35048 108.206 8.91994C108.85 9.22108 109.621 9.36259 110.213 9.74808C110.288 9.79645 110.496 10.0343 110.489 10.0119C110.377 9.6455 110.264 9.27905 110.152 8.91261C110.037 8.53864 108.942 6.43859 109.54 6.16422C109.705 6.08855 110.151 7.3206 110.18 7.38628C110.976 9.19939 112.147 10.7992 113.282 12.4237C115.071 14.9846 116.511 17.6924 118.126 20.3442C119.183 22.0803 121.057 23.2896 122.161 24.988C122.971 26.2347 123.839 27.3014 124.876 28.3858C125.359 28.8914 125.682 29.4466 126.283 29.829C126.601 30.0312 127.439 30.0614 127.8 30.1272C129.266 30.394 130.782 30.28 132.251 30.5217C133.05 30.6531 133.83 31.0745 134.406 31.6029C136.97 33.9561 139.164 36.5922 140.345 39.8598C141.131 42.0334 142.09 44.5251 141.947 46.9077C141.906 47.5822 141.947 48.092 141.311 48.504C140.129 49.2698 139.195 49.2295 137.952 48.6956C134.822 47.3512 133.72 44.1782 132.269 41.3888C131.616 40.1351 131.232 38.7979 130.88 37.4353C130.591 36.3143 130.176 35.0808 130.399 33.9004C130.681 32.4112 130.488 30.808 130.584 29.2992C130.687 27.6569 130.455 26.0316 130.548 24.384C130.598 23.4883 130.693 21.8953 131.446 21.1895C131.711 20.9411 132.823 20.0202 132.923 20.173C133.249 20.669 133.698 21.053 134.061 21.5163C134.211 21.7083 134.146 21.3309 134.155 21.1888C134.225 20.1071 133.987 18.9966 133.95 17.9177C133.895 16.2897 133.959 14.3296 135.057 12.9178C135.675 12.123 137.455 11.6541 138.364 11.4568C139.506 11.2088 140.614 11.6754 141.703 11.8933C143.173 12.1876 144.688 12.171 146.16 12.4519C148.018 12.8065 149.823 13.3264 151.71 13.5713C152.623 13.69 153.589 13.6543 154.355 14.1707C158.536 16.9891 162.739 19.7667 167.123 22.3175C168.154 22.9177 169.3 23.3946 170.304 24.0299C170.735 24.3028 170.898 24.8856 171.12 25.3059C171.845 26.6791 172.858 27.9177 173.332 29.405C173.789 30.8421 174.333 32.4222 174.369 33.9471C174.42 36.0891 173.995 38.4513 173.389 40.5171C172.621 43.137 172.034 45.6366 171.594 48.2989C171.257 50.3354 170.742 52.4535 169.405 54.161C166.668 57.6569 162.031 59.758 157.917 61.3464C152.898 63.284 147.663 64.7798 142.532 66.3917C136.717 68.2184 130.848 69.8788 124.861 71.0262C121.018 71.7628 117.129 72.2808 113.246 72.7105C108.418 73.2448 103.611 73.1593 98.7834 73.0778C92.165 72.9661 85.4967 73.0284 78.9126 72.498C70.7266 71.8385 62.636 70.3267 54.5727 69.008C51.6959 68.5375 48.8153 68.0739 45.9478 67.5619C43.9868 67.2118 42.0307 66.8457 40.2334 66.0202C35.8752 64.0185 32.4598 60.5587 29.4939 57.0365C23.8581 50.3438 18.3154 43.431 15.2545 35.242C13.8466 31.4756 12.5015 27.7273 11.8557 23.7439C11.4532 21.2615 10.9031 18.81 11.2266 16.257C11.5033 14.0734 12.5988 11.4816 13.9257 9.69111C14.7533 8.5744 15.0567 7.26868 15.7214 6.07242C16.111 5.37137 16.5268 4.69178 16.9267 3.99474C17.1671 3.57569 17.3261 2.88794 17.6769 2.57065" stroke="#0F4A42" stroke-width="2" stroke-linecap="round" stroke-linejoin="round"/>
</g>
<defs>
<clipPath id="clip0">
<rect width="177" height="78" fill="white"/>
</clipPath>
</defs>
</svg>
