<svg width="2180" height="1463" viewBox="0 0 2180 1463" fill="none" xmlns="http://www.w3.org/2000/svg">
<g clip-path="url(#clip0)">
<path opacity="0.3" d="M3614.24 832.104C3614.24 1306.23 2175.11 1434 1701.09 1434C1227.08 1434 471.21 1251.08 471.21 776.95C471.21 302.824 112.272 0 586.287 0C806.293 0 1153.99 221.16 1324.7 357.301C1581.43 414.853 1249.16 639.945 1413.4 666.642C1596.15 696.348 1594.94 -7.77681 1842.54 21.5819C2540.19 -26.3779 2462.85 474.918 2674.45 508.375C2819.39 531.291 2746.52 121.737 2916.59 172.656C3152.44 243.27 3674.18 227.809 3614.24 832.104Z" fill="#C9E5E7" fill-opacity="0.7"/>
</g>
<defs>
<clipPath id="clip0">
<rect width="2180" height="1463" fill="white"/>
</clipPath>
</defs>
</svg>
